%TF.GenerationSoftware,KiCad,Pcbnew,(6.0.9)*%
%TF.CreationDate,2022-12-10T23:12:21+01:00*%
%TF.ProjectId,ANET_ATX,414e4554-5f41-4545-982e-6b696361645f,rev?*%
%TF.SameCoordinates,Original*%
%TF.FileFunction,Profile,NP*%
%FSLAX46Y46*%
G04 Gerber Fmt 4.6, Leading zero omitted, Abs format (unit mm)*
G04 Created by KiCad (PCBNEW (6.0.9)) date 2022-12-10 23:12:22*
%MOMM*%
%LPD*%
G01*
G04 APERTURE LIST*
%TA.AperFunction,Profile*%
%ADD10C,0.050000*%
%TD*%
%TA.AperFunction,Profile*%
%ADD11C,0.100000*%
%TD*%
G04 APERTURE END LIST*
D10*
X112950000Y-62900000D02*
X112950000Y-86900000D01*
X110820328Y-63400000D02*
G75*
G03*
X110820328Y-63400000I-1370328J0D01*
G01*
X52820328Y-63400000D02*
G75*
G03*
X52820328Y-63400000I-1370328J0D01*
G01*
D11*
X47975000Y-112925000D02*
G75*
G03*
X50975000Y-115925000I3000000J0D01*
G01*
X50975000Y-59925000D02*
G75*
G03*
X47975000Y-62925000I0J-3000000D01*
G01*
X47975000Y-62425000D02*
X47975000Y-78425000D01*
X52975000Y-80425000D02*
X52975000Y-95425000D01*
D10*
X112950000Y-62900000D02*
G75*
G03*
X109950000Y-59900000I-3000000J0D01*
G01*
D11*
X51975000Y-96425000D02*
G75*
G03*
X52975000Y-95425000I0J1000000D01*
G01*
X47975000Y-97425000D02*
X47975000Y-112925000D01*
X52975000Y-80425000D02*
G75*
G03*
X51975000Y-79425000I-1000000J0D01*
G01*
X47975000Y-78425000D02*
G75*
G03*
X48975000Y-79425000I1000000J0D01*
G01*
X48975000Y-96425000D02*
G75*
G03*
X47975000Y-97425000I0J-1000000D01*
G01*
X48975000Y-96425000D02*
X51975000Y-96425000D01*
X48975000Y-79425000D02*
X51975000Y-79425000D01*
X109975000Y-115925000D02*
G75*
G03*
X112975000Y-112925000I0J3000000D01*
G01*
X112975000Y-62425000D02*
X112975000Y-112925000D01*
X112975000Y-62925000D02*
G75*
G03*
X109975000Y-59925000I-3000000J0D01*
G01*
D10*
X50950000Y-59900000D02*
G75*
G03*
X47950000Y-62900000I0J-3000000D01*
G01*
D11*
X50975000Y-115925000D02*
X109975000Y-115925000D01*
D10*
X110820328Y-86400000D02*
G75*
G03*
X110820328Y-86400000I-1370328J0D01*
G01*
X50950000Y-59900000D02*
X109950000Y-59900000D01*
D11*
X50975000Y-59925000D02*
X109975000Y-59925000D01*
M02*
