%TF.GenerationSoftware,KiCad,Pcbnew,(6.0.9)*%
%TF.CreationDate,2022-12-10T23:12:21+01:00*%
%TF.ProjectId,ANET_ATX,414e4554-5f41-4545-982e-6b696361645f,rev?*%
%TF.SameCoordinates,Original*%
%TF.FileFunction,Copper,L1,Top*%
%TF.FilePolarity,Positive*%
%FSLAX46Y46*%
G04 Gerber Fmt 4.6, Leading zero omitted, Abs format (unit mm)*
G04 Created by KiCad (PCBNEW (6.0.9)) date 2022-12-10 23:12:21*
%MOMM*%
%LPD*%
G01*
G04 APERTURE LIST*
%TA.AperFunction,ComponentPad*%
%ADD10R,1.600000X1.600000*%
%TD*%
%TA.AperFunction,ComponentPad*%
%ADD11O,1.600000X1.600000*%
%TD*%
%TA.AperFunction,ComponentPad*%
%ADD12C,1.650000*%
%TD*%
%TA.AperFunction,ComponentPad*%
%ADD13R,2.150000X2.150000*%
%TD*%
%TA.AperFunction,ComponentPad*%
%ADD14C,2.150000*%
%TD*%
%TA.AperFunction,ComponentPad*%
%ADD15R,1.700000X1.700000*%
%TD*%
%TA.AperFunction,ComponentPad*%
%ADD16O,1.700000X1.700000*%
%TD*%
%TA.AperFunction,ComponentPad*%
%ADD17R,1.800000X1.800000*%
%TD*%
%TA.AperFunction,ComponentPad*%
%ADD18C,1.800000*%
%TD*%
%TA.AperFunction,ComponentPad*%
%ADD19C,1.600000*%
%TD*%
%TA.AperFunction,SMDPad,CuDef*%
%ADD20R,3.000000X1.250000*%
%TD*%
%TA.AperFunction,ComponentPad*%
%ADD21C,3.450000*%
%TD*%
%TA.AperFunction,ComponentPad*%
%ADD22R,1.650000X1.650000*%
%TD*%
%TA.AperFunction,ComponentPad*%
%ADD23R,1.500000X1.050000*%
%TD*%
%TA.AperFunction,ComponentPad*%
%ADD24O,1.500000X1.050000*%
%TD*%
%TA.AperFunction,Conductor*%
%ADD25C,0.250000*%
%TD*%
G04 APERTURE END LIST*
D10*
%TO.P,SW1HWSTART1,1*%
%TO.N,+3.3V*%
X68000000Y-70000000D03*
D11*
%TO.P,SW1HWSTART1,2*%
%TO.N,Net-(J2ATX1-Pad16)*%
X75620000Y-70000000D03*
%TD*%
D12*
%TO.P,J4,1,1*%
%TO.N,GND*%
X107945000Y-96000000D03*
%TO.P,J4,2,2*%
%TO.N,12V*%
X107945000Y-99500000D03*
%TD*%
D13*
%TO.P,J2ATX1,1,1*%
%TO.N,unconnected-(J2ATX1-Pad1)*%
X94650000Y-100650000D03*
D14*
%TO.P,J2ATX1,2,2*%
%TO.N,unconnected-(J2ATX1-Pad2)*%
X90450000Y-100650000D03*
%TO.P,J2ATX1,3,3*%
%TO.N,GND*%
X86250000Y-100650000D03*
%TO.P,J2ATX1,4,4*%
%TO.N,+5V*%
X82050000Y-100650000D03*
%TO.P,J2ATX1,5,5*%
%TO.N,unconnected-(J2ATX1-Pad5)*%
X77850000Y-100650000D03*
%TO.P,J2ATX1,6,6*%
%TO.N,unconnected-(J2ATX1-Pad6)*%
X73650000Y-100650000D03*
%TO.P,J2ATX1,7,7*%
%TO.N,unconnected-(J2ATX1-Pad7)*%
X69450000Y-100650000D03*
%TO.P,J2ATX1,8,8*%
%TO.N,unconnected-(J2ATX1-Pad8)*%
X65250000Y-100650000D03*
%TO.P,J2ATX1,9,9*%
%TO.N,Net-(D3POWER1-Pad2)*%
X61050000Y-100650000D03*
%TO.P,J2ATX1,10,10*%
%TO.N,12V*%
X56850000Y-100650000D03*
%TO.P,J2ATX1,11,11*%
%TO.N,unconnected-(J2ATX1-Pad11)*%
X94650000Y-95150000D03*
%TO.P,J2ATX1,12,12*%
%TO.N,unconnected-(J2ATX1-Pad12)*%
X90450000Y-95150000D03*
%TO.P,J2ATX1,13,13*%
%TO.N,unconnected-(J2ATX1-Pad13)*%
X86250000Y-95150000D03*
%TO.P,J2ATX1,14,14*%
%TO.N,unconnected-(J2ATX1-Pad14)*%
X82050000Y-95150000D03*
%TO.P,J2ATX1,15,15*%
%TO.N,unconnected-(J2ATX1-Pad15)*%
X77850000Y-95150000D03*
%TO.P,J2ATX1,16,16*%
%TO.N,Net-(J2ATX1-Pad16)*%
X73650000Y-95150000D03*
%TO.P,J2ATX1,17,17*%
%TO.N,unconnected-(J2ATX1-Pad17)*%
X69450000Y-95150000D03*
%TO.P,J2ATX1,18,18*%
%TO.N,unconnected-(J2ATX1-Pad18)*%
X65250000Y-95150000D03*
%TO.P,J2ATX1,19,19*%
%TO.N,unconnected-(J2ATX1-Pad19)*%
X61050000Y-95150000D03*
%TO.P,J2ATX1,20,20*%
%TO.N,unconnected-(J2ATX1-Pad20)*%
X56850000Y-95150000D03*
%TD*%
D15*
%TO.P,J1,1,Pin_1*%
%TO.N,GPIO*%
X92000000Y-70000000D03*
D16*
%TO.P,J1,2,Pin_2*%
%TO.N,+3.3V*%
X89460000Y-70000000D03*
%TO.P,J1,3,Pin_3*%
%TO.N,+5V*%
X86920000Y-70000000D03*
%TO.P,J1,4,Pin_4*%
%TO.N,5VSB*%
X84380000Y-70000000D03*
%TO.P,J1,5,Pin_5*%
%TO.N,GND*%
X81840000Y-70000000D03*
%TD*%
D17*
%TO.P,D1GPIO1,1,K*%
%TO.N,Net-(D1GPIO1-Pad1)*%
X74000000Y-82000000D03*
D18*
%TO.P,D1GPIO1,2,A*%
%TO.N,Net-(D1GPIO1-Pad2)*%
X76540000Y-82000000D03*
%TD*%
D19*
%TO.P,R2,1*%
%TO.N,Net-(Q1-Pad2)*%
X74000000Y-89000000D03*
D11*
%TO.P,R2,2*%
%TO.N,Net-(D2SWSTART1-Pad1)*%
X81620000Y-89000000D03*
%TD*%
D20*
%TO.P,J3USB1,1,1*%
%TO.N,5VSB*%
X103795000Y-78475000D03*
%TO.P,J3USB1,2,2*%
%TO.N,unconnected-(J3USB1-Pad2)*%
X103795000Y-75975000D03*
%TO.P,J3USB1,3,3*%
%TO.N,unconnected-(J3USB1-Pad3)*%
X103795000Y-73975000D03*
%TO.P,J3USB1,4,4*%
%TO.N,GND*%
X103795000Y-71475000D03*
D21*
%TO.P,J3USB1,5,5*%
%TO.N,unconnected-(J3USB1-Pad5)*%
X107475000Y-81545000D03*
%TO.P,J3USB1,6,6*%
%TO.N,unconnected-(J3USB1-Pad6)*%
X107475000Y-68405000D03*
%TD*%
D22*
%TO.P,J6RPI1,1,1*%
%TO.N,unconnected-(J6RPI1-Pad1)*%
X56388000Y-64770000D03*
D12*
%TO.P,J6RPI1,2,2*%
%TO.N,5VSB*%
X56388000Y-62230000D03*
%TO.P,J6RPI1,3,3*%
%TO.N,unconnected-(J6RPI1-Pad3)*%
X58928000Y-64770000D03*
%TO.P,J6RPI1,4,4*%
%TO.N,unconnected-(J6RPI1-Pad4)*%
X58928000Y-62230000D03*
%TO.P,J6RPI1,5,5*%
%TO.N,unconnected-(J6RPI1-Pad5)*%
X61468000Y-64770000D03*
%TO.P,J6RPI1,6,6*%
%TO.N,unconnected-(J6RPI1-Pad6)*%
X61468000Y-62230000D03*
%TO.P,J6RPI1,7,7*%
%TO.N,unconnected-(J6RPI1-Pad7)*%
X64008000Y-64770000D03*
%TO.P,J6RPI1,8,8*%
%TO.N,unconnected-(J6RPI1-Pad8)*%
X64008000Y-62230000D03*
%TO.P,J6RPI1,9,9*%
%TO.N,unconnected-(J6RPI1-Pad9)*%
X66548000Y-64770000D03*
%TO.P,J6RPI1,10,10*%
%TO.N,unconnected-(J6RPI1-Pad10)*%
X66548000Y-62230000D03*
%TO.P,J6RPI1,11,11*%
%TO.N,unconnected-(J6RPI1-Pad11)*%
X69088000Y-64770000D03*
%TO.P,J6RPI1,12,12*%
%TO.N,unconnected-(J6RPI1-Pad12)*%
X69088000Y-62230000D03*
%TO.P,J6RPI1,13,13*%
%TO.N,unconnected-(J6RPI1-Pad13)*%
X71628000Y-64770000D03*
%TO.P,J6RPI1,14,14*%
%TO.N,unconnected-(J6RPI1-Pad14)*%
X71628000Y-62230000D03*
%TO.P,J6RPI1,15,15*%
%TO.N,unconnected-(J6RPI1-Pad15)*%
X74168000Y-64770000D03*
%TO.P,J6RPI1,16,16*%
%TO.N,unconnected-(J6RPI1-Pad16)*%
X74168000Y-62230000D03*
%TO.P,J6RPI1,17,17*%
%TO.N,unconnected-(J6RPI1-Pad17)*%
X76708000Y-64770000D03*
%TO.P,J6RPI1,18,18*%
%TO.N,unconnected-(J6RPI1-Pad18)*%
X76708000Y-62230000D03*
%TO.P,J6RPI1,19,19*%
%TO.N,unconnected-(J6RPI1-Pad19)*%
X79248000Y-64770000D03*
%TO.P,J6RPI1,20,20*%
%TO.N,unconnected-(J6RPI1-Pad20)*%
X79248000Y-62230000D03*
%TO.P,J6RPI1,21,21*%
%TO.N,unconnected-(J6RPI1-Pad21)*%
X81788000Y-64770000D03*
%TO.P,J6RPI1,22,22*%
%TO.N,unconnected-(J6RPI1-Pad22)*%
X81788000Y-62230000D03*
%TO.P,J6RPI1,23,23*%
%TO.N,unconnected-(J6RPI1-Pad23)*%
X84328000Y-64770000D03*
%TO.P,J6RPI1,24,24*%
%TO.N,unconnected-(J6RPI1-Pad24)*%
X84328000Y-62230000D03*
%TO.P,J6RPI1,25,25*%
%TO.N,unconnected-(J6RPI1-Pad25)*%
X86868000Y-64770000D03*
%TO.P,J6RPI1,26,26*%
%TO.N,unconnected-(J6RPI1-Pad26)*%
X86868000Y-62230000D03*
%TO.P,J6RPI1,27,27*%
%TO.N,unconnected-(J6RPI1-Pad27)*%
X89408000Y-64770000D03*
%TO.P,J6RPI1,28,28*%
%TO.N,unconnected-(J6RPI1-Pad28)*%
X89408000Y-62230000D03*
%TO.P,J6RPI1,29,29*%
%TO.N,GPIO*%
X91948000Y-64770000D03*
%TO.P,J6RPI1,30,30*%
%TO.N,unconnected-(J6RPI1-Pad30)*%
X91948000Y-62230000D03*
%TO.P,J6RPI1,31,31*%
%TO.N,unconnected-(J6RPI1-Pad31)*%
X94488000Y-64770000D03*
%TO.P,J6RPI1,32,32*%
%TO.N,unconnected-(J6RPI1-Pad32)*%
X94488000Y-62230000D03*
%TO.P,J6RPI1,33,33*%
%TO.N,unconnected-(J6RPI1-Pad33)*%
X97028000Y-64770000D03*
%TO.P,J6RPI1,34,34*%
%TO.N,unconnected-(J6RPI1-Pad34)*%
X97028000Y-62230000D03*
%TO.P,J6RPI1,35,35*%
%TO.N,unconnected-(J6RPI1-Pad35)*%
X99568000Y-64770000D03*
%TO.P,J6RPI1,36,36*%
%TO.N,unconnected-(J6RPI1-Pad36)*%
X99568000Y-62230000D03*
%TO.P,J6RPI1,37,37*%
%TO.N,unconnected-(J6RPI1-Pad37)*%
X102108000Y-64770000D03*
%TO.P,J6RPI1,38,38*%
%TO.N,unconnected-(J6RPI1-Pad38)*%
X102108000Y-62230000D03*
%TO.P,J6RPI1,39,39*%
%TO.N,GND*%
X104648000Y-64770000D03*
%TO.P,J6RPI1,40,40*%
%TO.N,unconnected-(J6RPI1-Pad40)*%
X104648000Y-62230000D03*
%TD*%
D23*
%TO.P,Q1,1,B*%
%TO.N,Net-(D1GPIO1-Pad1)*%
X73000000Y-75000000D03*
D24*
%TO.P,Q1,2,C*%
%TO.N,Net-(Q1-Pad2)*%
X73000000Y-76270000D03*
%TO.P,Q1,3,E*%
%TO.N,Net-(J2ATX1-Pad16)*%
X73000000Y-77540000D03*
%TD*%
D19*
%TO.P,R1,1*%
%TO.N,Net-(D1GPIO1-Pad2)*%
X83000000Y-79000000D03*
D11*
%TO.P,R1,2*%
%TO.N,GPIO*%
X90620000Y-79000000D03*
%TD*%
D17*
%TO.P,D2SWSTART1,1,K*%
%TO.N,Net-(D2SWSTART1-Pad1)*%
X85000000Y-90000000D03*
D18*
%TO.P,D2SWSTART1,2,A*%
%TO.N,+5V*%
X87540000Y-90000000D03*
%TD*%
D12*
%TO.P,J5,1,1*%
%TO.N,GND*%
X58345000Y-85025000D03*
%TO.P,J5,2,2*%
%TO.N,12V*%
X58345000Y-88525000D03*
%TD*%
D17*
%TO.P,D3POWER1,1,K*%
%TO.N,5VSB*%
X59000000Y-76000000D03*
D18*
%TO.P,D3POWER1,2,A*%
%TO.N,Net-(D3POWER1-Pad2)*%
X56460000Y-76000000D03*
%TD*%
D25*
%TO.N,Net-(D1GPIO1-Pad1)*%
X63500000Y-69850000D02*
X56134000Y-69850000D01*
%TO.N,5VSB*%
X77425300Y-69850000D02*
X82600000Y-75024700D01*
X73266300Y-66303600D02*
X68962000Y-66303600D01*
X87724700Y-75832600D02*
X87724700Y-76200000D01*
X88312400Y-76200000D02*
X90587400Y-78475000D01*
X67698400Y-64269900D02*
X66928500Y-63500000D01*
X82600000Y-75024700D02*
X86916800Y-75024700D01*
X88312400Y-76200000D02*
X87724700Y-76200000D01*
X68962000Y-66303600D02*
X67698400Y-65040000D01*
X76812700Y-69850000D02*
X73266300Y-66303600D01*
X76200000Y-69850000D02*
X76812700Y-69850000D01*
X57658000Y-63500000D02*
X56388000Y-62230000D01*
X67698400Y-65040000D02*
X67698400Y-64269900D01*
X66928500Y-63500000D02*
X57658000Y-63500000D01*
X86916800Y-75024700D02*
X87724700Y-75832600D01*
X90587400Y-78475000D02*
X103795000Y-78475000D01*
X76812700Y-69850000D02*
X77425300Y-69850000D01*
X88900000Y-76200000D02*
X88312400Y-76200000D01*
%TO.N,Net-(J2ATX1-Pad16)*%
X74250000Y-81710100D02*
X71645500Y-79105600D01*
X56134000Y-74930000D02*
X56134000Y-76207800D01*
X71645500Y-79105600D02*
X59031800Y-79105600D01*
X59031800Y-79105600D02*
X56134000Y-76207800D01*
%TO.N,GND*%
X88950100Y-83475600D02*
X89767300Y-84292800D01*
X86360000Y-76200000D02*
X86360000Y-77375300D01*
X105507700Y-71475000D02*
X104648000Y-70615300D01*
X86850000Y-87210100D02*
X89767300Y-84292800D01*
X105507700Y-71475000D02*
X105620300Y-71587600D01*
X104648000Y-70615300D02*
X104648000Y-64770000D01*
X103795000Y-71475000D02*
X105507700Y-71475000D01*
X88950100Y-79965400D02*
X88950100Y-83475600D01*
X89767300Y-84292800D02*
X105387800Y-84292800D01*
X105620300Y-71587600D02*
X105620300Y-79767000D01*
X86360000Y-77375300D02*
X88950100Y-79965400D01*
X105387800Y-79999500D02*
X105387800Y-84292800D01*
X105620300Y-79767000D02*
X105387800Y-79999500D01*
X105387800Y-84292800D02*
X107795000Y-86700000D01*
%TO.N,Net-(Q1-Pad2)*%
X69850000Y-72390000D02*
X73660000Y-76200000D01*
X56134000Y-72390000D02*
X69850000Y-72390000D01*
%TD*%
%TA.AperFunction,NonConductor*%
G36*
X93135446Y-85622538D02*
G01*
X98875000Y-87150000D01*
X98890078Y-87146486D01*
X98890079Y-87146486D01*
X100823775Y-86695836D01*
X104596841Y-85816520D01*
X104667723Y-85820539D01*
X104725180Y-85862242D01*
X104750971Y-85928389D01*
X104750283Y-85956256D01*
X104303991Y-89229070D01*
X104265395Y-89512106D01*
X104236372Y-89576900D01*
X104176927Y-89615717D01*
X104136134Y-89621005D01*
X93937312Y-89263151D01*
X92965996Y-89229070D01*
X92898618Y-89206691D01*
X92854035Y-89151438D01*
X92844553Y-89109060D01*
X92686755Y-85750213D01*
X92703538Y-85681229D01*
X92754953Y-85632269D01*
X92812616Y-85618300D01*
X93103042Y-85618300D01*
X93135446Y-85622538D01*
G37*
%TD.AperFunction*%
M02*
