%TF.GenerationSoftware,KiCad,Pcbnew,(6.0.9)*%
%TF.CreationDate,2022-12-10T23:12:21+01:00*%
%TF.ProjectId,ANET_ATX,414e4554-5f41-4545-982e-6b696361645f,rev?*%
%TF.SameCoordinates,Original*%
%TF.FileFunction,Legend,Top*%
%TF.FilePolarity,Positive*%
%FSLAX46Y46*%
G04 Gerber Fmt 4.6, Leading zero omitted, Abs format (unit mm)*
G04 Created by KiCad (PCBNEW (6.0.9)) date 2022-12-10 23:12:21*
%MOMM*%
%LPD*%
G01*
G04 APERTURE LIST*
%ADD10C,0.150000*%
%ADD11C,0.254000*%
%ADD12C,0.120000*%
%ADD13C,0.100000*%
%ADD14C,0.200000*%
%ADD15C,0.127000*%
G04 APERTURE END LIST*
D10*
%TO.C,SW1HWSTART1*%
X66738571Y-67294761D02*
X66881428Y-67342380D01*
X67119523Y-67342380D01*
X67214761Y-67294761D01*
X67262380Y-67247142D01*
X67310000Y-67151904D01*
X67310000Y-67056666D01*
X67262380Y-66961428D01*
X67214761Y-66913809D01*
X67119523Y-66866190D01*
X66929047Y-66818571D01*
X66833809Y-66770952D01*
X66786190Y-66723333D01*
X66738571Y-66628095D01*
X66738571Y-66532857D01*
X66786190Y-66437619D01*
X66833809Y-66390000D01*
X66929047Y-66342380D01*
X67167142Y-66342380D01*
X67310000Y-66390000D01*
X67643333Y-66342380D02*
X67881428Y-67342380D01*
X68071904Y-66628095D01*
X68262380Y-67342380D01*
X68500476Y-66342380D01*
X69405238Y-67342380D02*
X68833809Y-67342380D01*
X69119523Y-67342380D02*
X69119523Y-66342380D01*
X69024285Y-66485238D01*
X68929047Y-66580476D01*
X68833809Y-66628095D01*
X69833809Y-67342380D02*
X69833809Y-66342380D01*
X69833809Y-66818571D02*
X70405238Y-66818571D01*
X70405238Y-67342380D02*
X70405238Y-66342380D01*
X70786190Y-66342380D02*
X71024285Y-67342380D01*
X71214761Y-66628095D01*
X71405238Y-67342380D01*
X71643333Y-66342380D01*
X71976666Y-67294761D02*
X72119523Y-67342380D01*
X72357619Y-67342380D01*
X72452857Y-67294761D01*
X72500476Y-67247142D01*
X72548095Y-67151904D01*
X72548095Y-67056666D01*
X72500476Y-66961428D01*
X72452857Y-66913809D01*
X72357619Y-66866190D01*
X72167142Y-66818571D01*
X72071904Y-66770952D01*
X72024285Y-66723333D01*
X71976666Y-66628095D01*
X71976666Y-66532857D01*
X72024285Y-66437619D01*
X72071904Y-66390000D01*
X72167142Y-66342380D01*
X72405238Y-66342380D01*
X72548095Y-66390000D01*
X72833809Y-66342380D02*
X73405238Y-66342380D01*
X73119523Y-67342380D02*
X73119523Y-66342380D01*
X73690952Y-67056666D02*
X74167142Y-67056666D01*
X73595714Y-67342380D02*
X73929047Y-66342380D01*
X74262380Y-67342380D01*
X75167142Y-67342380D02*
X74833809Y-66866190D01*
X74595714Y-67342380D02*
X74595714Y-66342380D01*
X74976666Y-66342380D01*
X75071904Y-66390000D01*
X75119523Y-66437619D01*
X75167142Y-66532857D01*
X75167142Y-66675714D01*
X75119523Y-66770952D01*
X75071904Y-66818571D01*
X74976666Y-66866190D01*
X74595714Y-66866190D01*
X75452857Y-66342380D02*
X76024285Y-66342380D01*
X75738571Y-67342380D02*
X75738571Y-66342380D01*
X76881428Y-67342380D02*
X76310000Y-67342380D01*
X76595714Y-67342380D02*
X76595714Y-66342380D01*
X76500476Y-66485238D01*
X76405238Y-66580476D01*
X76310000Y-66628095D01*
D11*
%TO.C,J4*%
X107054523Y-97498333D02*
X107961666Y-97498333D01*
X108143095Y-97558809D01*
X108264047Y-97679761D01*
X108324523Y-97861190D01*
X108324523Y-97982142D01*
X107477857Y-96349285D02*
X108324523Y-96349285D01*
X106994047Y-96651666D02*
X107901190Y-96954047D01*
X107901190Y-96167857D01*
%TO.C,J2ATX1*%
X91989047Y-99954523D02*
X91989047Y-100861666D01*
X91928571Y-101043095D01*
X91807619Y-101164047D01*
X91626190Y-101224523D01*
X91505238Y-101224523D01*
X92533333Y-100075476D02*
X92593809Y-100015000D01*
X92714761Y-99954523D01*
X93017142Y-99954523D01*
X93138095Y-100015000D01*
X93198571Y-100075476D01*
X93259047Y-100196428D01*
X93259047Y-100317380D01*
X93198571Y-100498809D01*
X92472857Y-101224523D01*
X93259047Y-101224523D01*
X93742857Y-100861666D02*
X94347619Y-100861666D01*
X93621904Y-101224523D02*
X94045238Y-99954523D01*
X94468571Y-101224523D01*
X94710476Y-99954523D02*
X95436190Y-99954523D01*
X95073333Y-101224523D02*
X95073333Y-99954523D01*
X95738571Y-99954523D02*
X96585238Y-101224523D01*
X96585238Y-99954523D02*
X95738571Y-101224523D01*
X97734285Y-101224523D02*
X97008571Y-101224523D01*
X97371428Y-101224523D02*
X97371428Y-99954523D01*
X97250476Y-100135952D01*
X97129523Y-100256904D01*
X97008571Y-100317380D01*
D10*
%TO.C,J1*%
X93782380Y-70333333D02*
X94496666Y-70333333D01*
X94639523Y-70380952D01*
X94734761Y-70476190D01*
X94782380Y-70619047D01*
X94782380Y-70714285D01*
X94782380Y-69333333D02*
X94782380Y-69904761D01*
X94782380Y-69619047D02*
X93782380Y-69619047D01*
X93925238Y-69714285D01*
X94020476Y-69809523D01*
X94068095Y-69904761D01*
%TO.C,D1GPIO1*%
X72293809Y-79492380D02*
X72293809Y-78492380D01*
X72531904Y-78492380D01*
X72674761Y-78540000D01*
X72770000Y-78635238D01*
X72817619Y-78730476D01*
X72865238Y-78920952D01*
X72865238Y-79063809D01*
X72817619Y-79254285D01*
X72770000Y-79349523D01*
X72674761Y-79444761D01*
X72531904Y-79492380D01*
X72293809Y-79492380D01*
X73817619Y-79492380D02*
X73246190Y-79492380D01*
X73531904Y-79492380D02*
X73531904Y-78492380D01*
X73436666Y-78635238D01*
X73341428Y-78730476D01*
X73246190Y-78778095D01*
X74770000Y-78540000D02*
X74674761Y-78492380D01*
X74531904Y-78492380D01*
X74389047Y-78540000D01*
X74293809Y-78635238D01*
X74246190Y-78730476D01*
X74198571Y-78920952D01*
X74198571Y-79063809D01*
X74246190Y-79254285D01*
X74293809Y-79349523D01*
X74389047Y-79444761D01*
X74531904Y-79492380D01*
X74627142Y-79492380D01*
X74770000Y-79444761D01*
X74817619Y-79397142D01*
X74817619Y-79063809D01*
X74627142Y-79063809D01*
X75246190Y-79492380D02*
X75246190Y-78492380D01*
X75627142Y-78492380D01*
X75722380Y-78540000D01*
X75770000Y-78587619D01*
X75817619Y-78682857D01*
X75817619Y-78825714D01*
X75770000Y-78920952D01*
X75722380Y-78968571D01*
X75627142Y-79016190D01*
X75246190Y-79016190D01*
X76246190Y-79492380D02*
X76246190Y-78492380D01*
X76912857Y-78492380D02*
X77103333Y-78492380D01*
X77198571Y-78540000D01*
X77293809Y-78635238D01*
X77341428Y-78825714D01*
X77341428Y-79159047D01*
X77293809Y-79349523D01*
X77198571Y-79444761D01*
X77103333Y-79492380D01*
X76912857Y-79492380D01*
X76817619Y-79444761D01*
X76722380Y-79349523D01*
X76674761Y-79159047D01*
X76674761Y-78825714D01*
X76722380Y-78635238D01*
X76817619Y-78540000D01*
X76912857Y-78492380D01*
X78293809Y-79492380D02*
X77722380Y-79492380D01*
X78008095Y-79492380D02*
X78008095Y-78492380D01*
X77912857Y-78635238D01*
X77817619Y-78730476D01*
X77722380Y-78778095D01*
%TO.C,R2*%
X77643333Y-87082380D02*
X77310000Y-86606190D01*
X77071904Y-87082380D02*
X77071904Y-86082380D01*
X77452857Y-86082380D01*
X77548095Y-86130000D01*
X77595714Y-86177619D01*
X77643333Y-86272857D01*
X77643333Y-86415714D01*
X77595714Y-86510952D01*
X77548095Y-86558571D01*
X77452857Y-86606190D01*
X77071904Y-86606190D01*
X78024285Y-86177619D02*
X78071904Y-86130000D01*
X78167142Y-86082380D01*
X78405238Y-86082380D01*
X78500476Y-86130000D01*
X78548095Y-86177619D01*
X78595714Y-86272857D01*
X78595714Y-86368095D01*
X78548095Y-86510952D01*
X77976666Y-87082380D01*
X78595714Y-87082380D01*
D11*
%TO.C,J3USB1*%
X107091904Y-74279523D02*
X107091904Y-75186666D01*
X107031428Y-75368095D01*
X106910476Y-75489047D01*
X106729047Y-75549523D01*
X106608095Y-75549523D01*
X107575714Y-74279523D02*
X108361904Y-74279523D01*
X107938571Y-74763333D01*
X108120000Y-74763333D01*
X108240952Y-74823809D01*
X108301428Y-74884285D01*
X108361904Y-75005238D01*
X108361904Y-75307619D01*
X108301428Y-75428571D01*
X108240952Y-75489047D01*
X108120000Y-75549523D01*
X107757142Y-75549523D01*
X107636190Y-75489047D01*
X107575714Y-75428571D01*
X108906190Y-74279523D02*
X108906190Y-75307619D01*
X108966666Y-75428571D01*
X109027142Y-75489047D01*
X109148095Y-75549523D01*
X109390000Y-75549523D01*
X109510952Y-75489047D01*
X109571428Y-75428571D01*
X109631904Y-75307619D01*
X109631904Y-74279523D01*
X110176190Y-75489047D02*
X110357619Y-75549523D01*
X110660000Y-75549523D01*
X110780952Y-75489047D01*
X110841428Y-75428571D01*
X110901904Y-75307619D01*
X110901904Y-75186666D01*
X110841428Y-75065714D01*
X110780952Y-75005238D01*
X110660000Y-74944761D01*
X110418095Y-74884285D01*
X110297142Y-74823809D01*
X110236666Y-74763333D01*
X110176190Y-74642380D01*
X110176190Y-74521428D01*
X110236666Y-74400476D01*
X110297142Y-74340000D01*
X110418095Y-74279523D01*
X110720476Y-74279523D01*
X110901904Y-74340000D01*
X111869523Y-74884285D02*
X112050952Y-74944761D01*
X112111428Y-75005238D01*
X112171904Y-75126190D01*
X112171904Y-75307619D01*
X112111428Y-75428571D01*
X112050952Y-75489047D01*
X111930000Y-75549523D01*
X111446190Y-75549523D01*
X111446190Y-74279523D01*
X111869523Y-74279523D01*
X111990476Y-74340000D01*
X112050952Y-74400476D01*
X112111428Y-74521428D01*
X112111428Y-74642380D01*
X112050952Y-74763333D01*
X111990476Y-74823809D01*
X111869523Y-74884285D01*
X111446190Y-74884285D01*
X113381428Y-75549523D02*
X112655714Y-75549523D01*
X113018571Y-75549523D02*
X113018571Y-74279523D01*
X112897619Y-74460952D01*
X112776666Y-74581904D01*
X112655714Y-74642380D01*
%TO.C,J6RPI1*%
X53787523Y-64074523D02*
X53787523Y-64981666D01*
X53727047Y-65163095D01*
X53606095Y-65284047D01*
X53424666Y-65344523D01*
X53303714Y-65344523D01*
X54936571Y-64074523D02*
X54694666Y-64074523D01*
X54573714Y-64135000D01*
X54513238Y-64195476D01*
X54392285Y-64376904D01*
X54331809Y-64618809D01*
X54331809Y-65102619D01*
X54392285Y-65223571D01*
X54452761Y-65284047D01*
X54573714Y-65344523D01*
X54815619Y-65344523D01*
X54936571Y-65284047D01*
X54997047Y-65223571D01*
X55057523Y-65102619D01*
X55057523Y-64800238D01*
X54997047Y-64679285D01*
X54936571Y-64618809D01*
X54815619Y-64558333D01*
X54573714Y-64558333D01*
X54452761Y-64618809D01*
X54392285Y-64679285D01*
X54331809Y-64800238D01*
X56327523Y-65344523D02*
X55904190Y-64739761D01*
X55601809Y-65344523D02*
X55601809Y-64074523D01*
X56085619Y-64074523D01*
X56206571Y-64135000D01*
X56267047Y-64195476D01*
X56327523Y-64316428D01*
X56327523Y-64497857D01*
X56267047Y-64618809D01*
X56206571Y-64679285D01*
X56085619Y-64739761D01*
X55601809Y-64739761D01*
X56871809Y-65344523D02*
X56871809Y-64074523D01*
X57355619Y-64074523D01*
X57476571Y-64135000D01*
X57537047Y-64195476D01*
X57597523Y-64316428D01*
X57597523Y-64497857D01*
X57537047Y-64618809D01*
X57476571Y-64679285D01*
X57355619Y-64739761D01*
X56871809Y-64739761D01*
X58141809Y-65344523D02*
X58141809Y-64074523D01*
X59411809Y-65344523D02*
X58686095Y-65344523D01*
X59048952Y-65344523D02*
X59048952Y-64074523D01*
X58928000Y-64255952D01*
X58807047Y-64376904D01*
X58686095Y-64437380D01*
D10*
%TO.C,Q1*%
X77107619Y-76365238D02*
X77060000Y-76460476D01*
X76964761Y-76555714D01*
X76821904Y-76698571D01*
X76774285Y-76793809D01*
X76774285Y-76889047D01*
X77012380Y-76841428D02*
X76964761Y-76936666D01*
X76869523Y-77031904D01*
X76679047Y-77079523D01*
X76345714Y-77079523D01*
X76155238Y-77031904D01*
X76060000Y-76936666D01*
X76012380Y-76841428D01*
X76012380Y-76650952D01*
X76060000Y-76555714D01*
X76155238Y-76460476D01*
X76345714Y-76412857D01*
X76679047Y-76412857D01*
X76869523Y-76460476D01*
X76964761Y-76555714D01*
X77012380Y-76650952D01*
X77012380Y-76841428D01*
X77012380Y-75460476D02*
X77012380Y-76031904D01*
X77012380Y-75746190D02*
X76012380Y-75746190D01*
X76155238Y-75841428D01*
X76250476Y-75936666D01*
X76298095Y-76031904D01*
%TO.C,R1*%
X86643333Y-77082380D02*
X86310000Y-76606190D01*
X86071904Y-77082380D02*
X86071904Y-76082380D01*
X86452857Y-76082380D01*
X86548095Y-76130000D01*
X86595714Y-76177619D01*
X86643333Y-76272857D01*
X86643333Y-76415714D01*
X86595714Y-76510952D01*
X86548095Y-76558571D01*
X86452857Y-76606190D01*
X86071904Y-76606190D01*
X87595714Y-77082380D02*
X87024285Y-77082380D01*
X87310000Y-77082380D02*
X87310000Y-76082380D01*
X87214761Y-76225238D01*
X87119523Y-76320476D01*
X87024285Y-76368095D01*
%TO.C,D2SWSTART1*%
X81841428Y-87492380D02*
X81841428Y-86492380D01*
X82079523Y-86492380D01*
X82222380Y-86540000D01*
X82317619Y-86635238D01*
X82365238Y-86730476D01*
X82412857Y-86920952D01*
X82412857Y-87063809D01*
X82365238Y-87254285D01*
X82317619Y-87349523D01*
X82222380Y-87444761D01*
X82079523Y-87492380D01*
X81841428Y-87492380D01*
X82793809Y-86587619D02*
X82841428Y-86540000D01*
X82936666Y-86492380D01*
X83174761Y-86492380D01*
X83270000Y-86540000D01*
X83317619Y-86587619D01*
X83365238Y-86682857D01*
X83365238Y-86778095D01*
X83317619Y-86920952D01*
X82746190Y-87492380D01*
X83365238Y-87492380D01*
X83746190Y-87444761D02*
X83889047Y-87492380D01*
X84127142Y-87492380D01*
X84222380Y-87444761D01*
X84270000Y-87397142D01*
X84317619Y-87301904D01*
X84317619Y-87206666D01*
X84270000Y-87111428D01*
X84222380Y-87063809D01*
X84127142Y-87016190D01*
X83936666Y-86968571D01*
X83841428Y-86920952D01*
X83793809Y-86873333D01*
X83746190Y-86778095D01*
X83746190Y-86682857D01*
X83793809Y-86587619D01*
X83841428Y-86540000D01*
X83936666Y-86492380D01*
X84174761Y-86492380D01*
X84317619Y-86540000D01*
X84650952Y-86492380D02*
X84889047Y-87492380D01*
X85079523Y-86778095D01*
X85270000Y-87492380D01*
X85508095Y-86492380D01*
X85841428Y-87444761D02*
X85984285Y-87492380D01*
X86222380Y-87492380D01*
X86317619Y-87444761D01*
X86365238Y-87397142D01*
X86412857Y-87301904D01*
X86412857Y-87206666D01*
X86365238Y-87111428D01*
X86317619Y-87063809D01*
X86222380Y-87016190D01*
X86031904Y-86968571D01*
X85936666Y-86920952D01*
X85889047Y-86873333D01*
X85841428Y-86778095D01*
X85841428Y-86682857D01*
X85889047Y-86587619D01*
X85936666Y-86540000D01*
X86031904Y-86492380D01*
X86270000Y-86492380D01*
X86412857Y-86540000D01*
X86698571Y-86492380D02*
X87270000Y-86492380D01*
X86984285Y-87492380D02*
X86984285Y-86492380D01*
X87555714Y-87206666D02*
X88031904Y-87206666D01*
X87460476Y-87492380D02*
X87793809Y-86492380D01*
X88127142Y-87492380D01*
X89031904Y-87492380D02*
X88698571Y-87016190D01*
X88460476Y-87492380D02*
X88460476Y-86492380D01*
X88841428Y-86492380D01*
X88936666Y-86540000D01*
X88984285Y-86587619D01*
X89031904Y-86682857D01*
X89031904Y-86825714D01*
X88984285Y-86920952D01*
X88936666Y-86968571D01*
X88841428Y-87016190D01*
X88460476Y-87016190D01*
X89317619Y-86492380D02*
X89889047Y-86492380D01*
X89603333Y-87492380D02*
X89603333Y-86492380D01*
X90746190Y-87492380D02*
X90174761Y-87492380D01*
X90460476Y-87492380D02*
X90460476Y-86492380D01*
X90365238Y-86635238D01*
X90270000Y-86730476D01*
X90174761Y-86778095D01*
D11*
%TO.C,J5*%
X57454523Y-86523333D02*
X58361666Y-86523333D01*
X58543095Y-86583809D01*
X58664047Y-86704761D01*
X58724523Y-86886190D01*
X58724523Y-87007142D01*
X57454523Y-85313809D02*
X57454523Y-85918571D01*
X58059285Y-85979047D01*
X57998809Y-85918571D01*
X57938333Y-85797619D01*
X57938333Y-85495238D01*
X57998809Y-85374285D01*
X58059285Y-85313809D01*
X58180238Y-85253333D01*
X58482619Y-85253333D01*
X58603571Y-85313809D01*
X58664047Y-85374285D01*
X58724523Y-85495238D01*
X58724523Y-85797619D01*
X58664047Y-85918571D01*
X58603571Y-85979047D01*
D10*
%TO.C,D3POWER1*%
X53968095Y-79412380D02*
X53968095Y-78412380D01*
X54206190Y-78412380D01*
X54349047Y-78460000D01*
X54444285Y-78555238D01*
X54491904Y-78650476D01*
X54539523Y-78840952D01*
X54539523Y-78983809D01*
X54491904Y-79174285D01*
X54444285Y-79269523D01*
X54349047Y-79364761D01*
X54206190Y-79412380D01*
X53968095Y-79412380D01*
X54872857Y-78412380D02*
X55491904Y-78412380D01*
X55158571Y-78793333D01*
X55301428Y-78793333D01*
X55396666Y-78840952D01*
X55444285Y-78888571D01*
X55491904Y-78983809D01*
X55491904Y-79221904D01*
X55444285Y-79317142D01*
X55396666Y-79364761D01*
X55301428Y-79412380D01*
X55015714Y-79412380D01*
X54920476Y-79364761D01*
X54872857Y-79317142D01*
X55920476Y-79412380D02*
X55920476Y-78412380D01*
X56301428Y-78412380D01*
X56396666Y-78460000D01*
X56444285Y-78507619D01*
X56491904Y-78602857D01*
X56491904Y-78745714D01*
X56444285Y-78840952D01*
X56396666Y-78888571D01*
X56301428Y-78936190D01*
X55920476Y-78936190D01*
X57110952Y-78412380D02*
X57301428Y-78412380D01*
X57396666Y-78460000D01*
X57491904Y-78555238D01*
X57539523Y-78745714D01*
X57539523Y-79079047D01*
X57491904Y-79269523D01*
X57396666Y-79364761D01*
X57301428Y-79412380D01*
X57110952Y-79412380D01*
X57015714Y-79364761D01*
X56920476Y-79269523D01*
X56872857Y-79079047D01*
X56872857Y-78745714D01*
X56920476Y-78555238D01*
X57015714Y-78460000D01*
X57110952Y-78412380D01*
X57872857Y-78412380D02*
X58110952Y-79412380D01*
X58301428Y-78698095D01*
X58491904Y-79412380D01*
X58730000Y-78412380D01*
X59110952Y-78888571D02*
X59444285Y-78888571D01*
X59587142Y-79412380D02*
X59110952Y-79412380D01*
X59110952Y-78412380D01*
X59587142Y-78412380D01*
X60587142Y-79412380D02*
X60253809Y-78936190D01*
X60015714Y-79412380D02*
X60015714Y-78412380D01*
X60396666Y-78412380D01*
X60491904Y-78460000D01*
X60539523Y-78507619D01*
X60587142Y-78602857D01*
X60587142Y-78745714D01*
X60539523Y-78840952D01*
X60491904Y-78888571D01*
X60396666Y-78936190D01*
X60015714Y-78936190D01*
X61539523Y-79412380D02*
X60968095Y-79412380D01*
X61253809Y-79412380D02*
X61253809Y-78412380D01*
X61158571Y-78555238D01*
X61063333Y-78650476D01*
X60968095Y-78698095D01*
D12*
%TO.C,SW1HWSTART1*%
X70000000Y-69965000D02*
X71206667Y-69965000D01*
X70000000Y-70205000D02*
X71206667Y-70205000D01*
X73620000Y-70635000D02*
X73620000Y-69365000D01*
X71206667Y-69365000D02*
X71206667Y-70635000D01*
X75221000Y-70990000D02*
X75221000Y-72110000D01*
X70000000Y-70445000D02*
X71206667Y-70445000D01*
X75221000Y-67890000D02*
X75221000Y-69010000D01*
X70000000Y-69365000D02*
X70000000Y-70635000D01*
X70000000Y-69845000D02*
X71206667Y-69845000D01*
X70000000Y-70565000D02*
X71206667Y-70565000D01*
X73620000Y-69365000D02*
X70000000Y-69365000D01*
X70000000Y-70635000D02*
X73620000Y-70635000D01*
X68400000Y-72110000D02*
X75221000Y-72110000D01*
X68160000Y-67650000D02*
X69543000Y-67650000D01*
X68160000Y-67650000D02*
X68160000Y-68960000D01*
X68400000Y-67890000D02*
X68400000Y-68960000D01*
X68400000Y-67890000D02*
X75221000Y-67890000D01*
X70000000Y-70085000D02*
X71206667Y-70085000D01*
X70000000Y-69605000D02*
X71206667Y-69605000D01*
X68400000Y-71040000D02*
X68400000Y-72110000D01*
X70000000Y-69725000D02*
X71206667Y-69725000D01*
X70000000Y-70325000D02*
X71206667Y-70325000D01*
X70000000Y-69485000D02*
X71206667Y-69485000D01*
D13*
%TO.C,J4*%
X104105000Y-101250000D02*
X104105000Y-94250000D01*
X104105000Y-94250000D02*
X111395000Y-94250000D01*
X111395000Y-101250000D02*
X104105000Y-101250000D01*
D14*
X108445000Y-93000000D02*
X108445000Y-93000000D01*
D13*
X111395000Y-94250000D02*
X111395000Y-101250000D01*
D14*
X108245000Y-93000000D02*
X108245000Y-93000000D01*
X108245000Y-93000000D02*
G75*
G03*
X108445000Y-93000000I100000J0D01*
G01*
X108445000Y-93000000D02*
G75*
G03*
X108245000Y-93000000I-100000J0D01*
G01*
D15*
%TO.C,J2ATX1*%
X102150000Y-100150000D02*
X102150000Y-101150000D01*
X97350000Y-114618000D02*
X54150000Y-114618000D01*
X54150000Y-114618000D02*
X54150000Y-94682000D01*
X102150000Y-101150000D02*
X101150000Y-100650000D01*
X101150000Y-100650000D02*
X102150000Y-100150000D01*
X97350000Y-94682000D02*
X97350000Y-114618000D01*
D12*
%TO.C,J1*%
X93330000Y-68670000D02*
X93330000Y-70000000D01*
X90730000Y-68670000D02*
X80510000Y-68670000D01*
X90730000Y-68670000D02*
X90730000Y-71330000D01*
X90730000Y-71330000D02*
X80510000Y-71330000D01*
X92000000Y-68670000D02*
X93330000Y-68670000D01*
X80510000Y-68670000D02*
X80510000Y-71330000D01*
%TO.C,D1GPIO1*%
X73710000Y-83080000D02*
X73710000Y-83236000D01*
X73710000Y-80764000D02*
X73710000Y-80920000D01*
X76942335Y-80921392D02*
G75*
G03*
X73710000Y-80764484I-1672335J-1078608D01*
G01*
X73710000Y-83235516D02*
G75*
G03*
X76942335Y-83078608I1560000J1235516D01*
G01*
X74229039Y-83080000D02*
G75*
G03*
X76311130Y-83079837I1040961J1080000D01*
G01*
X76311130Y-80920163D02*
G75*
G03*
X74229039Y-80920000I-1041130J-1079837D01*
G01*
%TO.C,R2*%
X81080000Y-90370000D02*
X81080000Y-90040000D01*
X74540000Y-87960000D02*
X74540000Y-87630000D01*
X81080000Y-87630000D02*
X81080000Y-87960000D01*
X74540000Y-90040000D02*
X74540000Y-90370000D01*
X74540000Y-87630000D02*
X81080000Y-87630000D01*
X74540000Y-90370000D02*
X81080000Y-90370000D01*
D13*
%TO.C,J3USB1*%
X117755000Y-68405000D02*
X109755000Y-68405000D01*
X103795000Y-81545000D02*
X104755000Y-81545000D01*
X103795000Y-68405000D02*
X103755000Y-69975000D01*
X104755000Y-68405000D02*
X103795000Y-68405000D01*
X103795000Y-79975000D02*
X103795000Y-81545000D01*
X117755000Y-81545000D02*
X117755000Y-68405000D01*
X109755000Y-81545000D02*
X117755000Y-81545000D01*
D14*
%TO.C,J6RPI1*%
X56388000Y-66000000D02*
X106468000Y-66000000D01*
X106468000Y-66000000D02*
X106468000Y-60850000D01*
X54868000Y-60850000D02*
X54868000Y-64770000D01*
X106468000Y-60850000D02*
X54868000Y-60850000D01*
D12*
%TO.C,Q1*%
X71150000Y-74470000D02*
X71150000Y-78070000D01*
X75600001Y-76270000D02*
G75*
G03*
X71161522Y-74431522I-2600001J0D01*
G01*
X71161522Y-78108478D02*
G75*
G03*
X75600000Y-76270000I1838478J1838478D01*
G01*
%TO.C,R1*%
X83540000Y-80040000D02*
X83540000Y-80370000D01*
X83540000Y-80370000D02*
X90080000Y-80370000D01*
X90080000Y-80370000D02*
X90080000Y-80040000D01*
X83540000Y-77630000D02*
X90080000Y-77630000D01*
X90080000Y-77630000D02*
X90080000Y-77960000D01*
X83540000Y-77960000D02*
X83540000Y-77630000D01*
%TO.C,D2SWSTART1*%
X84710000Y-91080000D02*
X84710000Y-91236000D01*
X84710000Y-88764000D02*
X84710000Y-88920000D01*
X87942335Y-88921392D02*
G75*
G03*
X84710000Y-88764484I-1672335J-1078608D01*
G01*
X87311130Y-88920163D02*
G75*
G03*
X85229039Y-88920000I-1041130J-1079837D01*
G01*
X85229039Y-91080000D02*
G75*
G03*
X87311130Y-91079837I1040961J1080000D01*
G01*
X84710000Y-91235516D02*
G75*
G03*
X87942335Y-91078608I1560000J1235516D01*
G01*
D14*
%TO.C,J5*%
X58645000Y-82025000D02*
X58645000Y-82025000D01*
X58845000Y-82025000D02*
X58845000Y-82025000D01*
D13*
X61795000Y-83275000D02*
X61795000Y-90275000D01*
X54505000Y-90275000D02*
X54505000Y-83275000D01*
X54505000Y-83275000D02*
X61795000Y-83275000D01*
X61795000Y-90275000D02*
X54505000Y-90275000D01*
D14*
X58645000Y-82025000D02*
G75*
G03*
X58845000Y-82025000I100000J0D01*
G01*
X58845000Y-82025000D02*
G75*
G03*
X58645000Y-82025000I-100000J0D01*
G01*
D12*
%TO.C,D3POWER1*%
X59290000Y-74920000D02*
X59290000Y-74764000D01*
X59290000Y-77236000D02*
X59290000Y-77080000D01*
X58770961Y-74920000D02*
G75*
G03*
X56688870Y-74920163I-1040961J-1080000D01*
G01*
X56688870Y-77079837D02*
G75*
G03*
X58770961Y-77080000I1041130J1079837D01*
G01*
X56057665Y-77078608D02*
G75*
G03*
X59290000Y-77235516I1672335J1078608D01*
G01*
X59290000Y-74764484D02*
G75*
G03*
X56057665Y-74921392I-1560000J-1235516D01*
G01*
%TD*%
M02*
