%TF.GenerationSoftware,KiCad,Pcbnew,(6.0.9)*%
%TF.CreationDate,2022-12-10T23:12:21+01:00*%
%TF.ProjectId,ANET_ATX,414e4554-5f41-4545-982e-6b696361645f,rev?*%
%TF.SameCoordinates,Original*%
%TF.FileFunction,Soldermask,Top*%
%TF.FilePolarity,Negative*%
%FSLAX46Y46*%
G04 Gerber Fmt 4.6, Leading zero omitted, Abs format (unit mm)*
G04 Created by KiCad (PCBNEW (6.0.9)) date 2022-12-10 23:12:21*
%MOMM*%
%LPD*%
G01*
G04 APERTURE LIST*
%ADD10R,1.600000X1.600000*%
%ADD11O,1.600000X1.600000*%
%ADD12C,1.650000*%
%ADD13C,0.001000*%
%ADD14R,2.150000X2.150000*%
%ADD15C,2.150000*%
%ADD16R,1.700000X1.700000*%
%ADD17O,1.700000X1.700000*%
%ADD18R,1.800000X1.800000*%
%ADD19C,1.800000*%
%ADD20C,1.600000*%
%ADD21R,3.000000X1.250000*%
%ADD22C,3.450000*%
%ADD23R,1.650000X1.650000*%
%ADD24R,1.500000X1.050000*%
%ADD25O,1.500000X1.050000*%
G04 APERTURE END LIST*
D10*
%TO.C,SW1HWSTART1*%
X68000000Y-70000000D03*
D11*
X75620000Y-70000000D03*
%TD*%
D12*
%TO.C,J4*%
X107945000Y-96000000D03*
X107945000Y-99500000D03*
%TD*%
D13*
%TO.C,J2ATX1*%
X56850000Y-107950000D03*
X94650000Y-107950000D03*
D14*
X94650000Y-100650000D03*
D15*
X90450000Y-100650000D03*
X86250000Y-100650000D03*
X82050000Y-100650000D03*
X77850000Y-100650000D03*
X73650000Y-100650000D03*
X69450000Y-100650000D03*
X65250000Y-100650000D03*
X61050000Y-100650000D03*
X56850000Y-100650000D03*
X94650000Y-95150000D03*
X90450000Y-95150000D03*
X86250000Y-95150000D03*
X82050000Y-95150000D03*
X77850000Y-95150000D03*
X73650000Y-95150000D03*
X69450000Y-95150000D03*
X65250000Y-95150000D03*
X61050000Y-95150000D03*
X56850000Y-95150000D03*
%TD*%
D16*
%TO.C,J1*%
X92000000Y-70000000D03*
D17*
X89460000Y-70000000D03*
X86920000Y-70000000D03*
X84380000Y-70000000D03*
X81840000Y-70000000D03*
%TD*%
D18*
%TO.C,D1GPIO1*%
X74000000Y-82000000D03*
D19*
X76540000Y-82000000D03*
%TD*%
D20*
%TO.C,R2*%
X74000000Y-89000000D03*
D11*
X81620000Y-89000000D03*
%TD*%
D21*
%TO.C,J3USB1*%
X103795000Y-78475000D03*
X103795000Y-75975000D03*
X103795000Y-73975000D03*
X103795000Y-71475000D03*
D22*
X107475000Y-81545000D03*
X107475000Y-68405000D03*
%TD*%
D23*
%TO.C,J6RPI1*%
X56388000Y-64770000D03*
D12*
X56388000Y-62230000D03*
X58928000Y-64770000D03*
X58928000Y-62230000D03*
X61468000Y-64770000D03*
X61468000Y-62230000D03*
X64008000Y-64770000D03*
X64008000Y-62230000D03*
X66548000Y-64770000D03*
X66548000Y-62230000D03*
X69088000Y-64770000D03*
X69088000Y-62230000D03*
X71628000Y-64770000D03*
X71628000Y-62230000D03*
X74168000Y-64770000D03*
X74168000Y-62230000D03*
X76708000Y-64770000D03*
X76708000Y-62230000D03*
X79248000Y-64770000D03*
X79248000Y-62230000D03*
X81788000Y-64770000D03*
X81788000Y-62230000D03*
X84328000Y-64770000D03*
X84328000Y-62230000D03*
X86868000Y-64770000D03*
X86868000Y-62230000D03*
X89408000Y-64770000D03*
X89408000Y-62230000D03*
X91948000Y-64770000D03*
X91948000Y-62230000D03*
X94488000Y-64770000D03*
X94488000Y-62230000D03*
X97028000Y-64770000D03*
X97028000Y-62230000D03*
X99568000Y-64770000D03*
X99568000Y-62230000D03*
X102108000Y-64770000D03*
X102108000Y-62230000D03*
X104648000Y-64770000D03*
X104648000Y-62230000D03*
%TD*%
D24*
%TO.C,Q1*%
X73000000Y-75000000D03*
D25*
X73000000Y-76270000D03*
X73000000Y-77540000D03*
%TD*%
D20*
%TO.C,R1*%
X83000000Y-79000000D03*
D11*
X90620000Y-79000000D03*
%TD*%
D18*
%TO.C,D2SWSTART1*%
X85000000Y-90000000D03*
D19*
X87540000Y-90000000D03*
%TD*%
D12*
%TO.C,J5*%
X58345000Y-85025000D03*
X58345000Y-88525000D03*
%TD*%
D18*
%TO.C,D3POWER1*%
X59000000Y-76000000D03*
D19*
X56460000Y-76000000D03*
%TD*%
M02*
