%TF.GenerationSoftware,KiCad,Pcbnew,(6.0.9)*%
%TF.CreationDate,2022-12-14T14:47:33+01:00*%
%TF.ProjectId,ANET_ATX,414e4554-5f41-4545-982e-6b696361645f,rev?*%
%TF.SameCoordinates,Original*%
%TF.FileFunction,Copper,L1,Top*%
%TF.FilePolarity,Positive*%
%FSLAX46Y46*%
G04 Gerber Fmt 4.6, Leading zero omitted, Abs format (unit mm)*
G04 Created by KiCad (PCBNEW (6.0.9)) date 2022-12-14 14:47:33*
%MOMM*%
%LPD*%
G01*
G04 APERTURE LIST*
%ADD10C,0.100000*%
%ADD11C,0.150000*%
%ADD12C,0.300000*%
%ADD13C,0.400000*%
%TA.AperFunction,Profile*%
%ADD14C,0.100000*%
%TD*%
%TA.AperFunction,ComponentPad*%
%ADD15R,1.600000X1.600000*%
%TD*%
%TA.AperFunction,ComponentPad*%
%ADD16O,1.600000X1.600000*%
%TD*%
%TA.AperFunction,ComponentPad*%
%ADD17C,1.650000*%
%TD*%
%TA.AperFunction,ComponentPad*%
%ADD18R,2.150000X2.150000*%
%TD*%
%TA.AperFunction,ComponentPad*%
%ADD19C,2.150000*%
%TD*%
%TA.AperFunction,ComponentPad*%
%ADD20R,1.700000X1.700000*%
%TD*%
%TA.AperFunction,ComponentPad*%
%ADD21O,1.700000X1.700000*%
%TD*%
%TA.AperFunction,ConnectorPad*%
%ADD22C,5.400000*%
%TD*%
%TA.AperFunction,ComponentPad*%
%ADD23C,3.100000*%
%TD*%
%TA.AperFunction,ComponentPad*%
%ADD24R,1.800000X1.800000*%
%TD*%
%TA.AperFunction,ComponentPad*%
%ADD25C,1.800000*%
%TD*%
%TA.AperFunction,ComponentPad*%
%ADD26C,1.600000*%
%TD*%
%TA.AperFunction,SMDPad,CuDef*%
%ADD27R,3.000000X1.250000*%
%TD*%
%TA.AperFunction,ComponentPad*%
%ADD28C,3.450000*%
%TD*%
%TA.AperFunction,ComponentPad*%
%ADD29R,1.650000X1.650000*%
%TD*%
%TA.AperFunction,ComponentPad*%
%ADD30R,1.500000X1.050000*%
%TD*%
%TA.AperFunction,ComponentPad*%
%ADD31O,1.500000X1.050000*%
%TD*%
%TA.AperFunction,ViaPad*%
%ADD32C,0.800000*%
%TD*%
%TA.AperFunction,Conductor*%
%ADD33C,0.440000*%
%TD*%
%TA.AperFunction,Conductor*%
%ADD34C,2.400000*%
%TD*%
%TA.AperFunction,Conductor*%
%ADD35C,1.699800*%
%TD*%
%TA.AperFunction,Conductor*%
%ADD36C,1.249800*%
%TD*%
G04 APERTURE END LIST*
D10*
D11*
X177002200Y-166007200D02*
X177002200Y-198007200D01*
X285002200Y-198007200D01*
X285002200Y-166007200D01*
X177002200Y-166007200D01*
D10*
D11*
X10000000Y-10000000D02*
X10000000Y-200007200D01*
X287002200Y-200007200D01*
X287002200Y-10000000D01*
X10000000Y-10000000D01*
D10*
D11*
X12000000Y-12000000D02*
X12000000Y-198007200D01*
X285002200Y-198007200D01*
X285002200Y-12000000D01*
X12000000Y-12000000D01*
D10*
D11*
X60000000Y-12000000D02*
X60000000Y-10000000D01*
D10*
D11*
X110000000Y-12000000D02*
X110000000Y-10000000D01*
D10*
D11*
X160000000Y-12000000D02*
X160000000Y-10000000D01*
D10*
D11*
X210000000Y-12000000D02*
X210000000Y-10000000D01*
D10*
D11*
X260000000Y-12000000D02*
X260000000Y-10000000D01*
D10*
D11*
X36065476Y-11588095D02*
X35322619Y-11588095D01*
X35694047Y-11588095D02*
X35694047Y-10288095D01*
X35570238Y-10473809D01*
X35446428Y-10597619D01*
X35322619Y-10659523D01*
D10*
D11*
X85322619Y-10411904D02*
X85384523Y-10350000D01*
X85508333Y-10288095D01*
X85817857Y-10288095D01*
X85941666Y-10350000D01*
X86003571Y-10411904D01*
X86065476Y-10535714D01*
X86065476Y-10659523D01*
X86003571Y-10845238D01*
X85260714Y-11588095D01*
X86065476Y-11588095D01*
D10*
D11*
X135260714Y-10288095D02*
X136065476Y-10288095D01*
X135632142Y-10783333D01*
X135817857Y-10783333D01*
X135941666Y-10845238D01*
X136003571Y-10907142D01*
X136065476Y-11030952D01*
X136065476Y-11340476D01*
X136003571Y-11464285D01*
X135941666Y-11526190D01*
X135817857Y-11588095D01*
X135446428Y-11588095D01*
X135322619Y-11526190D01*
X135260714Y-11464285D01*
D10*
D11*
X185941666Y-10721428D02*
X185941666Y-11588095D01*
X185632142Y-10226190D02*
X185322619Y-11154761D01*
X186127380Y-11154761D01*
D10*
D11*
X236003571Y-10288095D02*
X235384523Y-10288095D01*
X235322619Y-10907142D01*
X235384523Y-10845238D01*
X235508333Y-10783333D01*
X235817857Y-10783333D01*
X235941666Y-10845238D01*
X236003571Y-10907142D01*
X236065476Y-11030952D01*
X236065476Y-11340476D01*
X236003571Y-11464285D01*
X235941666Y-11526190D01*
X235817857Y-11588095D01*
X235508333Y-11588095D01*
X235384523Y-11526190D01*
X235322619Y-11464285D01*
D10*
D11*
X285941666Y-10288095D02*
X285694047Y-10288095D01*
X285570238Y-10350000D01*
X285508333Y-10411904D01*
X285384523Y-10597619D01*
X285322619Y-10845238D01*
X285322619Y-11340476D01*
X285384523Y-11464285D01*
X285446428Y-11526190D01*
X285570238Y-11588095D01*
X285817857Y-11588095D01*
X285941666Y-11526190D01*
X286003571Y-11464285D01*
X286065476Y-11340476D01*
X286065476Y-11030952D01*
X286003571Y-10907142D01*
X285941666Y-10845238D01*
X285817857Y-10783333D01*
X285570238Y-10783333D01*
X285446428Y-10845238D01*
X285384523Y-10907142D01*
X285322619Y-11030952D01*
D10*
D11*
X60000000Y-198007200D02*
X60000000Y-200007200D01*
D10*
D11*
X110000000Y-198007200D02*
X110000000Y-200007200D01*
D10*
D11*
X160000000Y-198007200D02*
X160000000Y-200007200D01*
D10*
D11*
X210000000Y-198007200D02*
X210000000Y-200007200D01*
D10*
D11*
X260000000Y-198007200D02*
X260000000Y-200007200D01*
D10*
D11*
X36065476Y-199595295D02*
X35322619Y-199595295D01*
X35694047Y-199595295D02*
X35694047Y-198295295D01*
X35570238Y-198481009D01*
X35446428Y-198604819D01*
X35322619Y-198666723D01*
D10*
D11*
X85322619Y-198419104D02*
X85384523Y-198357200D01*
X85508333Y-198295295D01*
X85817857Y-198295295D01*
X85941666Y-198357200D01*
X86003571Y-198419104D01*
X86065476Y-198542914D01*
X86065476Y-198666723D01*
X86003571Y-198852438D01*
X85260714Y-199595295D01*
X86065476Y-199595295D01*
D10*
D11*
X135260714Y-198295295D02*
X136065476Y-198295295D01*
X135632142Y-198790533D01*
X135817857Y-198790533D01*
X135941666Y-198852438D01*
X136003571Y-198914342D01*
X136065476Y-199038152D01*
X136065476Y-199347676D01*
X136003571Y-199471485D01*
X135941666Y-199533390D01*
X135817857Y-199595295D01*
X135446428Y-199595295D01*
X135322619Y-199533390D01*
X135260714Y-199471485D01*
D10*
D11*
X185941666Y-198728628D02*
X185941666Y-199595295D01*
X185632142Y-198233390D02*
X185322619Y-199161961D01*
X186127380Y-199161961D01*
D10*
D11*
X236003571Y-198295295D02*
X235384523Y-198295295D01*
X235322619Y-198914342D01*
X235384523Y-198852438D01*
X235508333Y-198790533D01*
X235817857Y-198790533D01*
X235941666Y-198852438D01*
X236003571Y-198914342D01*
X236065476Y-199038152D01*
X236065476Y-199347676D01*
X236003571Y-199471485D01*
X235941666Y-199533390D01*
X235817857Y-199595295D01*
X235508333Y-199595295D01*
X235384523Y-199533390D01*
X235322619Y-199471485D01*
D10*
D11*
X285941666Y-198295295D02*
X285694047Y-198295295D01*
X285570238Y-198357200D01*
X285508333Y-198419104D01*
X285384523Y-198604819D01*
X285322619Y-198852438D01*
X285322619Y-199347676D01*
X285384523Y-199471485D01*
X285446428Y-199533390D01*
X285570238Y-199595295D01*
X285817857Y-199595295D01*
X285941666Y-199533390D01*
X286003571Y-199471485D01*
X286065476Y-199347676D01*
X286065476Y-199038152D01*
X286003571Y-198914342D01*
X285941666Y-198852438D01*
X285817857Y-198790533D01*
X285570238Y-198790533D01*
X285446428Y-198852438D01*
X285384523Y-198914342D01*
X285322619Y-199038152D01*
D10*
D11*
X10000000Y-60000000D02*
X12000000Y-60000000D01*
D10*
D11*
X10000000Y-110000000D02*
X12000000Y-110000000D01*
D10*
D11*
X10000000Y-160000000D02*
X12000000Y-160000000D01*
D10*
D11*
X10690476Y-35216666D02*
X11309523Y-35216666D01*
X10566666Y-35588095D02*
X11000000Y-34288095D01*
X11433333Y-35588095D01*
D10*
D11*
X11092857Y-84907142D02*
X11278571Y-84969047D01*
X11340476Y-85030952D01*
X11402380Y-85154761D01*
X11402380Y-85340476D01*
X11340476Y-85464285D01*
X11278571Y-85526190D01*
X11154761Y-85588095D01*
X10659523Y-85588095D01*
X10659523Y-84288095D01*
X11092857Y-84288095D01*
X11216666Y-84350000D01*
X11278571Y-84411904D01*
X11340476Y-84535714D01*
X11340476Y-84659523D01*
X11278571Y-84783333D01*
X11216666Y-84845238D01*
X11092857Y-84907142D01*
X10659523Y-84907142D01*
D10*
D11*
X11402380Y-135464285D02*
X11340476Y-135526190D01*
X11154761Y-135588095D01*
X11030952Y-135588095D01*
X10845238Y-135526190D01*
X10721428Y-135402380D01*
X10659523Y-135278571D01*
X10597619Y-135030952D01*
X10597619Y-134845238D01*
X10659523Y-134597619D01*
X10721428Y-134473809D01*
X10845238Y-134350000D01*
X11030952Y-134288095D01*
X11154761Y-134288095D01*
X11340476Y-134350000D01*
X11402380Y-134411904D01*
D10*
D11*
X10659523Y-185588095D02*
X10659523Y-184288095D01*
X10969047Y-184288095D01*
X11154761Y-184350000D01*
X11278571Y-184473809D01*
X11340476Y-184597619D01*
X11402380Y-184845238D01*
X11402380Y-185030952D01*
X11340476Y-185278571D01*
X11278571Y-185402380D01*
X11154761Y-185526190D01*
X10969047Y-185588095D01*
X10659523Y-185588095D01*
D10*
D11*
X287002200Y-60000000D02*
X285002200Y-60000000D01*
D10*
D11*
X287002200Y-110000000D02*
X285002200Y-110000000D01*
D10*
D11*
X287002200Y-160000000D02*
X285002200Y-160000000D01*
D10*
D11*
X285692676Y-35216666D02*
X286311723Y-35216666D01*
X285568866Y-35588095D02*
X286002200Y-34288095D01*
X286435533Y-35588095D01*
D10*
D11*
X286095057Y-84907142D02*
X286280771Y-84969047D01*
X286342676Y-85030952D01*
X286404580Y-85154761D01*
X286404580Y-85340476D01*
X286342676Y-85464285D01*
X286280771Y-85526190D01*
X286156961Y-85588095D01*
X285661723Y-85588095D01*
X285661723Y-84288095D01*
X286095057Y-84288095D01*
X286218866Y-84350000D01*
X286280771Y-84411904D01*
X286342676Y-84535714D01*
X286342676Y-84659523D01*
X286280771Y-84783333D01*
X286218866Y-84845238D01*
X286095057Y-84907142D01*
X285661723Y-84907142D01*
D10*
D11*
X286404580Y-135464285D02*
X286342676Y-135526190D01*
X286156961Y-135588095D01*
X286033152Y-135588095D01*
X285847438Y-135526190D01*
X285723628Y-135402380D01*
X285661723Y-135278571D01*
X285599819Y-135030952D01*
X285599819Y-134845238D01*
X285661723Y-134597619D01*
X285723628Y-134473809D01*
X285847438Y-134350000D01*
X286033152Y-134288095D01*
X286156961Y-134288095D01*
X286342676Y-134350000D01*
X286404580Y-134411904D01*
D10*
D11*
X285661723Y-185588095D02*
X285661723Y-184288095D01*
X285971247Y-184288095D01*
X286156961Y-184350000D01*
X286280771Y-184473809D01*
X286342676Y-184597619D01*
X286404580Y-184845238D01*
X286404580Y-185030952D01*
X286342676Y-185278571D01*
X286280771Y-185402380D01*
X286156961Y-185526190D01*
X285971247Y-185588095D01*
X285661723Y-185588095D01*
D10*
D11*
X200434342Y-193785771D02*
X200434342Y-192285771D01*
X200791485Y-192285771D01*
X201005771Y-192357200D01*
X201148628Y-192500057D01*
X201220057Y-192642914D01*
X201291485Y-192928628D01*
X201291485Y-193142914D01*
X201220057Y-193428628D01*
X201148628Y-193571485D01*
X201005771Y-193714342D01*
X200791485Y-193785771D01*
X200434342Y-193785771D01*
X202577200Y-193785771D02*
X202577200Y-193000057D01*
X202505771Y-192857200D01*
X202362914Y-192785771D01*
X202077200Y-192785771D01*
X201934342Y-192857200D01*
X202577200Y-193714342D02*
X202434342Y-193785771D01*
X202077200Y-193785771D01*
X201934342Y-193714342D01*
X201862914Y-193571485D01*
X201862914Y-193428628D01*
X201934342Y-193285771D01*
X202077200Y-193214342D01*
X202434342Y-193214342D01*
X202577200Y-193142914D01*
X203077200Y-192785771D02*
X203648628Y-192785771D01*
X203291485Y-192285771D02*
X203291485Y-193571485D01*
X203362914Y-193714342D01*
X203505771Y-193785771D01*
X203648628Y-193785771D01*
X204720057Y-193714342D02*
X204577200Y-193785771D01*
X204291485Y-193785771D01*
X204148628Y-193714342D01*
X204077200Y-193571485D01*
X204077200Y-193000057D01*
X204148628Y-192857200D01*
X204291485Y-192785771D01*
X204577200Y-192785771D01*
X204720057Y-192857200D01*
X204791485Y-193000057D01*
X204791485Y-193142914D01*
X204077200Y-193285771D01*
X205434342Y-193642914D02*
X205505771Y-193714342D01*
X205434342Y-193785771D01*
X205362914Y-193714342D01*
X205434342Y-193642914D01*
X205434342Y-193785771D01*
X205434342Y-192857200D02*
X205505771Y-192928628D01*
X205434342Y-193000057D01*
X205362914Y-192928628D01*
X205434342Y-192857200D01*
X205434342Y-193000057D01*
X207220057Y-192428628D02*
X207291485Y-192357200D01*
X207434342Y-192285771D01*
X207791485Y-192285771D01*
X207934342Y-192357200D01*
X208005771Y-192428628D01*
X208077200Y-192571485D01*
X208077200Y-192714342D01*
X208005771Y-192928628D01*
X207148628Y-193785771D01*
X208077200Y-193785771D01*
X209005771Y-192285771D02*
X209148628Y-192285771D01*
X209291485Y-192357200D01*
X209362914Y-192428628D01*
X209434342Y-192571485D01*
X209505771Y-192857200D01*
X209505771Y-193214342D01*
X209434342Y-193500057D01*
X209362914Y-193642914D01*
X209291485Y-193714342D01*
X209148628Y-193785771D01*
X209005771Y-193785771D01*
X208862914Y-193714342D01*
X208791485Y-193642914D01*
X208720057Y-193500057D01*
X208648628Y-193214342D01*
X208648628Y-192857200D01*
X208720057Y-192571485D01*
X208791485Y-192428628D01*
X208862914Y-192357200D01*
X209005771Y-192285771D01*
X210077200Y-192428628D02*
X210148628Y-192357200D01*
X210291485Y-192285771D01*
X210648628Y-192285771D01*
X210791485Y-192357200D01*
X210862914Y-192428628D01*
X210934342Y-192571485D01*
X210934342Y-192714342D01*
X210862914Y-192928628D01*
X210005771Y-193785771D01*
X210934342Y-193785771D01*
X211505771Y-192428628D02*
X211577200Y-192357200D01*
X211720057Y-192285771D01*
X212077200Y-192285771D01*
X212220057Y-192357200D01*
X212291485Y-192428628D01*
X212362914Y-192571485D01*
X212362914Y-192714342D01*
X212291485Y-192928628D01*
X211434342Y-193785771D01*
X212362914Y-193785771D01*
X213005771Y-193214342D02*
X214148628Y-193214342D01*
X215648628Y-193785771D02*
X214791485Y-193785771D01*
X215220057Y-193785771D02*
X215220057Y-192285771D01*
X215077200Y-192500057D01*
X214934342Y-192642914D01*
X214791485Y-192714342D01*
X216220057Y-192428628D02*
X216291485Y-192357200D01*
X216434342Y-192285771D01*
X216791485Y-192285771D01*
X216934342Y-192357200D01*
X217005771Y-192428628D01*
X217077200Y-192571485D01*
X217077200Y-192714342D01*
X217005771Y-192928628D01*
X216148628Y-193785771D01*
X217077200Y-193785771D01*
X217720057Y-193214342D02*
X218862914Y-193214342D01*
X219862914Y-192285771D02*
X220005771Y-192285771D01*
X220148628Y-192357200D01*
X220220057Y-192428628D01*
X220291485Y-192571485D01*
X220362914Y-192857200D01*
X220362914Y-193214342D01*
X220291485Y-193500057D01*
X220220057Y-193642914D01*
X220148628Y-193714342D01*
X220005771Y-193785771D01*
X219862914Y-193785771D01*
X219720057Y-193714342D01*
X219648628Y-193642914D01*
X219577200Y-193500057D01*
X219505771Y-193214342D01*
X219505771Y-192857200D01*
X219577200Y-192571485D01*
X219648628Y-192428628D01*
X219720057Y-192357200D01*
X219862914Y-192285771D01*
X221077200Y-193785771D02*
X221362914Y-193785771D01*
X221505771Y-193714342D01*
X221577200Y-193642914D01*
X221720057Y-193428628D01*
X221791485Y-193142914D01*
X221791485Y-192571485D01*
X221720057Y-192428628D01*
X221648628Y-192357200D01*
X221505771Y-192285771D01*
X221220057Y-192285771D01*
X221077200Y-192357200D01*
X221005771Y-192428628D01*
X220934342Y-192571485D01*
X220934342Y-192928628D01*
X221005771Y-193071485D01*
X221077200Y-193142914D01*
X221220057Y-193214342D01*
X221505771Y-193214342D01*
X221648628Y-193142914D01*
X221720057Y-193071485D01*
X221791485Y-192928628D01*
D10*
D11*
X177002200Y-194507200D02*
X285002200Y-194507200D01*
D10*
D11*
X178434342Y-196585771D02*
X178434342Y-195085771D01*
X179291485Y-196585771D02*
X178648628Y-195728628D01*
X179291485Y-195085771D02*
X178434342Y-195942914D01*
X179934342Y-196585771D02*
X179934342Y-195585771D01*
X179934342Y-195085771D02*
X179862914Y-195157200D01*
X179934342Y-195228628D01*
X180005771Y-195157200D01*
X179934342Y-195085771D01*
X179934342Y-195228628D01*
X181505771Y-196442914D02*
X181434342Y-196514342D01*
X181220057Y-196585771D01*
X181077200Y-196585771D01*
X180862914Y-196514342D01*
X180720057Y-196371485D01*
X180648628Y-196228628D01*
X180577200Y-195942914D01*
X180577200Y-195728628D01*
X180648628Y-195442914D01*
X180720057Y-195300057D01*
X180862914Y-195157200D01*
X181077200Y-195085771D01*
X181220057Y-195085771D01*
X181434342Y-195157200D01*
X181505771Y-195228628D01*
X182791485Y-196585771D02*
X182791485Y-195800057D01*
X182720057Y-195657200D01*
X182577200Y-195585771D01*
X182291485Y-195585771D01*
X182148628Y-195657200D01*
X182791485Y-196514342D02*
X182648628Y-196585771D01*
X182291485Y-196585771D01*
X182148628Y-196514342D01*
X182077200Y-196371485D01*
X182077200Y-196228628D01*
X182148628Y-196085771D01*
X182291485Y-196014342D01*
X182648628Y-196014342D01*
X182791485Y-195942914D01*
X184148628Y-196585771D02*
X184148628Y-195085771D01*
X184148628Y-196514342D02*
X184005771Y-196585771D01*
X183720057Y-196585771D01*
X183577200Y-196514342D01*
X183505771Y-196442914D01*
X183434342Y-196300057D01*
X183434342Y-195871485D01*
X183505771Y-195728628D01*
X183577200Y-195657200D01*
X183720057Y-195585771D01*
X184005771Y-195585771D01*
X184148628Y-195657200D01*
X186005771Y-195800057D02*
X186505771Y-195800057D01*
X186720057Y-196585771D02*
X186005771Y-196585771D01*
X186005771Y-195085771D01*
X186720057Y-195085771D01*
X187362914Y-196442914D02*
X187434342Y-196514342D01*
X187362914Y-196585771D01*
X187291485Y-196514342D01*
X187362914Y-196442914D01*
X187362914Y-196585771D01*
X188077200Y-196585771D02*
X188077200Y-195085771D01*
X188434342Y-195085771D01*
X188648628Y-195157200D01*
X188791485Y-195300057D01*
X188862914Y-195442914D01*
X188934342Y-195728628D01*
X188934342Y-195942914D01*
X188862914Y-196228628D01*
X188791485Y-196371485D01*
X188648628Y-196514342D01*
X188434342Y-196585771D01*
X188077200Y-196585771D01*
X189577200Y-196442914D02*
X189648628Y-196514342D01*
X189577200Y-196585771D01*
X189505771Y-196514342D01*
X189577200Y-196442914D01*
X189577200Y-196585771D01*
X190220057Y-196157200D02*
X190934342Y-196157200D01*
X190077200Y-196585771D02*
X190577200Y-195085771D01*
X191077200Y-196585771D01*
X191577200Y-196442914D02*
X191648628Y-196514342D01*
X191577200Y-196585771D01*
X191505771Y-196514342D01*
X191577200Y-196442914D01*
X191577200Y-196585771D01*
X194577200Y-196585771D02*
X194577200Y-195085771D01*
X194720057Y-196014342D02*
X195148628Y-196585771D01*
X195148628Y-195585771D02*
X194577200Y-196157200D01*
X195791485Y-196585771D02*
X195791485Y-195585771D01*
X195791485Y-195085771D02*
X195720057Y-195157200D01*
X195791485Y-195228628D01*
X195862914Y-195157200D01*
X195791485Y-195085771D01*
X195791485Y-195228628D01*
X197148628Y-196514342D02*
X197005771Y-196585771D01*
X196720057Y-196585771D01*
X196577200Y-196514342D01*
X196505771Y-196442914D01*
X196434342Y-196300057D01*
X196434342Y-195871485D01*
X196505771Y-195728628D01*
X196577200Y-195657200D01*
X196720057Y-195585771D01*
X197005771Y-195585771D01*
X197148628Y-195657200D01*
X198434342Y-196585771D02*
X198434342Y-195800057D01*
X198362914Y-195657200D01*
X198220057Y-195585771D01*
X197934342Y-195585771D01*
X197791485Y-195657200D01*
X198434342Y-196514342D02*
X198291485Y-196585771D01*
X197934342Y-196585771D01*
X197791485Y-196514342D01*
X197720057Y-196371485D01*
X197720057Y-196228628D01*
X197791485Y-196085771D01*
X197934342Y-196014342D01*
X198291485Y-196014342D01*
X198434342Y-195942914D01*
X199791485Y-196585771D02*
X199791485Y-195085771D01*
X199791485Y-196514342D02*
X199648628Y-196585771D01*
X199362914Y-196585771D01*
X199220057Y-196514342D01*
X199148628Y-196442914D01*
X199077200Y-196300057D01*
X199077200Y-195871485D01*
X199148628Y-195728628D01*
X199220057Y-195657200D01*
X199362914Y-195585771D01*
X199648628Y-195585771D01*
X199791485Y-195657200D01*
X202077200Y-197157200D02*
X202005771Y-197085771D01*
X201862914Y-196871485D01*
X201791485Y-196728628D01*
X201720057Y-196514342D01*
X201648628Y-196157200D01*
X201648628Y-195871485D01*
X201720057Y-195514342D01*
X201791485Y-195300057D01*
X201862914Y-195157200D01*
X202005771Y-194942914D01*
X202077200Y-194871485D01*
X203291485Y-195085771D02*
X203005771Y-195085771D01*
X202862914Y-195157200D01*
X202791485Y-195228628D01*
X202648628Y-195442914D01*
X202577200Y-195728628D01*
X202577200Y-196300057D01*
X202648628Y-196442914D01*
X202720057Y-196514342D01*
X202862914Y-196585771D01*
X203148628Y-196585771D01*
X203291485Y-196514342D01*
X203362914Y-196442914D01*
X203434342Y-196300057D01*
X203434342Y-195942914D01*
X203362914Y-195800057D01*
X203291485Y-195728628D01*
X203148628Y-195657200D01*
X202862914Y-195657200D01*
X202720057Y-195728628D01*
X202648628Y-195800057D01*
X202577200Y-195942914D01*
X204077200Y-196442914D02*
X204148628Y-196514342D01*
X204077200Y-196585771D01*
X204005771Y-196514342D01*
X204077200Y-196442914D01*
X204077200Y-196585771D01*
X205077200Y-195085771D02*
X205220057Y-195085771D01*
X205362914Y-195157200D01*
X205434342Y-195228628D01*
X205505771Y-195371485D01*
X205577200Y-195657200D01*
X205577200Y-196014342D01*
X205505771Y-196300057D01*
X205434342Y-196442914D01*
X205362914Y-196514342D01*
X205220057Y-196585771D01*
X205077200Y-196585771D01*
X204934342Y-196514342D01*
X204862914Y-196442914D01*
X204791485Y-196300057D01*
X204720057Y-196014342D01*
X204720057Y-195657200D01*
X204791485Y-195371485D01*
X204862914Y-195228628D01*
X204934342Y-195157200D01*
X205077200Y-195085771D01*
X206220057Y-196442914D02*
X206291485Y-196514342D01*
X206220057Y-196585771D01*
X206148628Y-196514342D01*
X206220057Y-196442914D01*
X206220057Y-196585771D01*
X207005771Y-196585771D02*
X207291485Y-196585771D01*
X207434342Y-196514342D01*
X207505771Y-196442914D01*
X207648628Y-196228628D01*
X207720057Y-195942914D01*
X207720057Y-195371485D01*
X207648628Y-195228628D01*
X207577200Y-195157200D01*
X207434342Y-195085771D01*
X207148628Y-195085771D01*
X207005771Y-195157200D01*
X206934342Y-195228628D01*
X206862914Y-195371485D01*
X206862914Y-195728628D01*
X206934342Y-195871485D01*
X207005771Y-195942914D01*
X207148628Y-196014342D01*
X207434342Y-196014342D01*
X207577200Y-195942914D01*
X207648628Y-195871485D01*
X207720057Y-195728628D01*
X208220057Y-197157200D02*
X208291485Y-197085771D01*
X208434342Y-196871485D01*
X208505771Y-196728628D01*
X208577200Y-196514342D01*
X208648628Y-196157200D01*
X208648628Y-195871485D01*
X208577200Y-195514342D01*
X208505771Y-195300057D01*
X208434342Y-195157200D01*
X208291485Y-194942914D01*
X208220057Y-194871485D01*
D10*
D11*
X177002200Y-191507200D02*
X285002200Y-191507200D01*
D10*
D12*
X264411485Y-193785771D02*
X263911485Y-193071485D01*
X263554342Y-193785771D02*
X263554342Y-192285771D01*
X264125771Y-192285771D01*
X264268628Y-192357200D01*
X264340057Y-192428628D01*
X264411485Y-192571485D01*
X264411485Y-192785771D01*
X264340057Y-192928628D01*
X264268628Y-193000057D01*
X264125771Y-193071485D01*
X263554342Y-193071485D01*
X265625771Y-193714342D02*
X265482914Y-193785771D01*
X265197200Y-193785771D01*
X265054342Y-193714342D01*
X264982914Y-193571485D01*
X264982914Y-193000057D01*
X265054342Y-192857200D01*
X265197200Y-192785771D01*
X265482914Y-192785771D01*
X265625771Y-192857200D01*
X265697200Y-193000057D01*
X265697200Y-193142914D01*
X264982914Y-193285771D01*
X266197200Y-192785771D02*
X266554342Y-193785771D01*
X266911485Y-192785771D01*
X267482914Y-193642914D02*
X267554342Y-193714342D01*
X267482914Y-193785771D01*
X267411485Y-193714342D01*
X267482914Y-193642914D01*
X267482914Y-193785771D01*
X267482914Y-192857200D02*
X267554342Y-192928628D01*
X267482914Y-193000057D01*
X267411485Y-192928628D01*
X267482914Y-192857200D01*
X267482914Y-193000057D01*
D10*
D11*
X178362914Y-193714342D02*
X178577200Y-193785771D01*
X178934342Y-193785771D01*
X179077200Y-193714342D01*
X179148628Y-193642914D01*
X179220057Y-193500057D01*
X179220057Y-193357200D01*
X179148628Y-193214342D01*
X179077200Y-193142914D01*
X178934342Y-193071485D01*
X178648628Y-193000057D01*
X178505771Y-192928628D01*
X178434342Y-192857200D01*
X178362914Y-192714342D01*
X178362914Y-192571485D01*
X178434342Y-192428628D01*
X178505771Y-192357200D01*
X178648628Y-192285771D01*
X179005771Y-192285771D01*
X179220057Y-192357200D01*
X179862914Y-193785771D02*
X179862914Y-192785771D01*
X179862914Y-192285771D02*
X179791485Y-192357200D01*
X179862914Y-192428628D01*
X179934342Y-192357200D01*
X179862914Y-192285771D01*
X179862914Y-192428628D01*
X180434342Y-192785771D02*
X181220057Y-192785771D01*
X180434342Y-193785771D01*
X181220057Y-193785771D01*
X182362914Y-193714342D02*
X182220057Y-193785771D01*
X181934342Y-193785771D01*
X181791485Y-193714342D01*
X181720057Y-193571485D01*
X181720057Y-193000057D01*
X181791485Y-192857200D01*
X181934342Y-192785771D01*
X182220057Y-192785771D01*
X182362914Y-192857200D01*
X182434342Y-193000057D01*
X182434342Y-193142914D01*
X181720057Y-193285771D01*
X183077200Y-193642914D02*
X183148628Y-193714342D01*
X183077200Y-193785771D01*
X183005771Y-193714342D01*
X183077200Y-193642914D01*
X183077200Y-193785771D01*
X183077200Y-192857200D02*
X183148628Y-192928628D01*
X183077200Y-193000057D01*
X183005771Y-192928628D01*
X183077200Y-192857200D01*
X183077200Y-193000057D01*
X184862914Y-193357200D02*
X185577200Y-193357200D01*
X184720057Y-193785771D02*
X185220057Y-192285771D01*
X185720057Y-193785771D01*
X186862914Y-192785771D02*
X186862914Y-193785771D01*
X186505771Y-192214342D02*
X186148628Y-193285771D01*
X187077200Y-193285771D01*
D10*
D11*
X263434342Y-196585771D02*
X263434342Y-195085771D01*
X264791485Y-196585771D02*
X264791485Y-195085771D01*
X264791485Y-196514342D02*
X264648628Y-196585771D01*
X264362914Y-196585771D01*
X264220057Y-196514342D01*
X264148628Y-196442914D01*
X264077200Y-196300057D01*
X264077200Y-195871485D01*
X264148628Y-195728628D01*
X264220057Y-195657200D01*
X264362914Y-195585771D01*
X264648628Y-195585771D01*
X264791485Y-195657200D01*
X265505771Y-196442914D02*
X265577200Y-196514342D01*
X265505771Y-196585771D01*
X265434342Y-196514342D01*
X265505771Y-196442914D01*
X265505771Y-196585771D01*
X265505771Y-195657200D02*
X265577200Y-195728628D01*
X265505771Y-195800057D01*
X265434342Y-195728628D01*
X265505771Y-195657200D01*
X265505771Y-195800057D01*
X268148628Y-196585771D02*
X267291485Y-196585771D01*
X267720057Y-196585771D02*
X267720057Y-195085771D01*
X267577200Y-195300057D01*
X267434342Y-195442914D01*
X267291485Y-195514342D01*
X269862914Y-195014342D02*
X268577200Y-196942914D01*
X271148628Y-196585771D02*
X270291485Y-196585771D01*
X270720057Y-196585771D02*
X270720057Y-195085771D01*
X270577200Y-195300057D01*
X270434342Y-195442914D01*
X270291485Y-195514342D01*
D10*
D11*
X177002200Y-187507200D02*
X285002200Y-187507200D01*
D10*
D13*
X178714580Y-188211961D02*
X179857438Y-188211961D01*
X179036009Y-190211961D02*
X179286009Y-188211961D01*
X180274104Y-190211961D02*
X180440771Y-188878628D01*
X180524104Y-188211961D02*
X180416961Y-188307200D01*
X180500295Y-188402438D01*
X180607438Y-188307200D01*
X180524104Y-188211961D01*
X180500295Y-188402438D01*
X181107438Y-188878628D02*
X181869342Y-188878628D01*
X181476485Y-188211961D02*
X181262200Y-189926247D01*
X181333628Y-190116723D01*
X181512200Y-190211961D01*
X181702676Y-190211961D01*
X182655057Y-190211961D02*
X182476485Y-190116723D01*
X182405057Y-189926247D01*
X182619342Y-188211961D01*
X184190771Y-190116723D02*
X183988390Y-190211961D01*
X183607438Y-190211961D01*
X183428866Y-190116723D01*
X183357438Y-189926247D01*
X183452676Y-189164342D01*
X183571723Y-188973866D01*
X183774104Y-188878628D01*
X184155057Y-188878628D01*
X184333628Y-188973866D01*
X184405057Y-189164342D01*
X184381247Y-189354819D01*
X183405057Y-189545295D01*
X185155057Y-190021485D02*
X185238390Y-190116723D01*
X185131247Y-190211961D01*
X185047914Y-190116723D01*
X185155057Y-190021485D01*
X185131247Y-190211961D01*
X185286009Y-188973866D02*
X185369342Y-189069104D01*
X185262200Y-189164342D01*
X185178866Y-189069104D01*
X185286009Y-188973866D01*
X185262200Y-189164342D01*
X188750295Y-190211961D02*
X188202676Y-189259580D01*
X187607438Y-190211961D02*
X187857438Y-188211961D01*
X188619342Y-188211961D01*
X188797914Y-188307200D01*
X188881247Y-188402438D01*
X188952676Y-188592914D01*
X188916961Y-188878628D01*
X188797914Y-189069104D01*
X188690771Y-189164342D01*
X188488390Y-189259580D01*
X187726485Y-189259580D01*
X189607438Y-190211961D02*
X189857438Y-188211961D01*
X190619342Y-188211961D01*
X190797914Y-188307200D01*
X190881247Y-188402438D01*
X190952676Y-188592914D01*
X190916961Y-188878628D01*
X190797914Y-189069104D01*
X190690771Y-189164342D01*
X190488390Y-189259580D01*
X189726485Y-189259580D01*
X191607438Y-190211961D02*
X191774104Y-188878628D01*
X191857438Y-188211961D02*
X191750295Y-188307200D01*
X191833628Y-188402438D01*
X191940771Y-188307200D01*
X191857438Y-188211961D01*
X191833628Y-188402438D01*
X194059819Y-189640533D02*
X195012200Y-189640533D01*
X193797914Y-190211961D02*
X194714580Y-188211961D01*
X195131247Y-190211961D01*
X195762200Y-188211961D02*
X196905057Y-188211961D01*
X196083628Y-190211961D02*
X196333628Y-188211961D01*
X197381247Y-188211961D02*
X198464580Y-190211961D01*
X198714580Y-188211961D02*
X197131247Y-190211961D01*
X200750295Y-190211961D02*
X201000295Y-188211961D01*
X200881247Y-189164342D02*
X202024104Y-189164342D01*
X201893152Y-190211961D02*
X202143152Y-188211961D01*
X202821723Y-189640533D02*
X203774104Y-189640533D01*
X202559819Y-190211961D02*
X203476485Y-188211961D01*
X203893152Y-190211961D01*
X204524104Y-188211961D02*
X205666961Y-188211961D01*
X204845533Y-190211961D02*
X205095533Y-188211961D01*
D10*
D11*
X178934342Y-185600057D02*
X178434342Y-185600057D01*
X178434342Y-186385771D02*
X178434342Y-184885771D01*
X179148628Y-184885771D01*
X179720057Y-186385771D02*
X179720057Y-185385771D01*
X179720057Y-184885771D02*
X179648628Y-184957200D01*
X179720057Y-185028628D01*
X179791485Y-184957200D01*
X179720057Y-184885771D01*
X179720057Y-185028628D01*
X180648628Y-186385771D02*
X180505771Y-186314342D01*
X180434342Y-186171485D01*
X180434342Y-184885771D01*
X181791485Y-186314342D02*
X181648628Y-186385771D01*
X181362914Y-186385771D01*
X181220057Y-186314342D01*
X181148628Y-186171485D01*
X181148628Y-185600057D01*
X181220057Y-185457200D01*
X181362914Y-185385771D01*
X181648628Y-185385771D01*
X181791485Y-185457200D01*
X181862914Y-185600057D01*
X181862914Y-185742914D01*
X181148628Y-185885771D01*
X182505771Y-186242914D02*
X182577200Y-186314342D01*
X182505771Y-186385771D01*
X182434342Y-186314342D01*
X182505771Y-186242914D01*
X182505771Y-186385771D01*
X182505771Y-185457200D02*
X182577200Y-185528628D01*
X182505771Y-185600057D01*
X182434342Y-185528628D01*
X182505771Y-185457200D01*
X182505771Y-185600057D01*
X184291485Y-185957200D02*
X185005771Y-185957200D01*
X184148628Y-186385771D02*
X184648628Y-184885771D01*
X185148628Y-186385771D01*
X185648628Y-186385771D02*
X185648628Y-184885771D01*
X186505771Y-186385771D01*
X186505771Y-184885771D01*
X187220057Y-185600057D02*
X187720057Y-185600057D01*
X187934342Y-186385771D02*
X187220057Y-186385771D01*
X187220057Y-184885771D01*
X187934342Y-184885771D01*
X188362914Y-184885771D02*
X189220057Y-184885771D01*
X188791485Y-186385771D02*
X188791485Y-184885771D01*
X189362914Y-186528628D02*
X190505771Y-186528628D01*
X190791485Y-185957200D02*
X191505771Y-185957200D01*
X190648628Y-186385771D02*
X191148628Y-184885771D01*
X191648628Y-186385771D01*
X191934342Y-184885771D02*
X192791485Y-184885771D01*
X192362914Y-186385771D02*
X192362914Y-184885771D01*
X193148628Y-184885771D02*
X194148628Y-186385771D01*
X194148628Y-184885771D02*
X193148628Y-186385771D01*
X194720057Y-186242914D02*
X194791485Y-186314342D01*
X194720057Y-186385771D01*
X194648628Y-186314342D01*
X194720057Y-186242914D01*
X194720057Y-186385771D01*
X195434342Y-186385771D02*
X195434342Y-184885771D01*
X195577200Y-185814342D02*
X196005771Y-186385771D01*
X196005771Y-185385771D02*
X195434342Y-185957200D01*
X196648628Y-186385771D02*
X196648628Y-185385771D01*
X196648628Y-184885771D02*
X196577200Y-184957200D01*
X196648628Y-185028628D01*
X196720057Y-184957200D01*
X196648628Y-184885771D01*
X196648628Y-185028628D01*
X198005771Y-186314342D02*
X197862914Y-186385771D01*
X197577200Y-186385771D01*
X197434342Y-186314342D01*
X197362914Y-186242914D01*
X197291485Y-186100057D01*
X197291485Y-185671485D01*
X197362914Y-185528628D01*
X197434342Y-185457200D01*
X197577200Y-185385771D01*
X197862914Y-185385771D01*
X198005771Y-185457200D01*
X199291485Y-186385771D02*
X199291485Y-185600057D01*
X199220057Y-185457200D01*
X199077200Y-185385771D01*
X198791485Y-185385771D01*
X198648628Y-185457200D01*
X199291485Y-186314342D02*
X199148628Y-186385771D01*
X198791485Y-186385771D01*
X198648628Y-186314342D01*
X198577200Y-186171485D01*
X198577200Y-186028628D01*
X198648628Y-185885771D01*
X198791485Y-185814342D01*
X199148628Y-185814342D01*
X199291485Y-185742914D01*
X200648628Y-186385771D02*
X200648628Y-184885771D01*
X200648628Y-186314342D02*
X200505771Y-186385771D01*
X200220057Y-186385771D01*
X200077200Y-186314342D01*
X200005771Y-186242914D01*
X199934342Y-186100057D01*
X199934342Y-185671485D01*
X200005771Y-185528628D01*
X200077200Y-185457200D01*
X200220057Y-185385771D01*
X200505771Y-185385771D01*
X200648628Y-185457200D01*
X201005771Y-186528628D02*
X202148628Y-186528628D01*
X202505771Y-185385771D02*
X202505771Y-186885771D01*
X202505771Y-185457200D02*
X202648628Y-185385771D01*
X202934342Y-185385771D01*
X203077200Y-185457200D01*
X203148628Y-185528628D01*
X203220057Y-185671485D01*
X203220057Y-186100057D01*
X203148628Y-186242914D01*
X203077200Y-186314342D01*
X202934342Y-186385771D01*
X202648628Y-186385771D01*
X202505771Y-186314342D01*
X204505771Y-186314342D02*
X204362914Y-186385771D01*
X204077200Y-186385771D01*
X203934342Y-186314342D01*
X203862914Y-186242914D01*
X203791485Y-186100057D01*
X203791485Y-185671485D01*
X203862914Y-185528628D01*
X203934342Y-185457200D01*
X204077200Y-185385771D01*
X204362914Y-185385771D01*
X204505771Y-185457200D01*
X205148628Y-186385771D02*
X205148628Y-184885771D01*
X205148628Y-185457200D02*
X205291485Y-185385771D01*
X205577200Y-185385771D01*
X205720057Y-185457200D01*
X205791485Y-185528628D01*
X205862914Y-185671485D01*
X205862914Y-186100057D01*
X205791485Y-186242914D01*
X205720057Y-186314342D01*
X205577200Y-186385771D01*
X205291485Y-186385771D01*
X205148628Y-186314342D01*
D10*
D11*
X177002200Y-181507200D02*
X285002200Y-181507200D01*
D10*
D11*
X178362914Y-183614342D02*
X178577200Y-183685771D01*
X178934342Y-183685771D01*
X179077200Y-183614342D01*
X179148628Y-183542914D01*
X179220057Y-183400057D01*
X179220057Y-183257200D01*
X179148628Y-183114342D01*
X179077200Y-183042914D01*
X178934342Y-182971485D01*
X178648628Y-182900057D01*
X178505771Y-182828628D01*
X178434342Y-182757200D01*
X178362914Y-182614342D01*
X178362914Y-182471485D01*
X178434342Y-182328628D01*
X178505771Y-182257200D01*
X178648628Y-182185771D01*
X179005771Y-182185771D01*
X179220057Y-182257200D01*
X179862914Y-183685771D02*
X179862914Y-182185771D01*
X180505771Y-183685771D02*
X180505771Y-182900057D01*
X180434342Y-182757200D01*
X180291485Y-182685771D01*
X180077200Y-182685771D01*
X179934342Y-182757200D01*
X179862914Y-182828628D01*
X181791485Y-183614342D02*
X181648628Y-183685771D01*
X181362914Y-183685771D01*
X181220057Y-183614342D01*
X181148628Y-183471485D01*
X181148628Y-182900057D01*
X181220057Y-182757200D01*
X181362914Y-182685771D01*
X181648628Y-182685771D01*
X181791485Y-182757200D01*
X181862914Y-182900057D01*
X181862914Y-183042914D01*
X181148628Y-183185771D01*
X183077200Y-183614342D02*
X182934342Y-183685771D01*
X182648628Y-183685771D01*
X182505771Y-183614342D01*
X182434342Y-183471485D01*
X182434342Y-182900057D01*
X182505771Y-182757200D01*
X182648628Y-182685771D01*
X182934342Y-182685771D01*
X183077200Y-182757200D01*
X183148628Y-182900057D01*
X183148628Y-183042914D01*
X182434342Y-183185771D01*
X183577200Y-182685771D02*
X184148628Y-182685771D01*
X183791485Y-182185771D02*
X183791485Y-183471485D01*
X183862914Y-183614342D01*
X184005771Y-183685771D01*
X184148628Y-183685771D01*
X184648628Y-183542914D02*
X184720057Y-183614342D01*
X184648628Y-183685771D01*
X184577200Y-183614342D01*
X184648628Y-183542914D01*
X184648628Y-183685771D01*
X184648628Y-182757200D02*
X184720057Y-182828628D01*
X184648628Y-182900057D01*
X184577200Y-182828628D01*
X184648628Y-182757200D01*
X184648628Y-182900057D01*
D10*
D12*
X178554342Y-180685771D02*
X178554342Y-179185771D01*
X179125771Y-179185771D01*
X179268628Y-179257200D01*
X179340057Y-179328628D01*
X179411485Y-179471485D01*
X179411485Y-179685771D01*
X179340057Y-179828628D01*
X179268628Y-179900057D01*
X179125771Y-179971485D01*
X178554342Y-179971485D01*
X180697200Y-180685771D02*
X180697200Y-179900057D01*
X180625771Y-179757200D01*
X180482914Y-179685771D01*
X180197200Y-179685771D01*
X180054342Y-179757200D01*
X180697200Y-180614342D02*
X180554342Y-180685771D01*
X180197200Y-180685771D01*
X180054342Y-180614342D01*
X179982914Y-180471485D01*
X179982914Y-180328628D01*
X180054342Y-180185771D01*
X180197200Y-180114342D01*
X180554342Y-180114342D01*
X180697200Y-180042914D01*
X181268628Y-179685771D02*
X181625771Y-180685771D01*
X181982914Y-179685771D01*
X183125771Y-180614342D02*
X182982914Y-180685771D01*
X182697200Y-180685771D01*
X182554342Y-180614342D01*
X182482914Y-180471485D01*
X182482914Y-179900057D01*
X182554342Y-179757200D01*
X182697200Y-179685771D01*
X182982914Y-179685771D01*
X183125771Y-179757200D01*
X183197200Y-179900057D01*
X183197200Y-180042914D01*
X182482914Y-180185771D01*
X184054342Y-180685771D02*
X183911485Y-180614342D01*
X183840057Y-180471485D01*
X183840057Y-179185771D01*
X185768628Y-180685771D02*
X185768628Y-179185771D01*
X186268628Y-180257200D01*
X186768628Y-179185771D01*
X186768628Y-180685771D01*
X187697200Y-180685771D02*
X187554342Y-180614342D01*
X187482914Y-180471485D01*
X187482914Y-179185771D01*
X188911485Y-180614342D02*
X188768628Y-180685771D01*
X188482914Y-180685771D01*
X188340057Y-180614342D01*
X188268628Y-180542914D01*
X188197200Y-180400057D01*
X188197200Y-179971485D01*
X188268628Y-179828628D01*
X188340057Y-179757200D01*
X188482914Y-179685771D01*
X188768628Y-179685771D01*
X188911485Y-179757200D01*
X189768628Y-180685771D02*
X189625771Y-180614342D01*
X189554342Y-180542914D01*
X189482914Y-180400057D01*
X189482914Y-179971485D01*
X189554342Y-179828628D01*
X189625771Y-179757200D01*
X189768628Y-179685771D01*
X189982914Y-179685771D01*
X190125771Y-179757200D01*
X190197200Y-179828628D01*
X190268628Y-179971485D01*
X190268628Y-180400057D01*
X190197200Y-180542914D01*
X190125771Y-180614342D01*
X189982914Y-180685771D01*
X189768628Y-180685771D01*
X191554342Y-180614342D02*
X191411485Y-180685771D01*
X191125771Y-180685771D01*
X190982914Y-180614342D01*
X190911485Y-180542914D01*
X190840057Y-180400057D01*
X190840057Y-179971485D01*
X190911485Y-179828628D01*
X190982914Y-179757200D01*
X191125771Y-179685771D01*
X191411485Y-179685771D01*
X191554342Y-179757200D01*
X192197200Y-180685771D02*
X192197200Y-179185771D01*
X192840057Y-180685771D02*
X192840057Y-179900057D01*
X192768628Y-179757200D01*
X192625771Y-179685771D01*
X192411485Y-179685771D01*
X192268628Y-179757200D01*
X192197200Y-179828628D01*
D10*
D11*
D10*
D11*
D10*
D11*
D10*
D11*
D10*
D11*
X197002200Y-191507200D02*
X197002200Y-194507200D01*
D10*
D11*
X261002200Y-191507200D02*
X261002200Y-198007200D01*
D14*
X47975000Y-112925000D02*
G75*
G03*
X50975000Y-115925000I3000000J0D01*
G01*
X50975000Y-59925000D02*
G75*
G03*
X47975000Y-62425000I0J-3050000D01*
G01*
X47975000Y-62425000D02*
X47975000Y-78425000D01*
X52975000Y-80425000D02*
X52975000Y-95425000D01*
X51975000Y-96425000D02*
G75*
G03*
X52975000Y-95425000I0J1000000D01*
G01*
X47975000Y-97425000D02*
X47975000Y-112925000D01*
X52975000Y-80425000D02*
G75*
G03*
X51975000Y-79425000I-1000000J0D01*
G01*
X47975000Y-78425000D02*
G75*
G03*
X48975000Y-79425000I1000000J0D01*
G01*
X48975000Y-96425000D02*
G75*
G03*
X47975000Y-97425000I0J-1000000D01*
G01*
X48975000Y-96425000D02*
X51975000Y-96425000D01*
X48975000Y-79425000D02*
X51975000Y-79425000D01*
X109975000Y-115925000D02*
G75*
G03*
X112975000Y-112925000I0J3000000D01*
G01*
X112975000Y-62425000D02*
X112975000Y-112925000D01*
X112975000Y-62425000D02*
G75*
G03*
X109975000Y-59925000I-3000000J-550000D01*
G01*
X50975000Y-115925000D02*
X109975000Y-115925000D01*
X50975000Y-59925000D02*
X109975000Y-59925000D01*
D15*
%TO.P,BYPASS,1*%
%TO.N,+3.3V*%
X52975000Y-68750000D03*
D16*
%TO.P,BYPASS,2*%
%TO.N,Net-(J2ATX1-Pad16)*%
X52975000Y-76370000D03*
%TD*%
D17*
%TO.P,J4,1,1*%
%TO.N,GND*%
X109525000Y-96000000D03*
%TO.P,J4,2,2*%
%TO.N,12V*%
X109525000Y-99500000D03*
%TD*%
D18*
%TO.P,ATX24P,1,1*%
%TO.N,unconnected-(J2ATX1-Pad1)*%
X94950000Y-102025000D03*
D19*
%TO.P,ATX24P,2,2*%
%TO.N,unconnected-(J2ATX1-Pad2)*%
X90750000Y-102025000D03*
%TO.P,ATX24P,3,3*%
%TO.N,GND*%
X86550000Y-102025000D03*
%TO.P,ATX24P,4,4*%
%TO.N,+5V*%
X82350000Y-102025000D03*
%TO.P,ATX24P,5,5*%
%TO.N,unconnected-(J2ATX1-Pad5)*%
X78150000Y-102025000D03*
%TO.P,ATX24P,6,6*%
%TO.N,unconnected-(J2ATX1-Pad6)*%
X73950000Y-102025000D03*
%TO.P,ATX24P,7,7*%
%TO.N,unconnected-(J2ATX1-Pad7)*%
X69750000Y-102025000D03*
%TO.P,ATX24P,8,8*%
%TO.N,unconnected-(J2ATX1-Pad8)*%
X65550000Y-102025000D03*
%TO.P,ATX24P,9,9*%
%TO.N,Net-(D3POWER1-Pad2)*%
X61350000Y-102025000D03*
%TO.P,ATX24P,10,10*%
%TO.N,12V*%
X57150000Y-102025000D03*
%TO.P,ATX24P,11,11*%
%TO.N,unconnected-(J2ATX1-Pad11)*%
X94950000Y-96525000D03*
%TO.P,ATX24P,12,12*%
%TO.N,unconnected-(J2ATX1-Pad12)*%
X90750000Y-96525000D03*
%TO.P,ATX24P,13,13*%
%TO.N,unconnected-(J2ATX1-Pad13)*%
X86550000Y-96525000D03*
%TO.P,ATX24P,14,14*%
%TO.N,unconnected-(J2ATX1-Pad14)*%
X82350000Y-96525000D03*
%TO.P,ATX24P,15,15*%
%TO.N,unconnected-(J2ATX1-Pad15)*%
X78150000Y-96525000D03*
%TO.P,ATX24P,16,16*%
%TO.N,Net-(J2ATX1-Pad16)*%
X73950000Y-96525000D03*
%TO.P,ATX24P,17,17*%
%TO.N,unconnected-(J2ATX1-Pad17)*%
X69750000Y-96525000D03*
%TO.P,ATX24P,18,18*%
%TO.N,unconnected-(J2ATX1-Pad18)*%
X65550000Y-96525000D03*
%TO.P,ATX24P,19,19*%
%TO.N,unconnected-(J2ATX1-Pad19)*%
X61350000Y-96525000D03*
%TO.P,ATX24P,20,20*%
%TO.N,unconnected-(J2ATX1-Pad20)*%
X57150000Y-96525000D03*
%TD*%
D20*
%TO.P,J1,1,Pin_1*%
%TO.N,GPIO*%
X61800000Y-71950000D03*
D21*
%TO.P,J1,2,Pin_2*%
%TO.N,+3.3V*%
X61800000Y-74490000D03*
%TO.P,J1,3,Pin_3*%
%TO.N,+5V*%
X61800000Y-77030000D03*
%TO.P,J1,4,Pin_4*%
%TO.N,5VSB*%
X61800000Y-79570000D03*
%TO.P,J1,5,Pin_5*%
%TO.N,GND*%
X61800000Y-82110000D03*
%TD*%
D22*
%TO.P,H1,1*%
%TO.N,N/C*%
X109450000Y-63325000D03*
D23*
X109450000Y-63325000D03*
%TD*%
D24*
%TO.P,LED GPIO,1,K*%
%TO.N,Net-(D1GPIO1-Pad1)*%
X79075000Y-78250000D03*
D25*
%TO.P,LED GPIO,2,A*%
%TO.N,Net-(D1GPIO1-Pad2)*%
X76535000Y-78250000D03*
%TD*%
D26*
%TO.P,R2,1*%
%TO.N,Net-(Q1-Pad2)*%
X81940000Y-87225000D03*
D16*
%TO.P,R2,2*%
%TO.N,Net-(D2SWSTART1-Pad1)*%
X89560000Y-87225000D03*
%TD*%
D27*
%TO.P,USB,1,1*%
%TO.N,5VSB*%
X99045000Y-79050000D03*
%TO.P,USB,2,2*%
%TO.N,unconnected-(J3USB1-Pad2)*%
X99045000Y-76550000D03*
%TO.P,USB,3,3*%
%TO.N,unconnected-(J3USB1-Pad3)*%
X99045000Y-74550000D03*
%TO.P,USB,4,4*%
%TO.N,GND*%
X99045000Y-72050000D03*
D28*
%TO.P,USB,5,5*%
%TO.N,unconnected-(J3USB1-Pad5)*%
X102725000Y-82120000D03*
%TO.P,USB,6,6*%
%TO.N,unconnected-(J3USB1-Pad6)*%
X102725000Y-68980000D03*
%TD*%
D23*
%TO.P,H3,3*%
%TO.N,N/C*%
X109425000Y-86425000D03*
D22*
X109425000Y-86425000D03*
%TD*%
D29*
%TO.P,RPI2x20P,1,1*%
%TO.N,unconnected-(J6RPI1-Pad1)*%
X56388000Y-64770000D03*
D17*
%TO.P,RPI2x20P,2,2*%
%TO.N,5VSB*%
X56388000Y-62230000D03*
%TO.P,RPI2x20P,3,3*%
%TO.N,unconnected-(J6RPI1-Pad3)*%
X58928000Y-64770000D03*
%TO.P,RPI2x20P,4,4*%
%TO.N,unconnected-(J6RPI1-Pad4)*%
X58928000Y-62230000D03*
%TO.P,RPI2x20P,5,5*%
%TO.N,unconnected-(J6RPI1-Pad5)*%
X61468000Y-64770000D03*
%TO.P,RPI2x20P,6,6*%
%TO.N,unconnected-(J6RPI1-Pad6)*%
X61468000Y-62230000D03*
%TO.P,RPI2x20P,7,7*%
%TO.N,unconnected-(J6RPI1-Pad7)*%
X64008000Y-64770000D03*
%TO.P,RPI2x20P,8,8*%
%TO.N,unconnected-(J6RPI1-Pad8)*%
X64008000Y-62230000D03*
%TO.P,RPI2x20P,9,9*%
%TO.N,unconnected-(J6RPI1-Pad9)*%
X66548000Y-64770000D03*
%TO.P,RPI2x20P,10,10*%
%TO.N,unconnected-(J6RPI1-Pad10)*%
X66548000Y-62230000D03*
%TO.P,RPI2x20P,11,11*%
%TO.N,unconnected-(J6RPI1-Pad11)*%
X69088000Y-64770000D03*
%TO.P,RPI2x20P,12,12*%
%TO.N,unconnected-(J6RPI1-Pad12)*%
X69088000Y-62230000D03*
%TO.P,RPI2x20P,13,13*%
%TO.N,unconnected-(J6RPI1-Pad13)*%
X71628000Y-64770000D03*
%TO.P,RPI2x20P,14,14*%
%TO.N,unconnected-(J6RPI1-Pad14)*%
X71628000Y-62230000D03*
%TO.P,RPI2x20P,15,15*%
%TO.N,unconnected-(J6RPI1-Pad15)*%
X74168000Y-64770000D03*
%TO.P,RPI2x20P,16,16*%
%TO.N,unconnected-(J6RPI1-Pad16)*%
X74168000Y-62230000D03*
%TO.P,RPI2x20P,17,17*%
%TO.N,unconnected-(J6RPI1-Pad17)*%
X76708000Y-64770000D03*
%TO.P,RPI2x20P,18,18*%
%TO.N,unconnected-(J6RPI1-Pad18)*%
X76708000Y-62230000D03*
%TO.P,RPI2x20P,19,19*%
%TO.N,unconnected-(J6RPI1-Pad19)*%
X79248000Y-64770000D03*
%TO.P,RPI2x20P,20,20*%
%TO.N,unconnected-(J6RPI1-Pad20)*%
X79248000Y-62230000D03*
%TO.P,RPI2x20P,21,21*%
%TO.N,unconnected-(J6RPI1-Pad21)*%
X81788000Y-64770000D03*
%TO.P,RPI2x20P,22,22*%
%TO.N,unconnected-(J6RPI1-Pad22)*%
X81788000Y-62230000D03*
%TO.P,RPI2x20P,23,23*%
%TO.N,unconnected-(J6RPI1-Pad23)*%
X84328000Y-64770000D03*
%TO.P,RPI2x20P,24,24*%
%TO.N,unconnected-(J6RPI1-Pad24)*%
X84328000Y-62230000D03*
%TO.P,RPI2x20P,25,25*%
%TO.N,unconnected-(J6RPI1-Pad25)*%
X86868000Y-64770000D03*
%TO.P,RPI2x20P,26,26*%
%TO.N,unconnected-(J6RPI1-Pad26)*%
X86868000Y-62230000D03*
%TO.P,RPI2x20P,27,27*%
%TO.N,unconnected-(J6RPI1-Pad27)*%
X89408000Y-64770000D03*
%TO.P,RPI2x20P,28,28*%
%TO.N,unconnected-(J6RPI1-Pad28)*%
X89408000Y-62230000D03*
%TO.P,RPI2x20P,29,29*%
%TO.N,GPIO*%
X91948000Y-64770000D03*
%TO.P,RPI2x20P,30,30*%
%TO.N,unconnected-(J6RPI1-Pad30)*%
X91948000Y-62230000D03*
%TO.P,RPI2x20P,31,31*%
%TO.N,unconnected-(J6RPI1-Pad31)*%
X94488000Y-64770000D03*
%TO.P,RPI2x20P,32,32*%
%TO.N,unconnected-(J6RPI1-Pad32)*%
X94488000Y-62230000D03*
%TO.P,RPI2x20P,33,33*%
%TO.N,unconnected-(J6RPI1-Pad33)*%
X97028000Y-64770000D03*
%TO.P,RPI2x20P,34,34*%
%TO.N,unconnected-(J6RPI1-Pad34)*%
X97028000Y-62230000D03*
%TO.P,RPI2x20P,35,35*%
%TO.N,unconnected-(J6RPI1-Pad35)*%
X99568000Y-64770000D03*
%TO.P,RPI2x20P,36,36*%
%TO.N,unconnected-(J6RPI1-Pad36)*%
X99568000Y-62230000D03*
%TO.P,RPI2x20P,37,37*%
%TO.N,unconnected-(J6RPI1-Pad37)*%
X102108000Y-64770000D03*
%TO.P,RPI2x20P,38,38*%
%TO.N,unconnected-(J6RPI1-Pad38)*%
X102108000Y-62230000D03*
%TO.P,RPI2x20P,39,39*%
%TO.N,GND*%
X104648000Y-64770000D03*
%TO.P,RPI2x20P,40,40*%
%TO.N,unconnected-(J6RPI1-Pad40)*%
X104648000Y-62230000D03*
%TD*%
D30*
%TO.P,Q1,1,B*%
%TO.N,Net-(D1GPIO1-Pad1)*%
X74940000Y-86255000D03*
D31*
%TO.P,Q1,2,C*%
%TO.N,Net-(Q1-Pad2)*%
X74940000Y-87525000D03*
%TO.P,Q1,3,E*%
%TO.N,Net-(J2ATX1-Pad16)*%
X74940000Y-88795000D03*
%TD*%
D26*
%TO.P,R1,1*%
%TO.N,Net-(D1GPIO1-Pad2)*%
X79805000Y-70450000D03*
D16*
%TO.P,R1,2*%
%TO.N,GPIO*%
X87425000Y-70450000D03*
%TD*%
D24*
%TO.P,LED SW,1,K*%
%TO.N,Net-(D2SWSTART1-Pad1)*%
X87525000Y-78300000D03*
D25*
%TO.P,LED SW,2,A*%
%TO.N,+5V*%
X84985000Y-78300000D03*
%TD*%
D17*
%TO.P,J5,1,1*%
%TO.N,GND*%
X109525000Y-103025000D03*
%TO.P,J5,2,2*%
%TO.N,12V*%
X109525000Y-106525000D03*
%TD*%
D24*
%TO.P,LED PWR,1,K*%
%TO.N,5VSB*%
X70100000Y-78250000D03*
D25*
%TO.P,LED PWR,2,A*%
%TO.N,Net-(D3POWER1-Pad2)*%
X67560000Y-78250000D03*
%TD*%
D22*
%TO.P,H2,2*%
%TO.N,N/C*%
X51475000Y-63375000D03*
D23*
X51475000Y-63375000D03*
%TD*%
D32*
%TO.N,5VSB*%
X96385600Y-79116500D03*
%TD*%
D33*
%TO.N,+5V*%
X67200000Y-74150000D02*
X80835000Y-74150000D01*
X61800000Y-77030000D02*
X65820000Y-77030000D01*
X66160000Y-75190000D02*
X67200000Y-74150000D01*
X80835000Y-74150000D02*
X84985000Y-78300000D01*
X66160000Y-76690000D02*
X66160000Y-75190000D01*
X65820000Y-77030000D02*
X66160000Y-76690000D01*
%TO.N,5VSB*%
X70100000Y-78250000D02*
X68710200Y-79639800D01*
X68710200Y-79639800D02*
X63160100Y-79639800D01*
X96385600Y-79116500D02*
X97038200Y-79116500D01*
X99045000Y-79050000D02*
X97104700Y-79050000D01*
X61800000Y-79570000D02*
X63090300Y-79570000D01*
X63160100Y-79639800D02*
X63090300Y-79570000D01*
X97038200Y-79116500D02*
X97104700Y-79050000D01*
%TO.N,+3.3V*%
X61800000Y-74490000D02*
X59955300Y-74490000D01*
X59955300Y-74490000D02*
X54215300Y-68750000D01*
X52975000Y-68750000D02*
X54215300Y-68750000D01*
D34*
%TO.N,12V*%
X57150000Y-102228100D02*
X67757100Y-112835200D01*
X57150000Y-102025000D02*
X57150000Y-102228100D01*
X103214800Y-112835200D02*
X109525000Y-106525000D01*
X67757100Y-112835200D02*
X103214800Y-112835200D01*
D33*
%TO.N,Net-(J2ATX1-Pad16)*%
X64159700Y-88795000D02*
X52975000Y-77610300D01*
X52975000Y-76370000D02*
X52975000Y-77610300D01*
X74940000Y-88795000D02*
X64159700Y-88795000D01*
D34*
%TO.N,GND*%
X93985300Y-82855600D02*
X93985300Y-74645700D01*
X108985900Y-96000000D02*
X109525000Y-96000000D01*
X96706400Y-71924600D02*
X98919600Y-71924600D01*
X86550000Y-102025000D02*
X86550000Y-102217300D01*
X89433100Y-105100400D02*
X104619100Y-105100400D01*
D35*
X62545600Y-82855600D02*
X61800000Y-82110000D01*
D34*
X108057800Y-96928100D02*
X108985900Y-96000000D01*
X93985300Y-74645700D02*
X96706400Y-71924600D01*
X108057800Y-96928100D02*
X93985300Y-82855600D01*
D36*
X98919600Y-71924600D02*
X99045000Y-72050000D01*
D34*
X106694500Y-98291400D02*
X108057800Y-96928100D01*
X93985300Y-82855600D02*
X62545600Y-82855600D01*
X104619100Y-105100400D02*
X106694500Y-103025000D01*
X106694500Y-103025000D02*
X109525000Y-103025000D01*
X86550000Y-102217300D02*
X89433100Y-105100400D01*
X106694500Y-103025000D02*
X106694500Y-98291400D01*
D33*
%TO.N,GPIO*%
X84684700Y-71950000D02*
X61800000Y-71950000D01*
X87425000Y-70450000D02*
X86184700Y-70450000D01*
X86184700Y-70450000D02*
X84684700Y-71950000D01*
%TO.N,Net-(Q1-Pad2)*%
X76130300Y-87525000D02*
X76430300Y-87225000D01*
X76430300Y-87225000D02*
X81940000Y-87225000D01*
X74940000Y-87525000D02*
X76130300Y-87525000D01*
%TD*%
M02*
