M48
; DRILL file {KiCad (6.0.9)} date Wed Dec 14 14:47:38 2022
; FORMAT={-:-/ absolute / inch / decimal}
; #@! TF.CreationDate,2022-12-14T14:47:38+01:00
; #@! TF.GenerationSoftware,Kicad,Pcbnew,(6.0.9)
; #@! TF.FileFunction,Plated,1,2,PTH
FMAT,2
INCH
; #@! TA.AperFunction,Plated,PTH,ViaDrill
T1C0.0157
; #@! TA.AperFunction,Plated,PTH,ComponentDrill
T2C0.0295
; #@! TA.AperFunction,Plated,PTH,ComponentDrill
T3C0.0315
; #@! TA.AperFunction,Plated,PTH,ComponentDrill
T4C0.0354
; #@! TA.AperFunction,Plated,PTH,ComponentDrill
T5C0.0394
; #@! TA.AperFunction,Plated,PTH,ComponentDrill
T6C0.0433
; #@! TA.AperFunction,Plated,PTH,ComponentDrill
T7C0.0709
; #@! TA.AperFunction,Plated,PTH,ComponentDrill
T8C0.0906
; #@! TA.AperFunction,Plated,PTH,ComponentDrill
T9C0.1063
%
G90
G05
T1
X3.7947Y-3.1148
T2
X2.9504Y-3.3959
X2.9504Y-3.4459
X2.9504Y-3.4959
T3
X2.0856Y-2.7067
X2.0856Y-3.0067
X3.1419Y-2.7736
X3.226Y-3.4341
X3.4419Y-2.7736
X3.526Y-3.4341
T4
X2.6598Y-3.0807
X2.7598Y-3.0807
X3.0132Y-3.0807
X3.1132Y-3.0807
X3.3459Y-3.0827
X3.4459Y-3.0827
T5
X2.4331Y-2.8327
X2.4331Y-2.9327
X2.4331Y-3.0327
X2.4331Y-3.1327
X2.4331Y-3.2327
T6
X2.22Y-2.45
X2.22Y-2.55
X2.32Y-2.45
X2.32Y-2.55
X2.42Y-2.45
X2.42Y-2.55
X2.52Y-2.45
X2.52Y-2.55
X2.62Y-2.45
X2.62Y-2.55
X2.72Y-2.45
X2.72Y-2.55
X2.82Y-2.45
X2.82Y-2.55
X2.92Y-2.45
X2.92Y-2.55
X3.02Y-2.45
X3.02Y-2.55
X3.12Y-2.45
X3.12Y-2.55
X3.22Y-2.45
X3.22Y-2.55
X3.32Y-2.45
X3.32Y-2.55
X3.42Y-2.45
X3.42Y-2.55
X3.52Y-2.45
X3.52Y-2.55
X3.62Y-2.45
X3.62Y-2.55
X3.72Y-2.45
X3.72Y-2.55
X3.82Y-2.45
X3.82Y-2.55
X3.92Y-2.45
X3.92Y-2.55
X4.02Y-2.45
X4.02Y-2.55
X4.12Y-2.45
X4.12Y-2.55
X4.312Y-3.7795
X4.312Y-3.9173
X4.312Y-4.0561
X4.312Y-4.1939
T7
X2.25Y-3.8002
X2.25Y-4.0167
X2.4154Y-3.8002
X2.4154Y-4.0167
X2.5807Y-3.8002
X2.5807Y-4.0167
X2.7461Y-3.8002
X2.7461Y-4.0167
X2.9114Y-3.8002
X2.9114Y-4.0167
X3.0768Y-3.8002
X3.0768Y-4.0167
X3.2421Y-3.8002
X3.2421Y-4.0167
X3.4075Y-3.8002
X3.4075Y-4.0167
X3.5728Y-3.8002
X3.5728Y-4.0167
X3.7382Y-3.8002
X3.7382Y-4.0167
T8
X4.0443Y-2.7157
X4.0443Y-3.2331
T9
X2.0266Y-2.4951
X4.3081Y-3.4026
X4.3091Y-2.4931
T0
M30
