%TF.GenerationSoftware,KiCad,Pcbnew,(6.0.9)*%
%TF.CreationDate,2022-12-14T14:47:33+01:00*%
%TF.ProjectId,ANET_ATX,414e4554-5f41-4545-982e-6b696361645f,rev?*%
%TF.SameCoordinates,Original*%
%TF.FileFunction,Legend,Top*%
%TF.FilePolarity,Positive*%
%FSLAX46Y46*%
G04 Gerber Fmt 4.6, Leading zero omitted, Abs format (unit mm)*
G04 Created by KiCad (PCBNEW (6.0.9)) date 2022-12-14 14:47:33*
%MOMM*%
%LPD*%
G01*
G04 APERTURE LIST*
%ADD10C,0.100000*%
%ADD11C,0.150000*%
%ADD12C,0.300000*%
%ADD13C,0.400000*%
%TA.AperFunction,Profile*%
%ADD14C,0.100000*%
%TD*%
%ADD15C,0.254000*%
%ADD16C,0.120000*%
%ADD17C,0.200000*%
%ADD18C,0.127000*%
G04 APERTURE END LIST*
D10*
D11*
X177002200Y-166007200D02*
X177002200Y-198007200D01*
X285002200Y-198007200D01*
X285002200Y-166007200D01*
X177002200Y-166007200D01*
D10*
D11*
X10000000Y-10000000D02*
X10000000Y-200007200D01*
X287002200Y-200007200D01*
X287002200Y-10000000D01*
X10000000Y-10000000D01*
D10*
D11*
X12000000Y-12000000D02*
X12000000Y-198007200D01*
X285002200Y-198007200D01*
X285002200Y-12000000D01*
X12000000Y-12000000D01*
D10*
D11*
X60000000Y-12000000D02*
X60000000Y-10000000D01*
D10*
D11*
X110000000Y-12000000D02*
X110000000Y-10000000D01*
D10*
D11*
X160000000Y-12000000D02*
X160000000Y-10000000D01*
D10*
D11*
X210000000Y-12000000D02*
X210000000Y-10000000D01*
D10*
D11*
X260000000Y-12000000D02*
X260000000Y-10000000D01*
D10*
D11*
X36065476Y-11588095D02*
X35322619Y-11588095D01*
X35694047Y-11588095D02*
X35694047Y-10288095D01*
X35570238Y-10473809D01*
X35446428Y-10597619D01*
X35322619Y-10659523D01*
D10*
D11*
X85322619Y-10411904D02*
X85384523Y-10350000D01*
X85508333Y-10288095D01*
X85817857Y-10288095D01*
X85941666Y-10350000D01*
X86003571Y-10411904D01*
X86065476Y-10535714D01*
X86065476Y-10659523D01*
X86003571Y-10845238D01*
X85260714Y-11588095D01*
X86065476Y-11588095D01*
D10*
D11*
X135260714Y-10288095D02*
X136065476Y-10288095D01*
X135632142Y-10783333D01*
X135817857Y-10783333D01*
X135941666Y-10845238D01*
X136003571Y-10907142D01*
X136065476Y-11030952D01*
X136065476Y-11340476D01*
X136003571Y-11464285D01*
X135941666Y-11526190D01*
X135817857Y-11588095D01*
X135446428Y-11588095D01*
X135322619Y-11526190D01*
X135260714Y-11464285D01*
D10*
D11*
X185941666Y-10721428D02*
X185941666Y-11588095D01*
X185632142Y-10226190D02*
X185322619Y-11154761D01*
X186127380Y-11154761D01*
D10*
D11*
X236003571Y-10288095D02*
X235384523Y-10288095D01*
X235322619Y-10907142D01*
X235384523Y-10845238D01*
X235508333Y-10783333D01*
X235817857Y-10783333D01*
X235941666Y-10845238D01*
X236003571Y-10907142D01*
X236065476Y-11030952D01*
X236065476Y-11340476D01*
X236003571Y-11464285D01*
X235941666Y-11526190D01*
X235817857Y-11588095D01*
X235508333Y-11588095D01*
X235384523Y-11526190D01*
X235322619Y-11464285D01*
D10*
D11*
X285941666Y-10288095D02*
X285694047Y-10288095D01*
X285570238Y-10350000D01*
X285508333Y-10411904D01*
X285384523Y-10597619D01*
X285322619Y-10845238D01*
X285322619Y-11340476D01*
X285384523Y-11464285D01*
X285446428Y-11526190D01*
X285570238Y-11588095D01*
X285817857Y-11588095D01*
X285941666Y-11526190D01*
X286003571Y-11464285D01*
X286065476Y-11340476D01*
X286065476Y-11030952D01*
X286003571Y-10907142D01*
X285941666Y-10845238D01*
X285817857Y-10783333D01*
X285570238Y-10783333D01*
X285446428Y-10845238D01*
X285384523Y-10907142D01*
X285322619Y-11030952D01*
D10*
D11*
X60000000Y-198007200D02*
X60000000Y-200007200D01*
D10*
D11*
X110000000Y-198007200D02*
X110000000Y-200007200D01*
D10*
D11*
X160000000Y-198007200D02*
X160000000Y-200007200D01*
D10*
D11*
X210000000Y-198007200D02*
X210000000Y-200007200D01*
D10*
D11*
X260000000Y-198007200D02*
X260000000Y-200007200D01*
D10*
D11*
X36065476Y-199595295D02*
X35322619Y-199595295D01*
X35694047Y-199595295D02*
X35694047Y-198295295D01*
X35570238Y-198481009D01*
X35446428Y-198604819D01*
X35322619Y-198666723D01*
D10*
D11*
X85322619Y-198419104D02*
X85384523Y-198357200D01*
X85508333Y-198295295D01*
X85817857Y-198295295D01*
X85941666Y-198357200D01*
X86003571Y-198419104D01*
X86065476Y-198542914D01*
X86065476Y-198666723D01*
X86003571Y-198852438D01*
X85260714Y-199595295D01*
X86065476Y-199595295D01*
D10*
D11*
X135260714Y-198295295D02*
X136065476Y-198295295D01*
X135632142Y-198790533D01*
X135817857Y-198790533D01*
X135941666Y-198852438D01*
X136003571Y-198914342D01*
X136065476Y-199038152D01*
X136065476Y-199347676D01*
X136003571Y-199471485D01*
X135941666Y-199533390D01*
X135817857Y-199595295D01*
X135446428Y-199595295D01*
X135322619Y-199533390D01*
X135260714Y-199471485D01*
D10*
D11*
X185941666Y-198728628D02*
X185941666Y-199595295D01*
X185632142Y-198233390D02*
X185322619Y-199161961D01*
X186127380Y-199161961D01*
D10*
D11*
X236003571Y-198295295D02*
X235384523Y-198295295D01*
X235322619Y-198914342D01*
X235384523Y-198852438D01*
X235508333Y-198790533D01*
X235817857Y-198790533D01*
X235941666Y-198852438D01*
X236003571Y-198914342D01*
X236065476Y-199038152D01*
X236065476Y-199347676D01*
X236003571Y-199471485D01*
X235941666Y-199533390D01*
X235817857Y-199595295D01*
X235508333Y-199595295D01*
X235384523Y-199533390D01*
X235322619Y-199471485D01*
D10*
D11*
X285941666Y-198295295D02*
X285694047Y-198295295D01*
X285570238Y-198357200D01*
X285508333Y-198419104D01*
X285384523Y-198604819D01*
X285322619Y-198852438D01*
X285322619Y-199347676D01*
X285384523Y-199471485D01*
X285446428Y-199533390D01*
X285570238Y-199595295D01*
X285817857Y-199595295D01*
X285941666Y-199533390D01*
X286003571Y-199471485D01*
X286065476Y-199347676D01*
X286065476Y-199038152D01*
X286003571Y-198914342D01*
X285941666Y-198852438D01*
X285817857Y-198790533D01*
X285570238Y-198790533D01*
X285446428Y-198852438D01*
X285384523Y-198914342D01*
X285322619Y-199038152D01*
D10*
D11*
X10000000Y-60000000D02*
X12000000Y-60000000D01*
D10*
D11*
X10000000Y-110000000D02*
X12000000Y-110000000D01*
D10*
D11*
X10000000Y-160000000D02*
X12000000Y-160000000D01*
D10*
D11*
X10690476Y-35216666D02*
X11309523Y-35216666D01*
X10566666Y-35588095D02*
X11000000Y-34288095D01*
X11433333Y-35588095D01*
D10*
D11*
X11092857Y-84907142D02*
X11278571Y-84969047D01*
X11340476Y-85030952D01*
X11402380Y-85154761D01*
X11402380Y-85340476D01*
X11340476Y-85464285D01*
X11278571Y-85526190D01*
X11154761Y-85588095D01*
X10659523Y-85588095D01*
X10659523Y-84288095D01*
X11092857Y-84288095D01*
X11216666Y-84350000D01*
X11278571Y-84411904D01*
X11340476Y-84535714D01*
X11340476Y-84659523D01*
X11278571Y-84783333D01*
X11216666Y-84845238D01*
X11092857Y-84907142D01*
X10659523Y-84907142D01*
D10*
D11*
X11402380Y-135464285D02*
X11340476Y-135526190D01*
X11154761Y-135588095D01*
X11030952Y-135588095D01*
X10845238Y-135526190D01*
X10721428Y-135402380D01*
X10659523Y-135278571D01*
X10597619Y-135030952D01*
X10597619Y-134845238D01*
X10659523Y-134597619D01*
X10721428Y-134473809D01*
X10845238Y-134350000D01*
X11030952Y-134288095D01*
X11154761Y-134288095D01*
X11340476Y-134350000D01*
X11402380Y-134411904D01*
D10*
D11*
X10659523Y-185588095D02*
X10659523Y-184288095D01*
X10969047Y-184288095D01*
X11154761Y-184350000D01*
X11278571Y-184473809D01*
X11340476Y-184597619D01*
X11402380Y-184845238D01*
X11402380Y-185030952D01*
X11340476Y-185278571D01*
X11278571Y-185402380D01*
X11154761Y-185526190D01*
X10969047Y-185588095D01*
X10659523Y-185588095D01*
D10*
D11*
X287002200Y-60000000D02*
X285002200Y-60000000D01*
D10*
D11*
X287002200Y-110000000D02*
X285002200Y-110000000D01*
D10*
D11*
X287002200Y-160000000D02*
X285002200Y-160000000D01*
D10*
D11*
X285692676Y-35216666D02*
X286311723Y-35216666D01*
X285568866Y-35588095D02*
X286002200Y-34288095D01*
X286435533Y-35588095D01*
D10*
D11*
X286095057Y-84907142D02*
X286280771Y-84969047D01*
X286342676Y-85030952D01*
X286404580Y-85154761D01*
X286404580Y-85340476D01*
X286342676Y-85464285D01*
X286280771Y-85526190D01*
X286156961Y-85588095D01*
X285661723Y-85588095D01*
X285661723Y-84288095D01*
X286095057Y-84288095D01*
X286218866Y-84350000D01*
X286280771Y-84411904D01*
X286342676Y-84535714D01*
X286342676Y-84659523D01*
X286280771Y-84783333D01*
X286218866Y-84845238D01*
X286095057Y-84907142D01*
X285661723Y-84907142D01*
D10*
D11*
X286404580Y-135464285D02*
X286342676Y-135526190D01*
X286156961Y-135588095D01*
X286033152Y-135588095D01*
X285847438Y-135526190D01*
X285723628Y-135402380D01*
X285661723Y-135278571D01*
X285599819Y-135030952D01*
X285599819Y-134845238D01*
X285661723Y-134597619D01*
X285723628Y-134473809D01*
X285847438Y-134350000D01*
X286033152Y-134288095D01*
X286156961Y-134288095D01*
X286342676Y-134350000D01*
X286404580Y-134411904D01*
D10*
D11*
X285661723Y-185588095D02*
X285661723Y-184288095D01*
X285971247Y-184288095D01*
X286156961Y-184350000D01*
X286280771Y-184473809D01*
X286342676Y-184597619D01*
X286404580Y-184845238D01*
X286404580Y-185030952D01*
X286342676Y-185278571D01*
X286280771Y-185402380D01*
X286156961Y-185526190D01*
X285971247Y-185588095D01*
X285661723Y-185588095D01*
D10*
D11*
X200434342Y-193785771D02*
X200434342Y-192285771D01*
X200791485Y-192285771D01*
X201005771Y-192357200D01*
X201148628Y-192500057D01*
X201220057Y-192642914D01*
X201291485Y-192928628D01*
X201291485Y-193142914D01*
X201220057Y-193428628D01*
X201148628Y-193571485D01*
X201005771Y-193714342D01*
X200791485Y-193785771D01*
X200434342Y-193785771D01*
X202577200Y-193785771D02*
X202577200Y-193000057D01*
X202505771Y-192857200D01*
X202362914Y-192785771D01*
X202077200Y-192785771D01*
X201934342Y-192857200D01*
X202577200Y-193714342D02*
X202434342Y-193785771D01*
X202077200Y-193785771D01*
X201934342Y-193714342D01*
X201862914Y-193571485D01*
X201862914Y-193428628D01*
X201934342Y-193285771D01*
X202077200Y-193214342D01*
X202434342Y-193214342D01*
X202577200Y-193142914D01*
X203077200Y-192785771D02*
X203648628Y-192785771D01*
X203291485Y-192285771D02*
X203291485Y-193571485D01*
X203362914Y-193714342D01*
X203505771Y-193785771D01*
X203648628Y-193785771D01*
X204720057Y-193714342D02*
X204577200Y-193785771D01*
X204291485Y-193785771D01*
X204148628Y-193714342D01*
X204077200Y-193571485D01*
X204077200Y-193000057D01*
X204148628Y-192857200D01*
X204291485Y-192785771D01*
X204577200Y-192785771D01*
X204720057Y-192857200D01*
X204791485Y-193000057D01*
X204791485Y-193142914D01*
X204077200Y-193285771D01*
X205434342Y-193642914D02*
X205505771Y-193714342D01*
X205434342Y-193785771D01*
X205362914Y-193714342D01*
X205434342Y-193642914D01*
X205434342Y-193785771D01*
X205434342Y-192857200D02*
X205505771Y-192928628D01*
X205434342Y-193000057D01*
X205362914Y-192928628D01*
X205434342Y-192857200D01*
X205434342Y-193000057D01*
X207220057Y-192428628D02*
X207291485Y-192357200D01*
X207434342Y-192285771D01*
X207791485Y-192285771D01*
X207934342Y-192357200D01*
X208005771Y-192428628D01*
X208077200Y-192571485D01*
X208077200Y-192714342D01*
X208005771Y-192928628D01*
X207148628Y-193785771D01*
X208077200Y-193785771D01*
X209005771Y-192285771D02*
X209148628Y-192285771D01*
X209291485Y-192357200D01*
X209362914Y-192428628D01*
X209434342Y-192571485D01*
X209505771Y-192857200D01*
X209505771Y-193214342D01*
X209434342Y-193500057D01*
X209362914Y-193642914D01*
X209291485Y-193714342D01*
X209148628Y-193785771D01*
X209005771Y-193785771D01*
X208862914Y-193714342D01*
X208791485Y-193642914D01*
X208720057Y-193500057D01*
X208648628Y-193214342D01*
X208648628Y-192857200D01*
X208720057Y-192571485D01*
X208791485Y-192428628D01*
X208862914Y-192357200D01*
X209005771Y-192285771D01*
X210077200Y-192428628D02*
X210148628Y-192357200D01*
X210291485Y-192285771D01*
X210648628Y-192285771D01*
X210791485Y-192357200D01*
X210862914Y-192428628D01*
X210934342Y-192571485D01*
X210934342Y-192714342D01*
X210862914Y-192928628D01*
X210005771Y-193785771D01*
X210934342Y-193785771D01*
X211505771Y-192428628D02*
X211577200Y-192357200D01*
X211720057Y-192285771D01*
X212077200Y-192285771D01*
X212220057Y-192357200D01*
X212291485Y-192428628D01*
X212362914Y-192571485D01*
X212362914Y-192714342D01*
X212291485Y-192928628D01*
X211434342Y-193785771D01*
X212362914Y-193785771D01*
X213005771Y-193214342D02*
X214148628Y-193214342D01*
X215648628Y-193785771D02*
X214791485Y-193785771D01*
X215220057Y-193785771D02*
X215220057Y-192285771D01*
X215077200Y-192500057D01*
X214934342Y-192642914D01*
X214791485Y-192714342D01*
X216220057Y-192428628D02*
X216291485Y-192357200D01*
X216434342Y-192285771D01*
X216791485Y-192285771D01*
X216934342Y-192357200D01*
X217005771Y-192428628D01*
X217077200Y-192571485D01*
X217077200Y-192714342D01*
X217005771Y-192928628D01*
X216148628Y-193785771D01*
X217077200Y-193785771D01*
X217720057Y-193214342D02*
X218862914Y-193214342D01*
X219862914Y-192285771D02*
X220005771Y-192285771D01*
X220148628Y-192357200D01*
X220220057Y-192428628D01*
X220291485Y-192571485D01*
X220362914Y-192857200D01*
X220362914Y-193214342D01*
X220291485Y-193500057D01*
X220220057Y-193642914D01*
X220148628Y-193714342D01*
X220005771Y-193785771D01*
X219862914Y-193785771D01*
X219720057Y-193714342D01*
X219648628Y-193642914D01*
X219577200Y-193500057D01*
X219505771Y-193214342D01*
X219505771Y-192857200D01*
X219577200Y-192571485D01*
X219648628Y-192428628D01*
X219720057Y-192357200D01*
X219862914Y-192285771D01*
X221077200Y-193785771D02*
X221362914Y-193785771D01*
X221505771Y-193714342D01*
X221577200Y-193642914D01*
X221720057Y-193428628D01*
X221791485Y-193142914D01*
X221791485Y-192571485D01*
X221720057Y-192428628D01*
X221648628Y-192357200D01*
X221505771Y-192285771D01*
X221220057Y-192285771D01*
X221077200Y-192357200D01*
X221005771Y-192428628D01*
X220934342Y-192571485D01*
X220934342Y-192928628D01*
X221005771Y-193071485D01*
X221077200Y-193142914D01*
X221220057Y-193214342D01*
X221505771Y-193214342D01*
X221648628Y-193142914D01*
X221720057Y-193071485D01*
X221791485Y-192928628D01*
D10*
D11*
X177002200Y-194507200D02*
X285002200Y-194507200D01*
D10*
D11*
X178434342Y-196585771D02*
X178434342Y-195085771D01*
X179291485Y-196585771D02*
X178648628Y-195728628D01*
X179291485Y-195085771D02*
X178434342Y-195942914D01*
X179934342Y-196585771D02*
X179934342Y-195585771D01*
X179934342Y-195085771D02*
X179862914Y-195157200D01*
X179934342Y-195228628D01*
X180005771Y-195157200D01*
X179934342Y-195085771D01*
X179934342Y-195228628D01*
X181505771Y-196442914D02*
X181434342Y-196514342D01*
X181220057Y-196585771D01*
X181077200Y-196585771D01*
X180862914Y-196514342D01*
X180720057Y-196371485D01*
X180648628Y-196228628D01*
X180577200Y-195942914D01*
X180577200Y-195728628D01*
X180648628Y-195442914D01*
X180720057Y-195300057D01*
X180862914Y-195157200D01*
X181077200Y-195085771D01*
X181220057Y-195085771D01*
X181434342Y-195157200D01*
X181505771Y-195228628D01*
X182791485Y-196585771D02*
X182791485Y-195800057D01*
X182720057Y-195657200D01*
X182577200Y-195585771D01*
X182291485Y-195585771D01*
X182148628Y-195657200D01*
X182791485Y-196514342D02*
X182648628Y-196585771D01*
X182291485Y-196585771D01*
X182148628Y-196514342D01*
X182077200Y-196371485D01*
X182077200Y-196228628D01*
X182148628Y-196085771D01*
X182291485Y-196014342D01*
X182648628Y-196014342D01*
X182791485Y-195942914D01*
X184148628Y-196585771D02*
X184148628Y-195085771D01*
X184148628Y-196514342D02*
X184005771Y-196585771D01*
X183720057Y-196585771D01*
X183577200Y-196514342D01*
X183505771Y-196442914D01*
X183434342Y-196300057D01*
X183434342Y-195871485D01*
X183505771Y-195728628D01*
X183577200Y-195657200D01*
X183720057Y-195585771D01*
X184005771Y-195585771D01*
X184148628Y-195657200D01*
X186005771Y-195800057D02*
X186505771Y-195800057D01*
X186720057Y-196585771D02*
X186005771Y-196585771D01*
X186005771Y-195085771D01*
X186720057Y-195085771D01*
X187362914Y-196442914D02*
X187434342Y-196514342D01*
X187362914Y-196585771D01*
X187291485Y-196514342D01*
X187362914Y-196442914D01*
X187362914Y-196585771D01*
X188077200Y-196585771D02*
X188077200Y-195085771D01*
X188434342Y-195085771D01*
X188648628Y-195157200D01*
X188791485Y-195300057D01*
X188862914Y-195442914D01*
X188934342Y-195728628D01*
X188934342Y-195942914D01*
X188862914Y-196228628D01*
X188791485Y-196371485D01*
X188648628Y-196514342D01*
X188434342Y-196585771D01*
X188077200Y-196585771D01*
X189577200Y-196442914D02*
X189648628Y-196514342D01*
X189577200Y-196585771D01*
X189505771Y-196514342D01*
X189577200Y-196442914D01*
X189577200Y-196585771D01*
X190220057Y-196157200D02*
X190934342Y-196157200D01*
X190077200Y-196585771D02*
X190577200Y-195085771D01*
X191077200Y-196585771D01*
X191577200Y-196442914D02*
X191648628Y-196514342D01*
X191577200Y-196585771D01*
X191505771Y-196514342D01*
X191577200Y-196442914D01*
X191577200Y-196585771D01*
X194577200Y-196585771D02*
X194577200Y-195085771D01*
X194720057Y-196014342D02*
X195148628Y-196585771D01*
X195148628Y-195585771D02*
X194577200Y-196157200D01*
X195791485Y-196585771D02*
X195791485Y-195585771D01*
X195791485Y-195085771D02*
X195720057Y-195157200D01*
X195791485Y-195228628D01*
X195862914Y-195157200D01*
X195791485Y-195085771D01*
X195791485Y-195228628D01*
X197148628Y-196514342D02*
X197005771Y-196585771D01*
X196720057Y-196585771D01*
X196577200Y-196514342D01*
X196505771Y-196442914D01*
X196434342Y-196300057D01*
X196434342Y-195871485D01*
X196505771Y-195728628D01*
X196577200Y-195657200D01*
X196720057Y-195585771D01*
X197005771Y-195585771D01*
X197148628Y-195657200D01*
X198434342Y-196585771D02*
X198434342Y-195800057D01*
X198362914Y-195657200D01*
X198220057Y-195585771D01*
X197934342Y-195585771D01*
X197791485Y-195657200D01*
X198434342Y-196514342D02*
X198291485Y-196585771D01*
X197934342Y-196585771D01*
X197791485Y-196514342D01*
X197720057Y-196371485D01*
X197720057Y-196228628D01*
X197791485Y-196085771D01*
X197934342Y-196014342D01*
X198291485Y-196014342D01*
X198434342Y-195942914D01*
X199791485Y-196585771D02*
X199791485Y-195085771D01*
X199791485Y-196514342D02*
X199648628Y-196585771D01*
X199362914Y-196585771D01*
X199220057Y-196514342D01*
X199148628Y-196442914D01*
X199077200Y-196300057D01*
X199077200Y-195871485D01*
X199148628Y-195728628D01*
X199220057Y-195657200D01*
X199362914Y-195585771D01*
X199648628Y-195585771D01*
X199791485Y-195657200D01*
X202077200Y-197157200D02*
X202005771Y-197085771D01*
X201862914Y-196871485D01*
X201791485Y-196728628D01*
X201720057Y-196514342D01*
X201648628Y-196157200D01*
X201648628Y-195871485D01*
X201720057Y-195514342D01*
X201791485Y-195300057D01*
X201862914Y-195157200D01*
X202005771Y-194942914D01*
X202077200Y-194871485D01*
X203291485Y-195085771D02*
X203005771Y-195085771D01*
X202862914Y-195157200D01*
X202791485Y-195228628D01*
X202648628Y-195442914D01*
X202577200Y-195728628D01*
X202577200Y-196300057D01*
X202648628Y-196442914D01*
X202720057Y-196514342D01*
X202862914Y-196585771D01*
X203148628Y-196585771D01*
X203291485Y-196514342D01*
X203362914Y-196442914D01*
X203434342Y-196300057D01*
X203434342Y-195942914D01*
X203362914Y-195800057D01*
X203291485Y-195728628D01*
X203148628Y-195657200D01*
X202862914Y-195657200D01*
X202720057Y-195728628D01*
X202648628Y-195800057D01*
X202577200Y-195942914D01*
X204077200Y-196442914D02*
X204148628Y-196514342D01*
X204077200Y-196585771D01*
X204005771Y-196514342D01*
X204077200Y-196442914D01*
X204077200Y-196585771D01*
X205077200Y-195085771D02*
X205220057Y-195085771D01*
X205362914Y-195157200D01*
X205434342Y-195228628D01*
X205505771Y-195371485D01*
X205577200Y-195657200D01*
X205577200Y-196014342D01*
X205505771Y-196300057D01*
X205434342Y-196442914D01*
X205362914Y-196514342D01*
X205220057Y-196585771D01*
X205077200Y-196585771D01*
X204934342Y-196514342D01*
X204862914Y-196442914D01*
X204791485Y-196300057D01*
X204720057Y-196014342D01*
X204720057Y-195657200D01*
X204791485Y-195371485D01*
X204862914Y-195228628D01*
X204934342Y-195157200D01*
X205077200Y-195085771D01*
X206220057Y-196442914D02*
X206291485Y-196514342D01*
X206220057Y-196585771D01*
X206148628Y-196514342D01*
X206220057Y-196442914D01*
X206220057Y-196585771D01*
X207005771Y-196585771D02*
X207291485Y-196585771D01*
X207434342Y-196514342D01*
X207505771Y-196442914D01*
X207648628Y-196228628D01*
X207720057Y-195942914D01*
X207720057Y-195371485D01*
X207648628Y-195228628D01*
X207577200Y-195157200D01*
X207434342Y-195085771D01*
X207148628Y-195085771D01*
X207005771Y-195157200D01*
X206934342Y-195228628D01*
X206862914Y-195371485D01*
X206862914Y-195728628D01*
X206934342Y-195871485D01*
X207005771Y-195942914D01*
X207148628Y-196014342D01*
X207434342Y-196014342D01*
X207577200Y-195942914D01*
X207648628Y-195871485D01*
X207720057Y-195728628D01*
X208220057Y-197157200D02*
X208291485Y-197085771D01*
X208434342Y-196871485D01*
X208505771Y-196728628D01*
X208577200Y-196514342D01*
X208648628Y-196157200D01*
X208648628Y-195871485D01*
X208577200Y-195514342D01*
X208505771Y-195300057D01*
X208434342Y-195157200D01*
X208291485Y-194942914D01*
X208220057Y-194871485D01*
D10*
D11*
X177002200Y-191507200D02*
X285002200Y-191507200D01*
D10*
D12*
X264411485Y-193785771D02*
X263911485Y-193071485D01*
X263554342Y-193785771D02*
X263554342Y-192285771D01*
X264125771Y-192285771D01*
X264268628Y-192357200D01*
X264340057Y-192428628D01*
X264411485Y-192571485D01*
X264411485Y-192785771D01*
X264340057Y-192928628D01*
X264268628Y-193000057D01*
X264125771Y-193071485D01*
X263554342Y-193071485D01*
X265625771Y-193714342D02*
X265482914Y-193785771D01*
X265197200Y-193785771D01*
X265054342Y-193714342D01*
X264982914Y-193571485D01*
X264982914Y-193000057D01*
X265054342Y-192857200D01*
X265197200Y-192785771D01*
X265482914Y-192785771D01*
X265625771Y-192857200D01*
X265697200Y-193000057D01*
X265697200Y-193142914D01*
X264982914Y-193285771D01*
X266197200Y-192785771D02*
X266554342Y-193785771D01*
X266911485Y-192785771D01*
X267482914Y-193642914D02*
X267554342Y-193714342D01*
X267482914Y-193785771D01*
X267411485Y-193714342D01*
X267482914Y-193642914D01*
X267482914Y-193785771D01*
X267482914Y-192857200D02*
X267554342Y-192928628D01*
X267482914Y-193000057D01*
X267411485Y-192928628D01*
X267482914Y-192857200D01*
X267482914Y-193000057D01*
D10*
D11*
X178362914Y-193714342D02*
X178577200Y-193785771D01*
X178934342Y-193785771D01*
X179077200Y-193714342D01*
X179148628Y-193642914D01*
X179220057Y-193500057D01*
X179220057Y-193357200D01*
X179148628Y-193214342D01*
X179077200Y-193142914D01*
X178934342Y-193071485D01*
X178648628Y-193000057D01*
X178505771Y-192928628D01*
X178434342Y-192857200D01*
X178362914Y-192714342D01*
X178362914Y-192571485D01*
X178434342Y-192428628D01*
X178505771Y-192357200D01*
X178648628Y-192285771D01*
X179005771Y-192285771D01*
X179220057Y-192357200D01*
X179862914Y-193785771D02*
X179862914Y-192785771D01*
X179862914Y-192285771D02*
X179791485Y-192357200D01*
X179862914Y-192428628D01*
X179934342Y-192357200D01*
X179862914Y-192285771D01*
X179862914Y-192428628D01*
X180434342Y-192785771D02*
X181220057Y-192785771D01*
X180434342Y-193785771D01*
X181220057Y-193785771D01*
X182362914Y-193714342D02*
X182220057Y-193785771D01*
X181934342Y-193785771D01*
X181791485Y-193714342D01*
X181720057Y-193571485D01*
X181720057Y-193000057D01*
X181791485Y-192857200D01*
X181934342Y-192785771D01*
X182220057Y-192785771D01*
X182362914Y-192857200D01*
X182434342Y-193000057D01*
X182434342Y-193142914D01*
X181720057Y-193285771D01*
X183077200Y-193642914D02*
X183148628Y-193714342D01*
X183077200Y-193785771D01*
X183005771Y-193714342D01*
X183077200Y-193642914D01*
X183077200Y-193785771D01*
X183077200Y-192857200D02*
X183148628Y-192928628D01*
X183077200Y-193000057D01*
X183005771Y-192928628D01*
X183077200Y-192857200D01*
X183077200Y-193000057D01*
X184862914Y-193357200D02*
X185577200Y-193357200D01*
X184720057Y-193785771D02*
X185220057Y-192285771D01*
X185720057Y-193785771D01*
X186862914Y-192785771D02*
X186862914Y-193785771D01*
X186505771Y-192214342D02*
X186148628Y-193285771D01*
X187077200Y-193285771D01*
D10*
D11*
X263434342Y-196585771D02*
X263434342Y-195085771D01*
X264791485Y-196585771D02*
X264791485Y-195085771D01*
X264791485Y-196514342D02*
X264648628Y-196585771D01*
X264362914Y-196585771D01*
X264220057Y-196514342D01*
X264148628Y-196442914D01*
X264077200Y-196300057D01*
X264077200Y-195871485D01*
X264148628Y-195728628D01*
X264220057Y-195657200D01*
X264362914Y-195585771D01*
X264648628Y-195585771D01*
X264791485Y-195657200D01*
X265505771Y-196442914D02*
X265577200Y-196514342D01*
X265505771Y-196585771D01*
X265434342Y-196514342D01*
X265505771Y-196442914D01*
X265505771Y-196585771D01*
X265505771Y-195657200D02*
X265577200Y-195728628D01*
X265505771Y-195800057D01*
X265434342Y-195728628D01*
X265505771Y-195657200D01*
X265505771Y-195800057D01*
X268148628Y-196585771D02*
X267291485Y-196585771D01*
X267720057Y-196585771D02*
X267720057Y-195085771D01*
X267577200Y-195300057D01*
X267434342Y-195442914D01*
X267291485Y-195514342D01*
X269862914Y-195014342D02*
X268577200Y-196942914D01*
X271148628Y-196585771D02*
X270291485Y-196585771D01*
X270720057Y-196585771D02*
X270720057Y-195085771D01*
X270577200Y-195300057D01*
X270434342Y-195442914D01*
X270291485Y-195514342D01*
D10*
D11*
X177002200Y-187507200D02*
X285002200Y-187507200D01*
D10*
D13*
X178714580Y-188211961D02*
X179857438Y-188211961D01*
X179036009Y-190211961D02*
X179286009Y-188211961D01*
X180274104Y-190211961D02*
X180440771Y-188878628D01*
X180524104Y-188211961D02*
X180416961Y-188307200D01*
X180500295Y-188402438D01*
X180607438Y-188307200D01*
X180524104Y-188211961D01*
X180500295Y-188402438D01*
X181107438Y-188878628D02*
X181869342Y-188878628D01*
X181476485Y-188211961D02*
X181262200Y-189926247D01*
X181333628Y-190116723D01*
X181512200Y-190211961D01*
X181702676Y-190211961D01*
X182655057Y-190211961D02*
X182476485Y-190116723D01*
X182405057Y-189926247D01*
X182619342Y-188211961D01*
X184190771Y-190116723D02*
X183988390Y-190211961D01*
X183607438Y-190211961D01*
X183428866Y-190116723D01*
X183357438Y-189926247D01*
X183452676Y-189164342D01*
X183571723Y-188973866D01*
X183774104Y-188878628D01*
X184155057Y-188878628D01*
X184333628Y-188973866D01*
X184405057Y-189164342D01*
X184381247Y-189354819D01*
X183405057Y-189545295D01*
X185155057Y-190021485D02*
X185238390Y-190116723D01*
X185131247Y-190211961D01*
X185047914Y-190116723D01*
X185155057Y-190021485D01*
X185131247Y-190211961D01*
X185286009Y-188973866D02*
X185369342Y-189069104D01*
X185262200Y-189164342D01*
X185178866Y-189069104D01*
X185286009Y-188973866D01*
X185262200Y-189164342D01*
X188750295Y-190211961D02*
X188202676Y-189259580D01*
X187607438Y-190211961D02*
X187857438Y-188211961D01*
X188619342Y-188211961D01*
X188797914Y-188307200D01*
X188881247Y-188402438D01*
X188952676Y-188592914D01*
X188916961Y-188878628D01*
X188797914Y-189069104D01*
X188690771Y-189164342D01*
X188488390Y-189259580D01*
X187726485Y-189259580D01*
X189607438Y-190211961D02*
X189857438Y-188211961D01*
X190619342Y-188211961D01*
X190797914Y-188307200D01*
X190881247Y-188402438D01*
X190952676Y-188592914D01*
X190916961Y-188878628D01*
X190797914Y-189069104D01*
X190690771Y-189164342D01*
X190488390Y-189259580D01*
X189726485Y-189259580D01*
X191607438Y-190211961D02*
X191774104Y-188878628D01*
X191857438Y-188211961D02*
X191750295Y-188307200D01*
X191833628Y-188402438D01*
X191940771Y-188307200D01*
X191857438Y-188211961D01*
X191833628Y-188402438D01*
X194059819Y-189640533D02*
X195012200Y-189640533D01*
X193797914Y-190211961D02*
X194714580Y-188211961D01*
X195131247Y-190211961D01*
X195762200Y-188211961D02*
X196905057Y-188211961D01*
X196083628Y-190211961D02*
X196333628Y-188211961D01*
X197381247Y-188211961D02*
X198464580Y-190211961D01*
X198714580Y-188211961D02*
X197131247Y-190211961D01*
X200750295Y-190211961D02*
X201000295Y-188211961D01*
X200881247Y-189164342D02*
X202024104Y-189164342D01*
X201893152Y-190211961D02*
X202143152Y-188211961D01*
X202821723Y-189640533D02*
X203774104Y-189640533D01*
X202559819Y-190211961D02*
X203476485Y-188211961D01*
X203893152Y-190211961D01*
X204524104Y-188211961D02*
X205666961Y-188211961D01*
X204845533Y-190211961D02*
X205095533Y-188211961D01*
D10*
D11*
X178934342Y-185600057D02*
X178434342Y-185600057D01*
X178434342Y-186385771D02*
X178434342Y-184885771D01*
X179148628Y-184885771D01*
X179720057Y-186385771D02*
X179720057Y-185385771D01*
X179720057Y-184885771D02*
X179648628Y-184957200D01*
X179720057Y-185028628D01*
X179791485Y-184957200D01*
X179720057Y-184885771D01*
X179720057Y-185028628D01*
X180648628Y-186385771D02*
X180505771Y-186314342D01*
X180434342Y-186171485D01*
X180434342Y-184885771D01*
X181791485Y-186314342D02*
X181648628Y-186385771D01*
X181362914Y-186385771D01*
X181220057Y-186314342D01*
X181148628Y-186171485D01*
X181148628Y-185600057D01*
X181220057Y-185457200D01*
X181362914Y-185385771D01*
X181648628Y-185385771D01*
X181791485Y-185457200D01*
X181862914Y-185600057D01*
X181862914Y-185742914D01*
X181148628Y-185885771D01*
X182505771Y-186242914D02*
X182577200Y-186314342D01*
X182505771Y-186385771D01*
X182434342Y-186314342D01*
X182505771Y-186242914D01*
X182505771Y-186385771D01*
X182505771Y-185457200D02*
X182577200Y-185528628D01*
X182505771Y-185600057D01*
X182434342Y-185528628D01*
X182505771Y-185457200D01*
X182505771Y-185600057D01*
X184291485Y-185957200D02*
X185005771Y-185957200D01*
X184148628Y-186385771D02*
X184648628Y-184885771D01*
X185148628Y-186385771D01*
X185648628Y-186385771D02*
X185648628Y-184885771D01*
X186505771Y-186385771D01*
X186505771Y-184885771D01*
X187220057Y-185600057D02*
X187720057Y-185600057D01*
X187934342Y-186385771D02*
X187220057Y-186385771D01*
X187220057Y-184885771D01*
X187934342Y-184885771D01*
X188362914Y-184885771D02*
X189220057Y-184885771D01*
X188791485Y-186385771D02*
X188791485Y-184885771D01*
X189362914Y-186528628D02*
X190505771Y-186528628D01*
X190791485Y-185957200D02*
X191505771Y-185957200D01*
X190648628Y-186385771D02*
X191148628Y-184885771D01*
X191648628Y-186385771D01*
X191934342Y-184885771D02*
X192791485Y-184885771D01*
X192362914Y-186385771D02*
X192362914Y-184885771D01*
X193148628Y-184885771D02*
X194148628Y-186385771D01*
X194148628Y-184885771D02*
X193148628Y-186385771D01*
X194720057Y-186242914D02*
X194791485Y-186314342D01*
X194720057Y-186385771D01*
X194648628Y-186314342D01*
X194720057Y-186242914D01*
X194720057Y-186385771D01*
X195434342Y-186385771D02*
X195434342Y-184885771D01*
X195577200Y-185814342D02*
X196005771Y-186385771D01*
X196005771Y-185385771D02*
X195434342Y-185957200D01*
X196648628Y-186385771D02*
X196648628Y-185385771D01*
X196648628Y-184885771D02*
X196577200Y-184957200D01*
X196648628Y-185028628D01*
X196720057Y-184957200D01*
X196648628Y-184885771D01*
X196648628Y-185028628D01*
X198005771Y-186314342D02*
X197862914Y-186385771D01*
X197577200Y-186385771D01*
X197434342Y-186314342D01*
X197362914Y-186242914D01*
X197291485Y-186100057D01*
X197291485Y-185671485D01*
X197362914Y-185528628D01*
X197434342Y-185457200D01*
X197577200Y-185385771D01*
X197862914Y-185385771D01*
X198005771Y-185457200D01*
X199291485Y-186385771D02*
X199291485Y-185600057D01*
X199220057Y-185457200D01*
X199077200Y-185385771D01*
X198791485Y-185385771D01*
X198648628Y-185457200D01*
X199291485Y-186314342D02*
X199148628Y-186385771D01*
X198791485Y-186385771D01*
X198648628Y-186314342D01*
X198577200Y-186171485D01*
X198577200Y-186028628D01*
X198648628Y-185885771D01*
X198791485Y-185814342D01*
X199148628Y-185814342D01*
X199291485Y-185742914D01*
X200648628Y-186385771D02*
X200648628Y-184885771D01*
X200648628Y-186314342D02*
X200505771Y-186385771D01*
X200220057Y-186385771D01*
X200077200Y-186314342D01*
X200005771Y-186242914D01*
X199934342Y-186100057D01*
X199934342Y-185671485D01*
X200005771Y-185528628D01*
X200077200Y-185457200D01*
X200220057Y-185385771D01*
X200505771Y-185385771D01*
X200648628Y-185457200D01*
X201005771Y-186528628D02*
X202148628Y-186528628D01*
X202505771Y-185385771D02*
X202505771Y-186885771D01*
X202505771Y-185457200D02*
X202648628Y-185385771D01*
X202934342Y-185385771D01*
X203077200Y-185457200D01*
X203148628Y-185528628D01*
X203220057Y-185671485D01*
X203220057Y-186100057D01*
X203148628Y-186242914D01*
X203077200Y-186314342D01*
X202934342Y-186385771D01*
X202648628Y-186385771D01*
X202505771Y-186314342D01*
X204505771Y-186314342D02*
X204362914Y-186385771D01*
X204077200Y-186385771D01*
X203934342Y-186314342D01*
X203862914Y-186242914D01*
X203791485Y-186100057D01*
X203791485Y-185671485D01*
X203862914Y-185528628D01*
X203934342Y-185457200D01*
X204077200Y-185385771D01*
X204362914Y-185385771D01*
X204505771Y-185457200D01*
X205148628Y-186385771D02*
X205148628Y-184885771D01*
X205148628Y-185457200D02*
X205291485Y-185385771D01*
X205577200Y-185385771D01*
X205720057Y-185457200D01*
X205791485Y-185528628D01*
X205862914Y-185671485D01*
X205862914Y-186100057D01*
X205791485Y-186242914D01*
X205720057Y-186314342D01*
X205577200Y-186385771D01*
X205291485Y-186385771D01*
X205148628Y-186314342D01*
D10*
D11*
X177002200Y-181507200D02*
X285002200Y-181507200D01*
D10*
D11*
X178362914Y-183614342D02*
X178577200Y-183685771D01*
X178934342Y-183685771D01*
X179077200Y-183614342D01*
X179148628Y-183542914D01*
X179220057Y-183400057D01*
X179220057Y-183257200D01*
X179148628Y-183114342D01*
X179077200Y-183042914D01*
X178934342Y-182971485D01*
X178648628Y-182900057D01*
X178505771Y-182828628D01*
X178434342Y-182757200D01*
X178362914Y-182614342D01*
X178362914Y-182471485D01*
X178434342Y-182328628D01*
X178505771Y-182257200D01*
X178648628Y-182185771D01*
X179005771Y-182185771D01*
X179220057Y-182257200D01*
X179862914Y-183685771D02*
X179862914Y-182185771D01*
X180505771Y-183685771D02*
X180505771Y-182900057D01*
X180434342Y-182757200D01*
X180291485Y-182685771D01*
X180077200Y-182685771D01*
X179934342Y-182757200D01*
X179862914Y-182828628D01*
X181791485Y-183614342D02*
X181648628Y-183685771D01*
X181362914Y-183685771D01*
X181220057Y-183614342D01*
X181148628Y-183471485D01*
X181148628Y-182900057D01*
X181220057Y-182757200D01*
X181362914Y-182685771D01*
X181648628Y-182685771D01*
X181791485Y-182757200D01*
X181862914Y-182900057D01*
X181862914Y-183042914D01*
X181148628Y-183185771D01*
X183077200Y-183614342D02*
X182934342Y-183685771D01*
X182648628Y-183685771D01*
X182505771Y-183614342D01*
X182434342Y-183471485D01*
X182434342Y-182900057D01*
X182505771Y-182757200D01*
X182648628Y-182685771D01*
X182934342Y-182685771D01*
X183077200Y-182757200D01*
X183148628Y-182900057D01*
X183148628Y-183042914D01*
X182434342Y-183185771D01*
X183577200Y-182685771D02*
X184148628Y-182685771D01*
X183791485Y-182185771D02*
X183791485Y-183471485D01*
X183862914Y-183614342D01*
X184005771Y-183685771D01*
X184148628Y-183685771D01*
X184648628Y-183542914D02*
X184720057Y-183614342D01*
X184648628Y-183685771D01*
X184577200Y-183614342D01*
X184648628Y-183542914D01*
X184648628Y-183685771D01*
X184648628Y-182757200D02*
X184720057Y-182828628D01*
X184648628Y-182900057D01*
X184577200Y-182828628D01*
X184648628Y-182757200D01*
X184648628Y-182900057D01*
D10*
D12*
X178554342Y-180685771D02*
X178554342Y-179185771D01*
X179125771Y-179185771D01*
X179268628Y-179257200D01*
X179340057Y-179328628D01*
X179411485Y-179471485D01*
X179411485Y-179685771D01*
X179340057Y-179828628D01*
X179268628Y-179900057D01*
X179125771Y-179971485D01*
X178554342Y-179971485D01*
X180697200Y-180685771D02*
X180697200Y-179900057D01*
X180625771Y-179757200D01*
X180482914Y-179685771D01*
X180197200Y-179685771D01*
X180054342Y-179757200D01*
X180697200Y-180614342D02*
X180554342Y-180685771D01*
X180197200Y-180685771D01*
X180054342Y-180614342D01*
X179982914Y-180471485D01*
X179982914Y-180328628D01*
X180054342Y-180185771D01*
X180197200Y-180114342D01*
X180554342Y-180114342D01*
X180697200Y-180042914D01*
X181268628Y-179685771D02*
X181625771Y-180685771D01*
X181982914Y-179685771D01*
X183125771Y-180614342D02*
X182982914Y-180685771D01*
X182697200Y-180685771D01*
X182554342Y-180614342D01*
X182482914Y-180471485D01*
X182482914Y-179900057D01*
X182554342Y-179757200D01*
X182697200Y-179685771D01*
X182982914Y-179685771D01*
X183125771Y-179757200D01*
X183197200Y-179900057D01*
X183197200Y-180042914D01*
X182482914Y-180185771D01*
X184054342Y-180685771D02*
X183911485Y-180614342D01*
X183840057Y-180471485D01*
X183840057Y-179185771D01*
X185768628Y-180685771D02*
X185768628Y-179185771D01*
X186268628Y-180257200D01*
X186768628Y-179185771D01*
X186768628Y-180685771D01*
X187697200Y-180685771D02*
X187554342Y-180614342D01*
X187482914Y-180471485D01*
X187482914Y-179185771D01*
X188911485Y-180614342D02*
X188768628Y-180685771D01*
X188482914Y-180685771D01*
X188340057Y-180614342D01*
X188268628Y-180542914D01*
X188197200Y-180400057D01*
X188197200Y-179971485D01*
X188268628Y-179828628D01*
X188340057Y-179757200D01*
X188482914Y-179685771D01*
X188768628Y-179685771D01*
X188911485Y-179757200D01*
X189768628Y-180685771D02*
X189625771Y-180614342D01*
X189554342Y-180542914D01*
X189482914Y-180400057D01*
X189482914Y-179971485D01*
X189554342Y-179828628D01*
X189625771Y-179757200D01*
X189768628Y-179685771D01*
X189982914Y-179685771D01*
X190125771Y-179757200D01*
X190197200Y-179828628D01*
X190268628Y-179971485D01*
X190268628Y-180400057D01*
X190197200Y-180542914D01*
X190125771Y-180614342D01*
X189982914Y-180685771D01*
X189768628Y-180685771D01*
X191554342Y-180614342D02*
X191411485Y-180685771D01*
X191125771Y-180685771D01*
X190982914Y-180614342D01*
X190911485Y-180542914D01*
X190840057Y-180400057D01*
X190840057Y-179971485D01*
X190911485Y-179828628D01*
X190982914Y-179757200D01*
X191125771Y-179685771D01*
X191411485Y-179685771D01*
X191554342Y-179757200D01*
X192197200Y-180685771D02*
X192197200Y-179185771D01*
X192840057Y-180685771D02*
X192840057Y-179900057D01*
X192768628Y-179757200D01*
X192625771Y-179685771D01*
X192411485Y-179685771D01*
X192268628Y-179757200D01*
X192197200Y-179828628D01*
D10*
D11*
D10*
D11*
D10*
D11*
D10*
D11*
D10*
D11*
X197002200Y-191507200D02*
X197002200Y-194507200D01*
D10*
D11*
X261002200Y-191507200D02*
X261002200Y-198007200D01*
D14*
X47975000Y-112925000D02*
G75*
G03*
X50975000Y-115925000I3000000J0D01*
G01*
X50975000Y-59925000D02*
G75*
G03*
X47975000Y-62425000I0J-3050000D01*
G01*
X47975000Y-62425000D02*
X47975000Y-78425000D01*
X52975000Y-80425000D02*
X52975000Y-95425000D01*
X51975000Y-96425000D02*
G75*
G03*
X52975000Y-95425000I0J1000000D01*
G01*
X47975000Y-97425000D02*
X47975000Y-112925000D01*
X52975000Y-80425000D02*
G75*
G03*
X51975000Y-79425000I-1000000J0D01*
G01*
X47975000Y-78425000D02*
G75*
G03*
X48975000Y-79425000I1000000J0D01*
G01*
X48975000Y-96425000D02*
G75*
G03*
X47975000Y-97425000I0J-1000000D01*
G01*
X48975000Y-96425000D02*
X51975000Y-96425000D01*
X48975000Y-79425000D02*
X51975000Y-79425000D01*
X109975000Y-115925000D02*
G75*
G03*
X112975000Y-112925000I0J3000000D01*
G01*
X112975000Y-62425000D02*
X112975000Y-112925000D01*
X112975000Y-62425000D02*
G75*
G03*
X109975000Y-59925000I-3000000J-550000D01*
G01*
X50975000Y-115925000D02*
X109975000Y-115925000D01*
X50975000Y-59925000D02*
X109975000Y-59925000D01*
D11*
X58525000Y-84855952D02*
X58477380Y-84951190D01*
X58477380Y-85094047D01*
X58525000Y-85236904D01*
X58620238Y-85332142D01*
X58715476Y-85379761D01*
X58905952Y-85427380D01*
X59048809Y-85427380D01*
X59239285Y-85379761D01*
X59334523Y-85332142D01*
X59429761Y-85236904D01*
X59477380Y-85094047D01*
X59477380Y-84998809D01*
X59429761Y-84855952D01*
X59382142Y-84808333D01*
X59048809Y-84808333D01*
X59048809Y-84998809D01*
X59477380Y-84379761D02*
X58477380Y-84379761D01*
X59477380Y-83808333D01*
X58477380Y-83808333D01*
X59477380Y-83332142D02*
X58477380Y-83332142D01*
X58477380Y-83094047D01*
X58525000Y-82951190D01*
X58620238Y-82855952D01*
X58715476Y-82808333D01*
X58905952Y-82760714D01*
X59048809Y-82760714D01*
X59239285Y-82808333D01*
X59334523Y-82855952D01*
X59429761Y-82951190D01*
X59477380Y-83094047D01*
X59477380Y-83332142D01*
X59429761Y-82284523D02*
X59477380Y-82284523D01*
X59572619Y-82332142D01*
X59620238Y-82379761D01*
X58477380Y-81379761D02*
X58477380Y-81855952D01*
X58953571Y-81903571D01*
X58905952Y-81855952D01*
X58858333Y-81760714D01*
X58858333Y-81522619D01*
X58905952Y-81427380D01*
X58953571Y-81379761D01*
X59048809Y-81332142D01*
X59286904Y-81332142D01*
X59382142Y-81379761D01*
X59429761Y-81427380D01*
X59477380Y-81522619D01*
X59477380Y-81760714D01*
X59429761Y-81855952D01*
X59382142Y-81903571D01*
X58477380Y-81046428D02*
X59477380Y-80713095D01*
X58477380Y-80379761D01*
X58953571Y-79713095D02*
X59001190Y-79570238D01*
X59048809Y-79522619D01*
X59144047Y-79475000D01*
X59286904Y-79475000D01*
X59382142Y-79522619D01*
X59429761Y-79570238D01*
X59477380Y-79665476D01*
X59477380Y-80046428D01*
X58477380Y-80046428D01*
X58477380Y-79713095D01*
X58525000Y-79617857D01*
X58572619Y-79570238D01*
X58667857Y-79522619D01*
X58763095Y-79522619D01*
X58858333Y-79570238D01*
X58905952Y-79617857D01*
X58953571Y-79713095D01*
X58953571Y-80046428D01*
X59429761Y-79094047D02*
X59477380Y-78951190D01*
X59477380Y-78713095D01*
X59429761Y-78617857D01*
X59382142Y-78570238D01*
X59286904Y-78522619D01*
X59191666Y-78522619D01*
X59096428Y-78570238D01*
X59048809Y-78617857D01*
X59001190Y-78713095D01*
X58953571Y-78903571D01*
X58905952Y-78998809D01*
X58858333Y-79046428D01*
X58763095Y-79094047D01*
X58667857Y-79094047D01*
X58572619Y-79046428D01*
X58525000Y-78998809D01*
X58477380Y-78903571D01*
X58477380Y-78665476D01*
X58525000Y-78522619D01*
X59429761Y-78046428D02*
X59477380Y-78046428D01*
X59572619Y-78094047D01*
X59620238Y-78141666D01*
X58477380Y-77141666D02*
X58477380Y-77617857D01*
X58953571Y-77665476D01*
X58905952Y-77617857D01*
X58858333Y-77522619D01*
X58858333Y-77284523D01*
X58905952Y-77189285D01*
X58953571Y-77141666D01*
X59048809Y-77094047D01*
X59286904Y-77094047D01*
X59382142Y-77141666D01*
X59429761Y-77189285D01*
X59477380Y-77284523D01*
X59477380Y-77522619D01*
X59429761Y-77617857D01*
X59382142Y-77665476D01*
X58477380Y-76808333D02*
X59477380Y-76475000D01*
X58477380Y-76141666D01*
X59429761Y-75760714D02*
X59477380Y-75760714D01*
X59572619Y-75808333D01*
X59620238Y-75855952D01*
X58477380Y-75427380D02*
X58477380Y-74808333D01*
X58858333Y-75141666D01*
X58858333Y-74998809D01*
X58905952Y-74903571D01*
X58953571Y-74855952D01*
X59048809Y-74808333D01*
X59286904Y-74808333D01*
X59382142Y-74855952D01*
X59429761Y-74903571D01*
X59477380Y-74998809D01*
X59477380Y-75284523D01*
X59429761Y-75379761D01*
X59382142Y-75427380D01*
X59382142Y-74379761D02*
X59429761Y-74332142D01*
X59477380Y-74379761D01*
X59429761Y-74427380D01*
X59382142Y-74379761D01*
X59477380Y-74379761D01*
X58477380Y-73998809D02*
X58477380Y-73379761D01*
X58858333Y-73713095D01*
X58858333Y-73570238D01*
X58905952Y-73475000D01*
X58953571Y-73427380D01*
X59048809Y-73379761D01*
X59286904Y-73379761D01*
X59382142Y-73427380D01*
X59429761Y-73475000D01*
X59477380Y-73570238D01*
X59477380Y-73855952D01*
X59429761Y-73951190D01*
X59382142Y-73998809D01*
X58477380Y-73094047D02*
X59477380Y-72760714D01*
X58477380Y-72427380D01*
X59429761Y-72046428D02*
X59477380Y-72046428D01*
X59572619Y-72094047D01*
X59620238Y-72141666D01*
X58525000Y-71094047D02*
X58477380Y-71189285D01*
X58477380Y-71332142D01*
X58525000Y-71475000D01*
X58620238Y-71570238D01*
X58715476Y-71617857D01*
X58905952Y-71665476D01*
X59048809Y-71665476D01*
X59239285Y-71617857D01*
X59334523Y-71570238D01*
X59429761Y-71475000D01*
X59477380Y-71332142D01*
X59477380Y-71236904D01*
X59429761Y-71094047D01*
X59382142Y-71046428D01*
X59048809Y-71046428D01*
X59048809Y-71236904D01*
X59477380Y-70617857D02*
X58477380Y-70617857D01*
X58477380Y-70236904D01*
X58525000Y-70141666D01*
X58572619Y-70094047D01*
X58667857Y-70046428D01*
X58810714Y-70046428D01*
X58905952Y-70094047D01*
X58953571Y-70141666D01*
X59001190Y-70236904D01*
X59001190Y-70617857D01*
X59477380Y-69617857D02*
X58477380Y-69617857D01*
X58477380Y-68951190D02*
X58477380Y-68760714D01*
X58525000Y-68665476D01*
X58620238Y-68570238D01*
X58810714Y-68522619D01*
X59144047Y-68522619D01*
X59334523Y-68570238D01*
X59429761Y-68665476D01*
X59477380Y-68760714D01*
X59477380Y-68951190D01*
X59429761Y-69046428D01*
X59334523Y-69141666D01*
X59144047Y-69189285D01*
X58810714Y-69189285D01*
X58620238Y-69141666D01*
X58525000Y-69046428D01*
X58477380Y-68951190D01*
X56084523Y-89442380D02*
X55751190Y-88966190D01*
X55513095Y-89442380D02*
X55513095Y-88442380D01*
X55894047Y-88442380D01*
X55989285Y-88490000D01*
X56036904Y-88537619D01*
X56084523Y-88632857D01*
X56084523Y-88775714D01*
X56036904Y-88870952D01*
X55989285Y-88918571D01*
X55894047Y-88966190D01*
X55513095Y-88966190D01*
X56513095Y-89442380D02*
X56513095Y-88442380D01*
X56894047Y-88442380D01*
X56989285Y-88490000D01*
X57036904Y-88537619D01*
X57084523Y-88632857D01*
X57084523Y-88775714D01*
X57036904Y-88870952D01*
X56989285Y-88918571D01*
X56894047Y-88966190D01*
X56513095Y-88966190D01*
X57513095Y-89442380D02*
X57513095Y-88442380D01*
X58703571Y-89156666D02*
X59179761Y-89156666D01*
X58608333Y-89442380D02*
X58941666Y-88442380D01*
X59275000Y-89442380D01*
X59465476Y-88442380D02*
X60036904Y-88442380D01*
X59751190Y-89442380D02*
X59751190Y-88442380D01*
X60275000Y-88442380D02*
X60941666Y-89442380D01*
X60941666Y-88442380D02*
X60275000Y-89442380D01*
X62084523Y-89442380D02*
X62084523Y-88442380D01*
X62465476Y-88442380D01*
X62560714Y-88490000D01*
X62608333Y-88537619D01*
X62655952Y-88632857D01*
X62655952Y-88775714D01*
X62608333Y-88870952D01*
X62560714Y-88918571D01*
X62465476Y-88966190D01*
X62084523Y-88966190D01*
X63036904Y-89394761D02*
X63179761Y-89442380D01*
X63417857Y-89442380D01*
X63513095Y-89394761D01*
X63560714Y-89347142D01*
X63608333Y-89251904D01*
X63608333Y-89156666D01*
X63560714Y-89061428D01*
X63513095Y-89013809D01*
X63417857Y-88966190D01*
X63227380Y-88918571D01*
X63132142Y-88870952D01*
X63084523Y-88823333D01*
X63036904Y-88728095D01*
X63036904Y-88632857D01*
X63084523Y-88537619D01*
X63132142Y-88490000D01*
X63227380Y-88442380D01*
X63465476Y-88442380D01*
X63608333Y-88490000D01*
X64036904Y-88442380D02*
X64036904Y-89251904D01*
X64084523Y-89347142D01*
X64132142Y-89394761D01*
X64227380Y-89442380D01*
X64417857Y-89442380D01*
X64513095Y-89394761D01*
X64560714Y-89347142D01*
X64608333Y-89251904D01*
X64608333Y-88442380D01*
X65846428Y-89442380D02*
X65846428Y-88442380D01*
X65846428Y-88918571D02*
X66417857Y-88918571D01*
X66417857Y-89442380D02*
X66417857Y-88442380D01*
X66846428Y-89156666D02*
X67322619Y-89156666D01*
X66751190Y-89442380D02*
X67084523Y-88442380D01*
X67417857Y-89442380D01*
X67608333Y-88442380D02*
X68179761Y-88442380D01*
X67894047Y-89442380D02*
X67894047Y-88442380D01*
X58917857Y-90052380D02*
X59251190Y-91052380D01*
X59584523Y-90052380D01*
X59917857Y-90528571D02*
X60251190Y-90528571D01*
X60394047Y-91052380D02*
X59917857Y-91052380D01*
X59917857Y-90052380D01*
X60394047Y-90052380D01*
X61394047Y-91052380D02*
X61060714Y-90576190D01*
X60822619Y-91052380D02*
X60822619Y-90052380D01*
X61203571Y-90052380D01*
X61298809Y-90100000D01*
X61346428Y-90147619D01*
X61394047Y-90242857D01*
X61394047Y-90385714D01*
X61346428Y-90480952D01*
X61298809Y-90528571D01*
X61203571Y-90576190D01*
X60822619Y-90576190D01*
X63108333Y-91052380D02*
X62536904Y-91052380D01*
X62822619Y-91052380D02*
X62822619Y-90052380D01*
X62727380Y-90195238D01*
X62632142Y-90290476D01*
X62536904Y-90338095D01*
X63536904Y-90957142D02*
X63584523Y-91004761D01*
X63536904Y-91052380D01*
X63489285Y-91004761D01*
X63536904Y-90957142D01*
X63536904Y-91052380D01*
X64203571Y-90052380D02*
X64298809Y-90052380D01*
X64394047Y-90100000D01*
X64441666Y-90147619D01*
X64489285Y-90242857D01*
X64536904Y-90433333D01*
X64536904Y-90671428D01*
X64489285Y-90861904D01*
X64441666Y-90957142D01*
X64394047Y-91004761D01*
X64298809Y-91052380D01*
X64203571Y-91052380D01*
X64108333Y-91004761D01*
X64060714Y-90957142D01*
X64013095Y-90861904D01*
X63965476Y-90671428D01*
X63965476Y-90433333D01*
X64013095Y-90242857D01*
X64060714Y-90147619D01*
X64108333Y-90100000D01*
X64203571Y-90052380D01*
X54727380Y-92662380D02*
X54727380Y-91662380D01*
X55108333Y-91662380D01*
X55203571Y-91710000D01*
X55251190Y-91757619D01*
X55298809Y-91852857D01*
X55298809Y-91995714D01*
X55251190Y-92090952D01*
X55203571Y-92138571D01*
X55108333Y-92186190D01*
X54727380Y-92186190D01*
X56155952Y-92662380D02*
X56155952Y-92138571D01*
X56108333Y-92043333D01*
X56013095Y-91995714D01*
X55822619Y-91995714D01*
X55727380Y-92043333D01*
X56155952Y-92614761D02*
X56060714Y-92662380D01*
X55822619Y-92662380D01*
X55727380Y-92614761D01*
X55679761Y-92519523D01*
X55679761Y-92424285D01*
X55727380Y-92329047D01*
X55822619Y-92281428D01*
X56060714Y-92281428D01*
X56155952Y-92233809D01*
X56536904Y-91995714D02*
X56775000Y-92662380D01*
X57013095Y-91995714D01*
X57775000Y-92614761D02*
X57679761Y-92662380D01*
X57489285Y-92662380D01*
X57394047Y-92614761D01*
X57346428Y-92519523D01*
X57346428Y-92138571D01*
X57394047Y-92043333D01*
X57489285Y-91995714D01*
X57679761Y-91995714D01*
X57775000Y-92043333D01*
X57822619Y-92138571D01*
X57822619Y-92233809D01*
X57346428Y-92329047D01*
X58394047Y-92662380D02*
X58298809Y-92614761D01*
X58251190Y-92519523D01*
X58251190Y-91662380D01*
X59536904Y-92662380D02*
X59536904Y-91662380D01*
X59870238Y-92376666D01*
X60203571Y-91662380D01*
X60203571Y-92662380D01*
X60822619Y-92662380D02*
X60727380Y-92614761D01*
X60679761Y-92519523D01*
X60679761Y-91662380D01*
X61632142Y-92614761D02*
X61536904Y-92662380D01*
X61346428Y-92662380D01*
X61251190Y-92614761D01*
X61203571Y-92567142D01*
X61155952Y-92471904D01*
X61155952Y-92186190D01*
X61203571Y-92090952D01*
X61251190Y-92043333D01*
X61346428Y-91995714D01*
X61536904Y-91995714D01*
X61632142Y-92043333D01*
X62203571Y-92662380D02*
X62108333Y-92614761D01*
X62060714Y-92567142D01*
X62013095Y-92471904D01*
X62013095Y-92186190D01*
X62060714Y-92090952D01*
X62108333Y-92043333D01*
X62203571Y-91995714D01*
X62346428Y-91995714D01*
X62441666Y-92043333D01*
X62489285Y-92090952D01*
X62536904Y-92186190D01*
X62536904Y-92471904D01*
X62489285Y-92567142D01*
X62441666Y-92614761D01*
X62346428Y-92662380D01*
X62203571Y-92662380D01*
X63394047Y-92614761D02*
X63298809Y-92662380D01*
X63108333Y-92662380D01*
X63013095Y-92614761D01*
X62965476Y-92567142D01*
X62917857Y-92471904D01*
X62917857Y-92186190D01*
X62965476Y-92090952D01*
X63013095Y-92043333D01*
X63108333Y-91995714D01*
X63298809Y-91995714D01*
X63394047Y-92043333D01*
X63822619Y-92662380D02*
X63822619Y-91662380D01*
X64251190Y-92662380D02*
X64251190Y-92138571D01*
X64203571Y-92043333D01*
X64108333Y-91995714D01*
X63965476Y-91995714D01*
X63870238Y-92043333D01*
X63822619Y-92090952D01*
X65441666Y-91757619D02*
X65489285Y-91710000D01*
X65584523Y-91662380D01*
X65822619Y-91662380D01*
X65917857Y-91710000D01*
X65965476Y-91757619D01*
X66013095Y-91852857D01*
X66013095Y-91948095D01*
X65965476Y-92090952D01*
X65394047Y-92662380D01*
X66013095Y-92662380D01*
X66632142Y-91662380D02*
X66727380Y-91662380D01*
X66822619Y-91710000D01*
X66870238Y-91757619D01*
X66917857Y-91852857D01*
X66965476Y-92043333D01*
X66965476Y-92281428D01*
X66917857Y-92471904D01*
X66870238Y-92567142D01*
X66822619Y-92614761D01*
X66727380Y-92662380D01*
X66632142Y-92662380D01*
X66536904Y-92614761D01*
X66489285Y-92567142D01*
X66441666Y-92471904D01*
X66394047Y-92281428D01*
X66394047Y-92043333D01*
X66441666Y-91852857D01*
X66489285Y-91757619D01*
X66536904Y-91710000D01*
X66632142Y-91662380D01*
X67346428Y-91757619D02*
X67394047Y-91710000D01*
X67489285Y-91662380D01*
X67727380Y-91662380D01*
X67822619Y-91710000D01*
X67870238Y-91757619D01*
X67917857Y-91852857D01*
X67917857Y-91948095D01*
X67870238Y-92090952D01*
X67298809Y-92662380D01*
X67917857Y-92662380D01*
X68298809Y-91757619D02*
X68346428Y-91710000D01*
X68441666Y-91662380D01*
X68679761Y-91662380D01*
X68775000Y-91710000D01*
X68822619Y-91757619D01*
X68870238Y-91852857D01*
X68870238Y-91948095D01*
X68822619Y-92090952D01*
X68251190Y-92662380D01*
X68870238Y-92662380D01*
%TO.C,BYPASS*%
X49553571Y-74663095D02*
X49601190Y-74520238D01*
X49648809Y-74472619D01*
X49744047Y-74425000D01*
X49886904Y-74425000D01*
X49982142Y-74472619D01*
X50029761Y-74520238D01*
X50077380Y-74615476D01*
X50077380Y-74996428D01*
X49077380Y-74996428D01*
X49077380Y-74663095D01*
X49125000Y-74567857D01*
X49172619Y-74520238D01*
X49267857Y-74472619D01*
X49363095Y-74472619D01*
X49458333Y-74520238D01*
X49505952Y-74567857D01*
X49553571Y-74663095D01*
X49553571Y-74996428D01*
X49601190Y-73805952D02*
X50077380Y-73805952D01*
X49077380Y-74139285D02*
X49601190Y-73805952D01*
X49077380Y-73472619D01*
X50077380Y-73139285D02*
X49077380Y-73139285D01*
X49077380Y-72758333D01*
X49125000Y-72663095D01*
X49172619Y-72615476D01*
X49267857Y-72567857D01*
X49410714Y-72567857D01*
X49505952Y-72615476D01*
X49553571Y-72663095D01*
X49601190Y-72758333D01*
X49601190Y-73139285D01*
X49791666Y-72186904D02*
X49791666Y-71710714D01*
X50077380Y-72282142D02*
X49077380Y-71948809D01*
X50077380Y-71615476D01*
X50029761Y-71329761D02*
X50077380Y-71186904D01*
X50077380Y-70948809D01*
X50029761Y-70853571D01*
X49982142Y-70805952D01*
X49886904Y-70758333D01*
X49791666Y-70758333D01*
X49696428Y-70805952D01*
X49648809Y-70853571D01*
X49601190Y-70948809D01*
X49553571Y-71139285D01*
X49505952Y-71234523D01*
X49458333Y-71282142D01*
X49363095Y-71329761D01*
X49267857Y-71329761D01*
X49172619Y-71282142D01*
X49125000Y-71234523D01*
X49077380Y-71139285D01*
X49077380Y-70901190D01*
X49125000Y-70758333D01*
X50029761Y-70377380D02*
X50077380Y-70234523D01*
X50077380Y-69996428D01*
X50029761Y-69901190D01*
X49982142Y-69853571D01*
X49886904Y-69805952D01*
X49791666Y-69805952D01*
X49696428Y-69853571D01*
X49648809Y-69901190D01*
X49601190Y-69996428D01*
X49553571Y-70186904D01*
X49505952Y-70282142D01*
X49458333Y-70329761D01*
X49363095Y-70377380D01*
X49267857Y-70377380D01*
X49172619Y-70329761D01*
X49125000Y-70282142D01*
X49077380Y-70186904D01*
X49077380Y-69948809D01*
X49125000Y-69805952D01*
D15*
%TO.C,J4*%
X102779523Y-97023333D02*
X103686666Y-97023333D01*
X103868095Y-97083809D01*
X103989047Y-97204761D01*
X104049523Y-97386190D01*
X104049523Y-97507142D01*
X103202857Y-95874285D02*
X104049523Y-95874285D01*
X102719047Y-96176666D02*
X103626190Y-96479047D01*
X103626190Y-95692857D01*
%TO.C,ATX24P*%
X90564523Y-93336666D02*
X91169285Y-93336666D01*
X90443571Y-93699523D02*
X90866904Y-92429523D01*
X91290238Y-93699523D01*
X91532142Y-92429523D02*
X92257857Y-92429523D01*
X91895000Y-93699523D02*
X91895000Y-92429523D01*
X92560238Y-92429523D02*
X93406904Y-93699523D01*
X93406904Y-92429523D02*
X92560238Y-93699523D01*
X93830238Y-92550476D02*
X93890714Y-92490000D01*
X94011666Y-92429523D01*
X94314047Y-92429523D01*
X94435000Y-92490000D01*
X94495476Y-92550476D01*
X94555952Y-92671428D01*
X94555952Y-92792380D01*
X94495476Y-92973809D01*
X93769761Y-93699523D01*
X94555952Y-93699523D01*
X95644523Y-92852857D02*
X95644523Y-93699523D01*
X95342142Y-92369047D02*
X95039761Y-93276190D01*
X95825952Y-93276190D01*
X96309761Y-93699523D02*
X96309761Y-92429523D01*
X96793571Y-92429523D01*
X96914523Y-92490000D01*
X96975000Y-92550476D01*
X97035476Y-92671428D01*
X97035476Y-92852857D01*
X96975000Y-92973809D01*
X96914523Y-93034285D01*
X96793571Y-93094761D01*
X96309761Y-93094761D01*
D11*
%TO.C,J1*%
X61077380Y-85333333D02*
X61791666Y-85333333D01*
X61934523Y-85380952D01*
X62029761Y-85476190D01*
X62077380Y-85619047D01*
X62077380Y-85714285D01*
X62077380Y-84333333D02*
X62077380Y-84904761D01*
X62077380Y-84619047D02*
X61077380Y-84619047D01*
X61220238Y-84714285D01*
X61315476Y-84809523D01*
X61363095Y-84904761D01*
%TO.C,LED GPIO*%
X75019285Y-81662380D02*
X74543095Y-81662380D01*
X74543095Y-80662380D01*
X75352619Y-81138571D02*
X75685952Y-81138571D01*
X75828809Y-81662380D02*
X75352619Y-81662380D01*
X75352619Y-80662380D01*
X75828809Y-80662380D01*
X76257380Y-81662380D02*
X76257380Y-80662380D01*
X76495476Y-80662380D01*
X76638333Y-80710000D01*
X76733571Y-80805238D01*
X76781190Y-80900476D01*
X76828809Y-81090952D01*
X76828809Y-81233809D01*
X76781190Y-81424285D01*
X76733571Y-81519523D01*
X76638333Y-81614761D01*
X76495476Y-81662380D01*
X76257380Y-81662380D01*
X78543095Y-80710000D02*
X78447857Y-80662380D01*
X78305000Y-80662380D01*
X78162142Y-80710000D01*
X78066904Y-80805238D01*
X78019285Y-80900476D01*
X77971666Y-81090952D01*
X77971666Y-81233809D01*
X78019285Y-81424285D01*
X78066904Y-81519523D01*
X78162142Y-81614761D01*
X78305000Y-81662380D01*
X78400238Y-81662380D01*
X78543095Y-81614761D01*
X78590714Y-81567142D01*
X78590714Y-81233809D01*
X78400238Y-81233809D01*
X79019285Y-81662380D02*
X79019285Y-80662380D01*
X79400238Y-80662380D01*
X79495476Y-80710000D01*
X79543095Y-80757619D01*
X79590714Y-80852857D01*
X79590714Y-80995714D01*
X79543095Y-81090952D01*
X79495476Y-81138571D01*
X79400238Y-81186190D01*
X79019285Y-81186190D01*
X80019285Y-81662380D02*
X80019285Y-80662380D01*
X80685952Y-80662380D02*
X80876428Y-80662380D01*
X80971666Y-80710000D01*
X81066904Y-80805238D01*
X81114523Y-80995714D01*
X81114523Y-81329047D01*
X81066904Y-81519523D01*
X80971666Y-81614761D01*
X80876428Y-81662380D01*
X80685952Y-81662380D01*
X80590714Y-81614761D01*
X80495476Y-81519523D01*
X80447857Y-81329047D01*
X80447857Y-80995714D01*
X80495476Y-80805238D01*
X80590714Y-80710000D01*
X80685952Y-80662380D01*
%TO.C,R2*%
X85583333Y-85307380D02*
X85250000Y-84831190D01*
X85011904Y-85307380D02*
X85011904Y-84307380D01*
X85392857Y-84307380D01*
X85488095Y-84355000D01*
X85535714Y-84402619D01*
X85583333Y-84497857D01*
X85583333Y-84640714D01*
X85535714Y-84735952D01*
X85488095Y-84783571D01*
X85392857Y-84831190D01*
X85011904Y-84831190D01*
X85964285Y-84402619D02*
X86011904Y-84355000D01*
X86107142Y-84307380D01*
X86345238Y-84307380D01*
X86440476Y-84355000D01*
X86488095Y-84402619D01*
X86535714Y-84497857D01*
X86535714Y-84593095D01*
X86488095Y-84735952D01*
X85916666Y-85307380D01*
X86535714Y-85307380D01*
D15*
%TO.C,USB*%
X100547380Y-85429523D02*
X100547380Y-86457619D01*
X100607857Y-86578571D01*
X100668333Y-86639047D01*
X100789285Y-86699523D01*
X101031190Y-86699523D01*
X101152142Y-86639047D01*
X101212619Y-86578571D01*
X101273095Y-86457619D01*
X101273095Y-85429523D01*
X101817380Y-86639047D02*
X101998809Y-86699523D01*
X102301190Y-86699523D01*
X102422142Y-86639047D01*
X102482619Y-86578571D01*
X102543095Y-86457619D01*
X102543095Y-86336666D01*
X102482619Y-86215714D01*
X102422142Y-86155238D01*
X102301190Y-86094761D01*
X102059285Y-86034285D01*
X101938333Y-85973809D01*
X101877857Y-85913333D01*
X101817380Y-85792380D01*
X101817380Y-85671428D01*
X101877857Y-85550476D01*
X101938333Y-85490000D01*
X102059285Y-85429523D01*
X102361666Y-85429523D01*
X102543095Y-85490000D01*
X103510714Y-86034285D02*
X103692142Y-86094761D01*
X103752619Y-86155238D01*
X103813095Y-86276190D01*
X103813095Y-86457619D01*
X103752619Y-86578571D01*
X103692142Y-86639047D01*
X103571190Y-86699523D01*
X103087380Y-86699523D01*
X103087380Y-85429523D01*
X103510714Y-85429523D01*
X103631666Y-85490000D01*
X103692142Y-85550476D01*
X103752619Y-85671428D01*
X103752619Y-85792380D01*
X103692142Y-85913333D01*
X103631666Y-85973809D01*
X103510714Y-86034285D01*
X103087380Y-86034285D01*
%TO.C,RPI2x20P*%
X65667380Y-68124523D02*
X65244047Y-67519761D01*
X64941666Y-68124523D02*
X64941666Y-66854523D01*
X65425476Y-66854523D01*
X65546428Y-66915000D01*
X65606904Y-66975476D01*
X65667380Y-67096428D01*
X65667380Y-67277857D01*
X65606904Y-67398809D01*
X65546428Y-67459285D01*
X65425476Y-67519761D01*
X64941666Y-67519761D01*
X66211666Y-68124523D02*
X66211666Y-66854523D01*
X66695476Y-66854523D01*
X66816428Y-66915000D01*
X66876904Y-66975476D01*
X66937380Y-67096428D01*
X66937380Y-67277857D01*
X66876904Y-67398809D01*
X66816428Y-67459285D01*
X66695476Y-67519761D01*
X66211666Y-67519761D01*
X67481666Y-68124523D02*
X67481666Y-66854523D01*
X68025952Y-66975476D02*
X68086428Y-66915000D01*
X68207380Y-66854523D01*
X68509761Y-66854523D01*
X68630714Y-66915000D01*
X68691190Y-66975476D01*
X68751666Y-67096428D01*
X68751666Y-67217380D01*
X68691190Y-67398809D01*
X67965476Y-68124523D01*
X68751666Y-68124523D01*
X69175000Y-68124523D02*
X69840238Y-67277857D01*
X69175000Y-67277857D02*
X69840238Y-68124523D01*
X70263571Y-66975476D02*
X70324047Y-66915000D01*
X70445000Y-66854523D01*
X70747380Y-66854523D01*
X70868333Y-66915000D01*
X70928809Y-66975476D01*
X70989285Y-67096428D01*
X70989285Y-67217380D01*
X70928809Y-67398809D01*
X70203095Y-68124523D01*
X70989285Y-68124523D01*
X71775476Y-66854523D02*
X71896428Y-66854523D01*
X72017380Y-66915000D01*
X72077857Y-66975476D01*
X72138333Y-67096428D01*
X72198809Y-67338333D01*
X72198809Y-67640714D01*
X72138333Y-67882619D01*
X72077857Y-68003571D01*
X72017380Y-68064047D01*
X71896428Y-68124523D01*
X71775476Y-68124523D01*
X71654523Y-68064047D01*
X71594047Y-68003571D01*
X71533571Y-67882619D01*
X71473095Y-67640714D01*
X71473095Y-67338333D01*
X71533571Y-67096428D01*
X71594047Y-66975476D01*
X71654523Y-66915000D01*
X71775476Y-66854523D01*
X72743095Y-68124523D02*
X72743095Y-66854523D01*
X73226904Y-66854523D01*
X73347857Y-66915000D01*
X73408333Y-66975476D01*
X73468809Y-67096428D01*
X73468809Y-67277857D01*
X73408333Y-67398809D01*
X73347857Y-67459285D01*
X73226904Y-67519761D01*
X72743095Y-67519761D01*
D11*
%TO.C,Q1*%
X79047619Y-87620238D02*
X79000000Y-87715476D01*
X78904761Y-87810714D01*
X78761904Y-87953571D01*
X78714285Y-88048809D01*
X78714285Y-88144047D01*
X78952380Y-88096428D02*
X78904761Y-88191666D01*
X78809523Y-88286904D01*
X78619047Y-88334523D01*
X78285714Y-88334523D01*
X78095238Y-88286904D01*
X78000000Y-88191666D01*
X77952380Y-88096428D01*
X77952380Y-87905952D01*
X78000000Y-87810714D01*
X78095238Y-87715476D01*
X78285714Y-87667857D01*
X78619047Y-87667857D01*
X78809523Y-87715476D01*
X78904761Y-87810714D01*
X78952380Y-87905952D01*
X78952380Y-88096428D01*
X78952380Y-86715476D02*
X78952380Y-87286904D01*
X78952380Y-87001190D02*
X77952380Y-87001190D01*
X78095238Y-87096428D01*
X78190476Y-87191666D01*
X78238095Y-87286904D01*
%TO.C,R1*%
X83448333Y-68532380D02*
X83115000Y-68056190D01*
X82876904Y-68532380D02*
X82876904Y-67532380D01*
X83257857Y-67532380D01*
X83353095Y-67580000D01*
X83400714Y-67627619D01*
X83448333Y-67722857D01*
X83448333Y-67865714D01*
X83400714Y-67960952D01*
X83353095Y-68008571D01*
X83257857Y-68056190D01*
X82876904Y-68056190D01*
X84400714Y-68532380D02*
X83829285Y-68532380D01*
X84115000Y-68532380D02*
X84115000Y-67532380D01*
X84019761Y-67675238D01*
X83924523Y-67770476D01*
X83829285Y-67818095D01*
%TO.C,LED SW*%
X84183571Y-81712380D02*
X83707380Y-81712380D01*
X83707380Y-80712380D01*
X84516904Y-81188571D02*
X84850238Y-81188571D01*
X84993095Y-81712380D02*
X84516904Y-81712380D01*
X84516904Y-80712380D01*
X84993095Y-80712380D01*
X85421666Y-81712380D02*
X85421666Y-80712380D01*
X85659761Y-80712380D01*
X85802619Y-80760000D01*
X85897857Y-80855238D01*
X85945476Y-80950476D01*
X85993095Y-81140952D01*
X85993095Y-81283809D01*
X85945476Y-81474285D01*
X85897857Y-81569523D01*
X85802619Y-81664761D01*
X85659761Y-81712380D01*
X85421666Y-81712380D01*
X87135952Y-81664761D02*
X87278809Y-81712380D01*
X87516904Y-81712380D01*
X87612142Y-81664761D01*
X87659761Y-81617142D01*
X87707380Y-81521904D01*
X87707380Y-81426666D01*
X87659761Y-81331428D01*
X87612142Y-81283809D01*
X87516904Y-81236190D01*
X87326428Y-81188571D01*
X87231190Y-81140952D01*
X87183571Y-81093333D01*
X87135952Y-80998095D01*
X87135952Y-80902857D01*
X87183571Y-80807619D01*
X87231190Y-80760000D01*
X87326428Y-80712380D01*
X87564523Y-80712380D01*
X87707380Y-80760000D01*
X88040714Y-80712380D02*
X88278809Y-81712380D01*
X88469285Y-80998095D01*
X88659761Y-81712380D01*
X88897857Y-80712380D01*
D15*
%TO.C,J5*%
X102879523Y-104148333D02*
X103786666Y-104148333D01*
X103968095Y-104208809D01*
X104089047Y-104329761D01*
X104149523Y-104511190D01*
X104149523Y-104632142D01*
X102879523Y-102938809D02*
X102879523Y-103543571D01*
X103484285Y-103604047D01*
X103423809Y-103543571D01*
X103363333Y-103422619D01*
X103363333Y-103120238D01*
X103423809Y-102999285D01*
X103484285Y-102938809D01*
X103605238Y-102878333D01*
X103907619Y-102878333D01*
X104028571Y-102938809D01*
X104089047Y-102999285D01*
X104149523Y-103120238D01*
X104149523Y-103422619D01*
X104089047Y-103543571D01*
X104028571Y-103604047D01*
D11*
%TO.C,LED PWR*%
X66234761Y-81662380D02*
X65758571Y-81662380D01*
X65758571Y-80662380D01*
X66568095Y-81138571D02*
X66901428Y-81138571D01*
X67044285Y-81662380D02*
X66568095Y-81662380D01*
X66568095Y-80662380D01*
X67044285Y-80662380D01*
X67472857Y-81662380D02*
X67472857Y-80662380D01*
X67710952Y-80662380D01*
X67853809Y-80710000D01*
X67949047Y-80805238D01*
X67996666Y-80900476D01*
X68044285Y-81090952D01*
X68044285Y-81233809D01*
X67996666Y-81424285D01*
X67949047Y-81519523D01*
X67853809Y-81614761D01*
X67710952Y-81662380D01*
X67472857Y-81662380D01*
X69234761Y-81662380D02*
X69234761Y-80662380D01*
X69615714Y-80662380D01*
X69710952Y-80710000D01*
X69758571Y-80757619D01*
X69806190Y-80852857D01*
X69806190Y-80995714D01*
X69758571Y-81090952D01*
X69710952Y-81138571D01*
X69615714Y-81186190D01*
X69234761Y-81186190D01*
X70139523Y-80662380D02*
X70377619Y-81662380D01*
X70568095Y-80948095D01*
X70758571Y-81662380D01*
X70996666Y-80662380D01*
X71949047Y-81662380D02*
X71615714Y-81186190D01*
X71377619Y-81662380D02*
X71377619Y-80662380D01*
X71758571Y-80662380D01*
X71853809Y-80710000D01*
X71901428Y-80757619D01*
X71949047Y-80852857D01*
X71949047Y-80995714D01*
X71901428Y-81090952D01*
X71853809Y-81138571D01*
X71758571Y-81186190D01*
X71377619Y-81186190D01*
D16*
%TO.C,BYPASS*%
X53010000Y-70750000D02*
X53010000Y-71956667D01*
X52770000Y-70750000D02*
X52770000Y-71956667D01*
X52340000Y-74370000D02*
X53610000Y-74370000D01*
X53610000Y-71956667D02*
X52340000Y-71956667D01*
X51985000Y-75971000D02*
X50865000Y-75971000D01*
X52530000Y-70750000D02*
X52530000Y-71956667D01*
X55085000Y-75971000D02*
X53965000Y-75971000D01*
X53610000Y-70750000D02*
X52340000Y-70750000D01*
X53130000Y-70750000D02*
X53130000Y-71956667D01*
X52410000Y-70750000D02*
X52410000Y-71956667D01*
X53610000Y-74370000D02*
X53610000Y-70750000D01*
X52340000Y-70750000D02*
X52340000Y-74370000D01*
X50865000Y-69150000D02*
X50865000Y-75971000D01*
X55325000Y-68910000D02*
X55325000Y-70293000D01*
X55325000Y-68910000D02*
X54015000Y-68910000D01*
X55085000Y-69150000D02*
X54015000Y-69150000D01*
X55085000Y-69150000D02*
X55085000Y-75971000D01*
X52890000Y-70750000D02*
X52890000Y-71956667D01*
X53370000Y-70750000D02*
X53370000Y-71956667D01*
X51935000Y-69150000D02*
X50865000Y-69150000D01*
X53250000Y-70750000D02*
X53250000Y-71956667D01*
X52650000Y-70750000D02*
X52650000Y-71956667D01*
X53490000Y-70750000D02*
X53490000Y-71956667D01*
D10*
%TO.C,J4*%
X105685000Y-101250000D02*
X105685000Y-94250000D01*
X105685000Y-94250000D02*
X112975000Y-94250000D01*
X112975000Y-101250000D02*
X105685000Y-101250000D01*
D17*
X110025000Y-93000000D02*
X110025000Y-93000000D01*
D10*
X112975000Y-94250000D02*
X112975000Y-101250000D01*
D17*
X109825000Y-93000000D02*
X109825000Y-93000000D01*
X109825000Y-93000000D02*
G75*
G03*
X110025000Y-93000000I100000J0D01*
G01*
X110025000Y-93000000D02*
G75*
G03*
X109825000Y-93000000I-100000J0D01*
G01*
D18*
%TO.C,ATX24P*%
X102450000Y-101525000D02*
X102450000Y-102525000D01*
X97650000Y-115993000D02*
X54450000Y-115993000D01*
X54450000Y-115993000D02*
X54450000Y-96057000D01*
X102450000Y-102525000D02*
X101450000Y-102025000D01*
X101450000Y-102025000D02*
X102450000Y-101525000D01*
X97650000Y-96057000D02*
X97650000Y-115993000D01*
D16*
%TO.C,J1*%
X60470000Y-70620000D02*
X61800000Y-70620000D01*
X60470000Y-73220000D02*
X60470000Y-83440000D01*
X60470000Y-73220000D02*
X63130000Y-73220000D01*
X63130000Y-73220000D02*
X63130000Y-83440000D01*
X60470000Y-71950000D02*
X60470000Y-70620000D01*
X60470000Y-83440000D02*
X63130000Y-83440000D01*
%TO.C,LED GPIO*%
X79365000Y-77170000D02*
X79365000Y-77014000D01*
X79365000Y-79486000D02*
X79365000Y-79330000D01*
X76132665Y-79328608D02*
G75*
G03*
X79365000Y-79485516I1672335J1078608D01*
G01*
X79365000Y-77014484D02*
G75*
G03*
X76132665Y-77171392I-1560000J-1235516D01*
G01*
X78845961Y-77170000D02*
G75*
G03*
X76763870Y-77170163I-1040961J-1080000D01*
G01*
X76763870Y-79329837D02*
G75*
G03*
X78845961Y-79330000I1041130J1079837D01*
G01*
%TO.C,R2*%
X89020000Y-88595000D02*
X89020000Y-88265000D01*
X82480000Y-86185000D02*
X82480000Y-85855000D01*
X89020000Y-85855000D02*
X89020000Y-86185000D01*
X82480000Y-88265000D02*
X82480000Y-88595000D01*
X82480000Y-85855000D02*
X89020000Y-85855000D01*
X82480000Y-88595000D02*
X89020000Y-88595000D01*
D10*
%TO.C,USB*%
X113005000Y-68980000D02*
X105005000Y-68980000D01*
X99045000Y-82120000D02*
X100005000Y-82120000D01*
X99045000Y-68980000D02*
X99005000Y-70550000D01*
X100005000Y-68980000D02*
X99045000Y-68980000D01*
X99045000Y-80550000D02*
X99045000Y-82120000D01*
X113005000Y-82120000D02*
X113005000Y-68980000D01*
X105005000Y-82120000D02*
X113005000Y-82120000D01*
D17*
%TO.C,RPI2x20P*%
X56388000Y-66000000D02*
X106468000Y-66000000D01*
X106468000Y-66000000D02*
X106468000Y-60850000D01*
X54868000Y-60850000D02*
X54868000Y-64770000D01*
X106468000Y-60850000D02*
X54868000Y-60850000D01*
D16*
%TO.C,Q1*%
X73090000Y-85725000D02*
X73090000Y-89325000D01*
X77540001Y-87525000D02*
G75*
G03*
X73101522Y-85686522I-2600001J0D01*
G01*
X73101522Y-89363478D02*
G75*
G03*
X77540000Y-87525000I1838478J1838478D01*
G01*
%TO.C,R1*%
X80345000Y-71490000D02*
X80345000Y-71820000D01*
X80345000Y-71820000D02*
X86885000Y-71820000D01*
X86885000Y-71820000D02*
X86885000Y-71490000D01*
X80345000Y-69080000D02*
X86885000Y-69080000D01*
X86885000Y-69080000D02*
X86885000Y-69410000D01*
X80345000Y-69410000D02*
X80345000Y-69080000D01*
%TO.C,LED SW*%
X87815000Y-77220000D02*
X87815000Y-77064000D01*
X87815000Y-79536000D02*
X87815000Y-79380000D01*
X84582665Y-79378608D02*
G75*
G03*
X87815000Y-79535516I1672335J1078608D01*
G01*
X85213870Y-79379837D02*
G75*
G03*
X87295961Y-79380000I1041130J1079837D01*
G01*
X87295961Y-77220000D02*
G75*
G03*
X85213870Y-77220163I-1040961J-1080000D01*
G01*
X87815000Y-77064484D02*
G75*
G03*
X84582665Y-77221392I-1560000J-1235516D01*
G01*
D17*
%TO.C,J5*%
X109825000Y-100025000D02*
X109825000Y-100025000D01*
X110025000Y-100025000D02*
X110025000Y-100025000D01*
D10*
X112975000Y-101275000D02*
X112975000Y-108275000D01*
X105685000Y-108275000D02*
X105685000Y-101275000D01*
X105685000Y-101275000D02*
X112975000Y-101275000D01*
X112975000Y-108275000D02*
X105685000Y-108275000D01*
D17*
X109825000Y-100025000D02*
G75*
G03*
X110025000Y-100025000I100000J0D01*
G01*
X110025000Y-100025000D02*
G75*
G03*
X109825000Y-100025000I-100000J0D01*
G01*
D16*
%TO.C,LED PWR*%
X70390000Y-77170000D02*
X70390000Y-77014000D01*
X70390000Y-79486000D02*
X70390000Y-79330000D01*
X69870961Y-77170000D02*
G75*
G03*
X67788870Y-77170163I-1040961J-1080000D01*
G01*
X67788870Y-79329837D02*
G75*
G03*
X69870961Y-79330000I1041130J1079837D01*
G01*
X67157665Y-79328608D02*
G75*
G03*
X70390000Y-79485516I1672335J1078608D01*
G01*
X70390000Y-77014484D02*
G75*
G03*
X67157665Y-77171392I-1560000J-1235516D01*
G01*
%TD*%
M02*
